<?xml version="1.0" encoding="UTF-8"?>
<svg id="Layer_1" xmlns="http://www.w3.org/2000/svg" version="1.1" xmlns:xlink="http://www.w3.org/1999/xlink" viewBox="0 0 425.3 313.2">
  <!-- Generator: Adobe Illustrator 29.0.0, SVG Export Plug-In . SVG Version: 2.1.0 Build 186)  -->
  <defs>
    <style>
      .st0 {
        fill: url(#linear-gradient2);
      }

      .st1 {
        fill: url(#linear-gradient1);
      }

      .st2 {
        fill: none;
      }

      .st3 {
        fill: url(#linear-gradient4);
      }

      .st4 {
        fill: url(#linear-gradient3);
      }

      .st5 {
        fill: url(#linear-gradient);
      }

      .st6 {
        clip-path: url(#clippath);
      }
    </style>
    <clipPath id="clippath">
      <rect class="st2" width="425.3" height="313.2"/>
    </clipPath>
    <linearGradient id="linear-gradient" x1="379.3" y1="-4.2" x2="183.4" y2="338.4" gradientUnits="userSpaceOnUse">
      <stop offset="0" stop-color="#97b2f7"/>
      <stop offset="1" stop-color="#3b4ee8"/>
    </linearGradient>
    <linearGradient id="linear-gradient1" x1="280.4" y1="-60.8" x2="84.4" y2="281.8" xlink:href="#linear-gradient"/>
    <linearGradient id="linear-gradient2" x1="320.2" y1="-38.1" x2="124.2" y2="304.6" xlink:href="#linear-gradient"/>
    <linearGradient id="linear-gradient3" x1="357.2" y1="-16.9" x2="161.2" y2="325.7" xlink:href="#linear-gradient"/>
    <linearGradient id="linear-gradient4" x1="280.1" y1="-61" x2="84.2" y2="281.7" xlink:href="#linear-gradient"/>
  </defs>
  <g class="st6">
    <g>
      <g>
        <path class="st5" d="M361.9,256.1s44.3-42.5,32.5-109.2c-11.8-66.8-82.8-94.3-148.5-79.6,0,0-52.8,11-82.1,37.8,0,0,17.9-33.6,79.8-53.6,0,0,50.4-20,111.4-.9,41.6,13,70.1,51.2,70.4,94.7.2,37.2-12.1,82.3-63.4,110.8Z"/>
        <path class="st1" d="M226.9,134s23.5-10.9,49.2-4.1c7.4,2,12,9.4,10.2,16.9-3,12.5-13.4,31.8-47.3,46.8-54.6,24.3-162.1,21-180.3-54.5,0,0-12-63.2,66.9-106.4C204.6-10.4,256.1,1.5,256.1,1.5c0,0-94.2,5.3-145.6,86.4,0,0-39.6,63.6,36.1,89,64,21.4,110.1-6.7,125.9-27.4,3.8-5,1.3-12.3-4.7-13.9-9.1-2.5-23.7-4.8-40.8-1.5Z"/>
      </g>
      <path class="st0" d="M311.3,10.5c-87.5-16.2-144.9,28.4-159.5,41.4-12.9,11.9-21.9,23.4-27.5,31.5-6.1,8.9-10.4,19.1-12,29.8-7.6,51.2,49.2,61.2,49.2,61.2-72.8-52.1,33.6-113.5,33.6-113.5,114.6-58.2,196.4-2.1,196.4-2.1-23.6-26.9-51.4-41.9-80.2-48.2Z"/>
      <path class="st4" d="M228.2,312.3c34-2.4,69.4-16.6,103.8-42.7,0,0,.1,0,.2-.2h0c10.8-9.5,20.5-20.3,28.7-32.3,60.8-89.5-1.2-176.3-95.1-163.6-128.2,17.3-102.1,82.3-102.1,82.3-4-27.1,14.7-42.4,33.9-52.3,12.5-6.4,26-10.7,39.9-13,18.4-3,45.8-4.7,69.8,4.4,20,7.6,32.9,27.1,32.9,48.5,0,7.7-.8,15-2.2,21.8h0s0,0,0,0c-1.9,8.9-4.9,17-8.9,24.5-32.8,64.8-121.4,80.5-121.4,80.5-100.7,18.6-156.3-14.3-156.3-14.3,0,0,48.7,65.4,176.9,56.2Z"/>
      <path class="st3" d="M254.5,101.5c-80.2,10-78.6,52.1-78.6,52.1,0,0,10-18.9,50.3-33.2,23.8-8.4,43.7-6.5,56-3.6,9.5,2.3,16.4,10.6,17.2,20.3,1.8,23.1-14.2,47.2-60.3,67.8-56.8,25.3-178.5,20.7-192.4-62.8C34.2,67.3,125.6,22.8,144.6,14.5l3.4-1.5s-68.1,3.2-120.4,62.6C2,104.7-5.6,143.2,3.9,177.4c5,18.1,14.9,35,29.4,48.7,3.2,3,6.5,5.8,10.2,8.5,16.5,12.1,37.7,22,64.8,26.5h0c63.5,12.6,137.7-3.2,176.2-37.4,70-62.1,50.3-132.1-29.9-122.1Z"/>
    </g>
  </g>
</svg>