<?xml version="1.0" encoding="UTF-8" standalone="no"?>
<!-- Created with Inkscape (http://www.inkscape.org/) -->

<svg
   version="1.1"
   id="svg1"
   width="1901.9984"
   height="1325.7039"
   viewBox="0 0 1901.9984 1325.7039"
   xmlns="http://www.w3.org/2000/svg"
   xmlns:svg="http://www.w3.org/2000/svg">
  <defs
     id="defs1" />
  <g
     id="g1"
     transform="translate(-49,-136.73573)">
    <path
       style="fill:#000000"
       d="m 1783.5,1461.9597 c -18.1261,-1.6133 -33.7604,-7.8852 -64.3396,-25.8108 l -17.3396,-10.1645 -5.6604,1.5361 c -3.1132,0.8449 -10.3935,1.8103 -16.1784,2.1454 -34.0766,1.9739 -60.5642,-16.9273 -67.5171,-48.1793 -2.2164,-9.962 -1.6068,-25.3624 1.365,-34.4866 6.1617,-18.9176 20.6169,-33.4116 39.5917,-39.6977 7.3626,-2.4391 9.4518,-2.6762 23.5784,-2.6762 14.1133,0 16.2157,0.238 23.5,2.6613 16.4833,5.4836 28.1452,15.1456 34.9855,28.9861 12.6797,25.6557 5.285,60.2035 -16.6193,77.644 -3.6437,2.9011 -4.5367,4.11 -3.6049,4.8802 3.7323,3.0846 50.8645,25.3405 60.2847,28.4665 21.9679,7.2899 43.3663,8.6297 60.454,3.7853 11.6001,-3.2887 12,-3.3624 12,-2.2129 0,0.5884 -2.1375,2.0363 -4.75,3.2176 -18.3334,8.29 -39.1423,11.7397 -59.75,9.9055 z m -87.8466,-42.103 c 15.572,-5.8262 23.6308,-22.6227 23.6808,-49.3567 0.029,-15.245 -1.5758,-23.0583 -6.9097,-33.65 -13.2161,-26.2436 -47.2413,-34.1637 -66.0341,-15.3708 -9.4337,9.4337 -13.3904,21.3221 -13.3904,40.2334 0,23.6383 7.4474,41.1048 22.1181,51.8741 11.21,8.2289 28.2536,10.8652 40.5353,6.27 z m -1097.28404,4.3607 c -8.19522,-7.091 -53.74116,-53.1971 -71.35082,-72.2284 -6.86481,-7.4189 -12.87327,-13.6543 -13.35213,-13.8564 -0.48223,-0.2035 -0.60873,3.8117 -0.28355,9 0.32292,5.1521 0.84231,21.5174 1.15422,36.3674 0.61352,29.2097 1.44215,36.2662 4.59355,39.1182 1.13919,1.031 4.21276,2.0708 6.98096,2.3619 2.72012,0.2859 4.93356,0.9699 4.91877,1.5199 -0.0171,0.6346 -9.98595,1.1016 -27.27864,1.278 -28.6897,0.2926 -43.75172,-0.3504 -43.75172,-1.8678 0,-0.5006 0.62686,-0.9102 1.39301,-0.9102 2.95582,0 2.24375,-3.3888 -4.33913,-20.6505 l -6.80701,-17.8495 -19.4944,-0.2707 -19.4944,-0.2707 -5.62904,15.0463 c -7.52177,20.1056 -7.4306,23.4725 0.65454,24.1706 2.06702,0.1785 3.86131,0.7745 3.98732,1.3245 0.14614,0.6379 -7.10398,1.0494 -20.02089,1.1363 -16.66083,0.1122 -20.25,-0.1094 -20.25,-1.25 0,-0.9637 1.29559,-1.3874 4.25,-1.39 5.7108,-0.01 9.7043,-2.6568 12.92103,-8.5799 1.46853,-2.704 11.26053,-26.5164 21.76001,-52.9164 25.16201,-63.2677 23.97054,-60.5 26.04491,-60.5 2.22132,0 2.63652,0.9445 25.05783,57 10.0096,25.025 19.67888,48.425 21.48729,52 5.5686,11.0084 12.32393,15.3754 17.41158,11.2556 2.11096,-1.7093 2.43848,-3.0534 3.12701,-12.8325 0.423,-6.0077 1.04507,-31.9562 1.38239,-57.6634 0.57899,-44.1259 0.85255,-49.7623 2.41494,-49.7579 0.35365,10e-4 8.05079,7.7635 17.10474,17.25 9.05394,9.4865 29.69024,30.7482 45.85842,47.2482 l 29.3967,30 -0.65987,-39 c -0.36294,-21.45 -1.09964,-40.671 -1.63712,-42.7134 -1.21876,-4.6312 -4.18891,-6.7821 -9.39237,-6.8019 -4.0968,-0.016 -7.44022,-1.3026 -5.88343,-2.2647 1.46934,-0.9081 42.35594,-0.5506 42.35594,0.3703 0,0.8703 -2.36714,1.601 -6.89967,2.1297 -1.31982,0.154 -3.33931,1.5431 -4.48774,3.0869 -2.36735,3.1823 -2.21233,-0.1445 -3.41972,73.3935 -0.47939,29.1982 -1.04122,42.5486 -1.82351,43.3306 -0.84071,0.8404 -2.89208,-0.3939 -8,-4.8136 z m -152.16122,-46.7589 c 0.49739,-0.4974 -13.69779,-40.2815 -14.74704,-41.3307 -0.2536,-0.2536 -0.73218,-0.1901 -1.0635,0.1413 -0.69314,0.6931 -15.3976,39.8179 -15.3976,40.969 0,0.8543 30.35988,1.0687 31.20814,0.2204 z M 682.5,1428.8909 c -20.56782,-2.9661 -38.54029,-13.2052 -47.88173,-27.2787 -8.19705,-12.3494 -11.6209,-32.5706 -8.231,-48.6122 4.79915,-22.7104 22.0122,-40.3488 45.61273,-46.7398 9.13087,-2.4726 38.75091,-2.2434 55.42169,0.4289 l 11.92169,1.911 -0.26055,11.95 c -0.29119,13.355 -0.63064,17.331 -1.55884,18.2592 -0.96126,0.9613 -2.24142,-1.6407 -2.93203,-5.9596 -0.68488,-4.283 -5.65409,-10.4889 -11.0875,-13.8469 -9.01603,-5.5723 -25.39833,-8.6011 -37.92839,-7.0124 -11.95141,1.5152 -18.13658,4.3872 -25.66752,11.9181 -9.50856,9.5086 -12.92555,19.4427 -12.89119,37.478 0.0363,19.0425 5.59596,33.4786 17.38257,45.1353 11.6501,11.5217 23.39742,15.8978 41.1143,15.3159 15.20311,-0.4994 14.48577,0.7355 14.48577,-24.9369 0,-20.1263 -0.0717,-20.8717 -2.25,-23.3754 -1.68576,-1.9375 -3.56657,-2.7387 -7.5,-3.195 C 698.52983,1368.9709 706.3416,1368 729,1368 c 13.2,0 24,0.3907 24,0.8683 0,0.4776 -1.86604,1.1186 -4.14675,1.4246 -2.28071,0.3059 -5.09321,1.5018 -6.25,2.6575 -1.99884,1.997 -2.119,3.2706 -2.42045,25.6546 l -0.3172,23.5532 -3.6828,1.5441 c -13.37819,5.6091 -35.76346,7.7727 -53.6828,5.1886 z m 119.5,0.092 c -16.95151,-2.9466 -28.71775,-13.5569 -33.80338,-30.4825 -1.17593,-3.9136 -1.63209,-13.6308 -2.09948,-44.7236 -0.59352,-39.4826 -0.61079,-39.7373 -2.84716,-41.9723 -1.53486,-1.5339 -3.89354,-2.4163 -7.42085,-2.7763 -2.84396,-0.2903 -5.34339,-1.0511 -5.5543,-1.6907 -0.28471,-0.8635 5.95053,-1.1534 24.21273,-1.1257 17.76739,0.027 24.49256,0.3499 24.22292,1.163 -0.2053,0.6191 -2.31382,1.3894 -4.68561,1.7119 -4.74273,0.6449 -6.67462,2.5298 -7.58914,7.4046 -0.32434,1.7289 -0.41879,19.7632 -0.20989,40.0763 0.35761,34.7728 0.50803,37.319 2.5719,43.5362 4.17386,12.5734 14.12828,20.5037 27.10222,21.5914 12.38122,1.038 23.39732,-4.1529 29.39271,-13.8502 5.0044,-8.0945 5.84192,-16.9035 5.50458,-57.8977 l -0.29725,-36.1222 -2.80576,-2.4123 c -1.85811,-1.5976 -4.05352,-2.4176 -6.5,-2.4277 -3.81198,-0.016 -7.0619,-1.3366 -5.551,-2.2561 1.4988,-0.912 42.35676,-0.5768 42.35676,0.3475 0,0.8832 -2.34888,1.613 -6.89967,2.1439 -1.31982,0.154 -3.19211,1.405 -4.16065,2.78 -1.57557,2.2368 -1.81861,6.2902 -2.30847,38.5 -0.60134,39.5398 -1.2745,45.2268 -6.64888,56.1717 -5.41998,11.0377 -17.50431,19.8446 -30.53523,22.2534 -6.53581,1.2083 -18.66918,1.2356 -25.4471,0.057 z m 643.5414,-0.4875 c -28.7911,-5.9823 -48.5067,-30.9769 -48.5067,-61.495 0,-28.7801 16.7545,-51.7092 43.9653,-60.1684 6.4844,-2.0159 9.5312,-2.3264 22.5,-2.2932 17.0471,0.044 23.3184,1.3306 34.8971,7.1616 8.338,4.1989 18.7329,14.1793 22.8881,21.9755 8.6311,16.1937 8.9469,41.8122 0.7375,59.8245 -7.6091,16.695 -22.3988,29.0795 -40.6947,34.0765 -8.1905,2.2371 -27.1045,2.7225 -35.7866,0.9185 z m 35.8182,-8.5283 c 10.3823,-3.8846 17.9383,-13.1936 22.294,-27.4667 1.4577,-4.7764 1.8233,-9.2629 1.7932,-22 -0.035,-14.6507 -0.2651,-16.6813 -2.7317,-24.0784 -7.9147,-23.7361 -26.6568,-37.1933 -48.7151,-34.9785 -17.715,1.7787 -30.7134,15.0717 -34.0436,34.8152 -1.9256,11.4167 -0.8065,30.585 2.3204,39.7417 6.1948,18.141 16.473,29.2591 31.4851,34.0581 8.0904,2.5863 20.5511,2.545 27.5977,-0.091 z M 1547,1428.571 c -8.3274,-1.9105 -10.8768,-3.2316 -11.5707,-5.9963 -1.0301,-4.1042 0.8871,-25.855 2.3207,-26.3283 0.7676,-0.2534 1.25,0.5143 1.25,1.9892 0,4.6197 3.1121,12.8229 6.1982,16.3378 13.3052,15.1537 40.7455,7.6597 40.7962,-11.1415 0.013,-4.7633 -3.1852,-12.3666 -7.0466,-16.7535 -2.2339,-2.5378 -8.1985,-7.8677 -13.2547,-11.8442 -12.1959,-9.5916 -18.6778,-16.4518 -22.7331,-24.0597 -2.8078,-5.2675 -3.413,-7.5813 -3.7722,-14.422 -0.3717,-7.0773 -0.1056,-8.852 2.0252,-13.5061 4.1299,-9.021 11.1165,-14.5027 22.287,-17.4866 6.025,-1.6095 17.9469,-1.7483 26.0663,-0.3036 10.2213,1.8186 9.4354,0.7956 9.42,12.2616 -0.01,5.6004 -0.2849,11.1951 -0.6166,12.4326 -0.639,2.3844 -2.3659,3.1114 -2.3753,1 -0.029,-6.5548 -5.8273,-14.8601 -12.4858,-17.885 -5.864,-2.664 -15.0534,-2.4682 -20.5486,0.4377 -9.0397,4.7803 -11.4096,16.1013 -5.2388,25.0253 1.5283,2.2102 9.0788,9.0345 16.7788,15.165 15.3077,12.1875 20.1757,17.4431 24.2906,26.2248 2.3833,5.0863 2.7081,6.9858 2.6986,15.7822 -0.01,8.8708 -0.3099,10.5691 -2.6605,15.0401 -3.1986,6.0843 -10.3466,12.8957 -16.138,15.3782 -9.6097,4.1191 -24.48,5.2242 -35.6907,2.6523 z m 241.4018,-0.056 c -12.4353,-2.7055 -22.7615,-10.4184 -27.837,-20.7923 -4.7889,-9.7881 -5.5213,-16.4494 -5.6318,-51.222 -0.056,-17.6 -0.4321,-34.6522 -0.8359,-37.8938 -0.8623,-6.9226 -3.3107,-9.5674 -8.9579,-9.6765 -4.1912,-0.081 -7.9434,-1.3148 -6.5728,-2.1614 1.4911,-0.921 49.4336,-0.5803 49.4336,0.3513 0,0.4633 -1.2375,1.0925 -2.75,1.3982 -5.9425,1.2013 -7.7561,2.1114 -8.964,4.4988 -1.5986,3.1595 -1.7892,70.2888 -0.2269,79.9178 1.573,9.6948 4.4734,15.4376 10.6461,21.0791 15.7219,14.369 43.2057,8.3703 49.7583,-10.8604 2.8938,-8.493 3.6997,-21.9047 3.3644,-55.9908 l -0.3279,-33.3377 -2.8058,-2.4123 c -1.858,-1.5975 -4.0535,-2.4175 -6.5,-2.4276 -3.8119,-0.016 -7.0619,-1.3366 -5.551,-2.2561 1.4082,-0.8569 42.3568,-0.606 42.3568,0.2596 0,1.1255 -2.6621,2.0118 -6.0428,2.0118 -4.336,0 -6.5808,3.1245 -7.3189,10.1868 -0.3511,3.3586 -0.6383,19.501 -0.6383,35.8719 0,33.322 -0.918,41.2285 -5.9846,51.5463 -5.3721,10.9397 -17.7101,19.8717 -30.9062,22.3743 -7.251,1.3751 -20.2523,1.1569 -27.7074,-0.465 z m -903.95643,-1.4038 c -0.99459,-0.9907 0.9576,-2.1105 3.67939,-2.1105 4.49188,0 6.6714,-1.6047 7.82591,-5.7618 0.65452,-2.3567 1.04024,-22.5096 1.04375,-54.5337 l 0.006,-50.7954 -2.45455,-2.4546 c -1.56225,-1.5622 -3.65252,-2.4801 -5.75,-2.5248 -3.8899,-0.083 -7.55799,-1.3469 -6.22907,-2.1464 1.20868,-0.7271 48.63728,-0.7182 49.86724,0.01 1.40323,0.8301 -2.43512,2.0574 -6.68362,2.137 -5.12888,0.096 -7.43289,2.6768 -8.24779,9.2381 -1.1537,9.2892 -0.0735,92 1.24115,95.0343 2.15537,4.9747 6.2845,6.2183 20.75664,6.2513 10.6372,0.024 13.59874,-0.2958 16.29422,-1.7605 3.78427,-2.0563 6.746,-6.4285 7.66193,-11.3108 0.34896,-1.8602 1.13047,-3.3821 1.73669,-3.3821 0.7661,0 0.90516,2.5158 0.45601,8.25 -0.82175,10.4911 -2.21756,15.4783 -4.5382,16.2149 -1.98076,0.6286 -76.022,0.2864 -76.66528,-0.3544 z m 83.96569,-0.2557 c -0.54414,-0.8787 2.21168,-1.8548 5.23647,-1.8548 8.28552,0 8.5477,-2.0013 8.16696,-62.3389 l -0.31449,-49.8389 -2.36078,-1.9111 C 977.84078,1309.86 975.29009,1309 973.471,1309 c -3.75662,0 -6.471,-0.8403 -6.471,-2.0032 0,-0.4341 11.25,-0.7893 25,-0.7893 13.75,0 25,0.3552 25,0.7893 0,1.1738 -2.7251,2.0032 -6.5818,2.0032 -4.1569,0 -7.0758,2.6505 -7.923,7.1942 -1.1729,6.2906 -0.064,94.0899 1.2251,97.0079 2.2006,4.9809 6.3138,6.2183 20.7797,6.2513 17.1979,0.039 20.6189,-1.7538 23.457,-12.2938 1.911,-7.0969 3.382,-5.0843 2.6242,3.5904 -0.8706,9.966 -2.0999,15.3266 -3.7589,16.3911 -1.5159,0.9727 -77.80402,0.6942 -78.41124,-0.2863 z m 85.08624,0.3092 c -1.128,-1.128 0.9644,-2.164 4.3706,-2.164 5.2718,0 7.2629,-1.8402 8.2058,-7.5841 0.4439,-2.7037 0.8339,-26.4179 0.8667,-52.698 0.071,-57.2501 0.5964,-54.3561 -10.1904,-56.1759 -9.0183,-1.5214 -2.0878,-2.3292 19.75,-2.302 12.925,0.016 23.5,0.3705 23.5,0.7876 0,1.0856 -2.7017,1.9724 -6.0092,1.9724 -1.8831,0 -3.5467,0.8912 -4.9182,2.6349 -2.0355,2.5877 -2.0726,3.5512 -2.0726,53.8507 0,33.1839 0.3696,52.2762 1.0498,54.2273 2.7131,7.783 14.4118,6.5214 19.4077,-2.093 1.3141,-2.266 11.4346,-26.8449 22.49,-54.6199 23.879,-59.9925 23.8823,-60 26.1145,-60 1.9317,0 2.1678,0.5496 28.5189,66.3717 9.2195,23.0294 18.3134,44.2261 20.2085,47.1038 4.1094,6.24 7.6082,8.5245 13.0559,8.5245 4.2317,0 6.26,1.3619 3.5672,2.3952 -2.0911,0.8024 -26.485,0.7756 -34.2658,-0.038 -3.3807,-0.3533 -6.1467,-1.0283 -6.1467,-1.5 0,-0.4716 0.675,-0.8575 1.5,-0.8575 2.5921,0 1.6957,-3.9219 -4.9137,-21.5 l -6.3921,-17 -19.5174,-0.2709 -19.5175,-0.2708 -2.1863,5.7708 c -9.2279,24.3568 -10.522,29.7404 -7.7103,32.0739 0.6945,0.5764 2.9539,1.194 5.0209,1.3725 2.067,0.1785 3.8613,0.7745 3.9873,1.3245 0.2248,0.9814 -76.7986,1.639 -77.7736,0.664 z M 1167,1376.8539 c 0,-1.556 -14.0299,-40.1478 -14.9619,-41.1556 -0.6514,-0.7043 -16.0381,38.9903 -16.0381,41.375 0,0.5291 6.6501,0.9267 15.5,0.9267 10.984,0 15.5,-0.3339 15.5,-1.1461 z m 72.508,50.3208 c -1.099,-1.0991 0.8854,-2.1747 4.0121,-2.1747 4.3502,0 7.0021,-2.7937 8.4101,-8.8598 0.5924,-2.5521 4.676,-28.4902 9.0748,-57.6402 4.3988,-29.15 8.208,-53.5625 8.465,-54.25 0.7377,-1.9737 3.1661,-1.4604 4.7315,1 0.7874,1.2375 11.2638,22.6125 23.2809,47.5 12.0171,24.8875 22.1122,45.2329 22.4335,45.2119 0.3212,-0.021 10.2097,-20.3835 21.9744,-45.25 11.7647,-24.8665 22.0126,-46.2244 22.7731,-47.4619 1.6502,-2.6853 3.998,-2.9338 4.7234,-0.5 0.2868,0.9625 3.9388,25.15 8.1154,53.75 4.1767,28.6 8.2591,54.3599 9.0721,57.2441 1.7369,6.1622 4.0232,8 10.9907,8.8346 6.7938,0.8139 7.9944,1.2619 6.7409,2.5154 -1.2019,1.2019 -37.3715,0.1014 -39.4791,-1.2011 -1.0294,-0.6363 -0.8954,-1.1223 0.6137,-2.2258 1.8957,-1.3862 1.8536,-1.9823 -2.3137,-32.7895 -5.9205,-43.7685 -6.2927,-46.1177 -7.1615,-45.196 -0.4242,0.4501 -9.1636,18.3683 -19.421,39.8183 -10.2574,21.45 -19.4771,39.8386 -20.4883,40.8635 -1.7905,1.8148 -1.9033,1.7493 -4.31,-2.5 -6.2276,-10.9955 -17.3713,-33.2374 -26.7363,-53.3635 -5.6303,-12.1 -10.6045,-22.3961 -11.0536,-22.8803 -0.4491,-0.4841 -1.078,0.6409 -1.3975,2.5 -1.2854,7.4799 -8.5586,64.9496 -8.5586,67.6263 0,4.5899 1.9988,6.3504 8.0485,7.0887 2.9983,0.3659 5.339,1.1153 5.2014,1.6653 -0.2455,0.9818 -36.7817,1.6349 -37.7419,0.6747 z m 632.9029,-0.3199 c -0.5728,-0.9253 2.2691,-1.8548 5.6709,-1.8548 4.5334,0 6.6463,-2.9059 7.3881,-10.1609 0.3565,-3.4865 0.5091,-27.8666 0.3391,-54.178 l -0.309,-47.839 -2.3608,-1.911 c -1.4001,-1.1335 -3.91,-1.9111 -6.1682,-1.9111 -4.5179,0 -7.1713,-0.8668 -6.4124,-2.0948 0.3115,-0.504 13.5523,-0.6218 30.7442,-0.2736 19.4514,0.394 32.8549,0.231 37.6656,-0.4583 4.1076,-0.5884 7.5911,-0.9471 7.7412,-0.797 0.6383,0.6382 -1.8763,22.1904 -2.6832,22.9973 -0.5159,0.5159 -1.1722,-0.7362 -1.5689,-2.9933 -1.5704,-8.9352 -4.5424,-10.3097 -23.0178,-10.6453 L 1906.5,1314.5 v 22 22 h 15.5473 c 13.1782,0 15.9576,-0.2691 18.2395,-1.7661 3.4626,-2.2717 4.2148,-1.923 3.8109,1.7661 -0.1806,1.65 -0.614,7.1709 -0.9631,12.2686 -0.675,9.8587 -2.2593,12.5434 -3.2079,5.4359 -1.0485,-7.8569 -2.7683,-8.6551 -19.4516,-9.0283 L 1906,1366.8525 v 21.8237 c 0,30.177 0.6121,31.155 19.4984,31.2618 15.058,0.085 20.1502,-2.5205 22.4019,-11.4626 1.3498,-5.3608 3.0981,-5.8782 3.0981,-0.917 0,5.4511 -2.0816,17.786 -3.2418,19.2099 -0.8082,0.9918 -9.0889,1.2098 -37.9907,1 -20.3265,-0.1476 -37.1369,-0.5586 -37.3566,-0.9135 z M 146,1275.8903 c -5.07274,-3.0469 -7.75061,-6.7117 -9.05774,-12.3957 -3.49608,-15.2029 10.42436,-26.9643 24.80326,-20.9565 4.7503,1.9848 7.02196,4.0893 9.36089,8.6721 6.04372,11.8416 -3.19716,26.7959 -16.55219,26.7861 -3.35422,0 -6.23145,-0.7109 -8.55422,-2.106 z m 45,0.1635 c -7.16556,-3.8034 -11.28595,-13.6098 -9.1066,-21.6733 4.0007,-14.8023 23.27949,-18.1979 32.75892,-5.7697 2.17114,2.8465 2.84641,4.9514 3.13089,9.7592 0.32231,5.4474 0.0263,6.6538 -2.65864,10.8333 -5.2732,8.2089 -15.88726,11.2229 -24.12457,6.8505 z m 1270.5,0.086 c -5.7652,-3.5611 -9.5,-10.0129 -9.5,-16.4109 0,-4.785 4.3573,-12.9176 8.1081,-15.1333 14.2714,-8.4303 30.7233,2.0265 28.5167,18.1253 -0.7505,5.4758 -4.1789,10.6542 -8.761,13.2331 -4.8037,2.7035 -14.1349,2.798 -18.3638,0.1858 z M 414,1257.499 v -8.5011 l 482.75,0.2511 482.75,0.251 0.2904,8.25 0.2905,8.25 H 897.04044 414 Z m 1154,10e-4 v -8.5 h 190 190 v 8.5 8.5 h -190 -190 z m -1225.2632,4.9035 c -0.32809,-0.3281 2.18091,-2.6941 5.57555,-5.2578 11.57181,-8.7393 19.09474,-21.8494 19.88059,-34.6457 l 0.30706,-5 -10.4659,-0.7475 c -12.98001,-0.927 -20.47013,-2.7639 -29.73167,-7.2914 -8.55074,-4.18 -15.40368,-11.3712 -18.04754,-18.9383 -2.23819,-6.4061 -2.49246,-29.8604 -0.39053,-36.0228 6.12865,-17.9678 25.82478,-28.4703 47.68942,-25.4292 l 7.74956,1.0778 7.09833,-6.8602 c 13.02195,-12.5852 20.67967,-19.5404 21.07685,-19.1432 1.38506,1.385 5.98592,39.5302 7.1289,59.1048 l 0.68609,11.75 h 173.79423 c 101.32746,0 174.02511,-0.3736 174.34795,-0.8959 0.30455,-0.4928 -0.68772,-3.2724 -2.20503,-6.1768 -2.06206,-3.9473 -3.86823,-5.8676 -7.15199,-7.6041 L 735.68543,1158 H 589.34272 C 458.86222,1158 443,1157.8347 443,1156.475 c 0,-2.1608 6.5328,-14.873 11.29299,-21.975 5.10498,-7.6164 19.40116,-21.8786 27.20701,-27.1422 3.3,-2.2253 10.25058,-6.2322 15.44574,-8.9042 20.63856,-10.6151 34.34096,-29.6079 46.45134,-64.3858 l 4.27811,-12.2856 3.32923,9.8589 c 2.88556,8.5451 3.3886,11.5329 3.77477,22.4204 0.38024,10.7201 0.12644,13.7252 -1.7313,20.5 -2.75174,10.035 -8.41327,20.6897 -17.1799,32.3316 -3.77739,5.0163 -6.86799,9.3425 -6.86799,9.6137 0,0.2713 48.72431,0.4932 108.27623,0.4932 67.98897,0 111.42915,0.3825 116.75,1.028 10.22261,1.2402 19.53302,5.4008 23.87605,10.6696 5.9707,7.2435 13.00215,24.9563 16.0981,40.5524 l 1.14142,5.75 h 24.41005 24.41005 l 0.4679,-2.25 c 0.25734,-1.2375 0.76297,-5.3925 1.12362,-9.2332 1.24346,-13.2425 6.69062,-26.5148 13.63245,-33.2161 6.22556,-6.0099 7.93035,-6.2949 38.03201,-6.3571 29.22638,-0.061 32.68753,-0.5366 35.93965,-4.9436 1.01467,-1.375 3.40116,-6.0859 5.30332,-10.4687 l 3.45846,-7.9687 1.55595,3.7239 c 3.31923,7.9441 4.71294,16.9626 4.36008,28.2135 -0.31759,10.1264 -0.5913,11.4368 -3.44624,16.5 -2.15717,3.8257 -4.56581,6.4133 -7.91215,8.5 l -4.81089,3 -23.26321,0.5 c -21.65435,0.4654 -23.45823,0.6454 -26.08303,2.6031 -2.69178,2.0075 -6.60522,10.0691 -5.65395,11.6469 0.24869,0.4125 18.68537,0.75 40.9704,0.75 h 40.51824 l -6.75671,9.75 c -3.71618,5.3625 -9.4253,13.6624 -12.68692,18.4443 -3.26163,4.7818 -6.8281,9.5068 -7.9255,10.5 -1.91154,1.7299 -13.03816,1.8165 -265.17016,2.0631 l -263.17489,0.2574 -1.07706,6.8401 c -2.86304,18.1826 -15.64495,31.3998 -36.29643,37.5326 -5.21649,1.5491 -21.07533,2.2707 -22.33004,1.016 z m 17.0132,-82.8699 c 6.11095,-6.589 3.48972,-15.46 -5.04105,-17.0604 -10.3616,-1.9438 -17.87674,10.4202 -11.17482,18.385 4.2858,5.0934 10.75351,4.5651 16.21587,-1.3246 z m 1514.2435,56.5321 c -4.7925,-1.4579 -8.5299,-3.9883 -14.7136,-9.9618 C 1848.8019,1215.982 1888.8847,1217 1500.8185,1217 H 1159 v -20.4932 -20.4932 l 69.75,-0.2568 69.75,-0.2568 0.3203,-3.3435 c 0.3738,-3.9016 -1.3556,-6.1956 -6.6612,-8.8357 -3.3852,-1.6845 -8.2871,-1.8582 -65.4879,-2.3208 l -61.8289,-0.5 7.3898,-9.5 c 4.0643,-5.225 15.9115,-20.5042 26.327,-33.9538 17.9905,-23.2311 18.9689,-24.3061 19.5708,-21.5 0.3484,1.6246 0.6966,4.5288 0.7737,6.4538 0.077,1.925 0.9833,5.3563 2.0136,7.6252 1.5051,3.3145 2.9844,4.6688 7.5274,6.8915 l 5.6542,2.7663 35.2193,0.1085 35.2193,0.1085 6.7604,3.327 c 4.3335,2.1326 9.1851,5.7226 13.5142,10 10.0242,9.9043 14.498,18.9505 16.5564,33.4777 l 1.1612,8.1953 9.9852,0.6325 c 22.7505,1.4412 70.4852,0.6869 70.4852,-1.1138 0,-0.3738 -2.1375,-2.1786 -4.75,-4.0106 -13.3468,-9.3595 -31.2957,-25.4793 -40.5494,-36.4171 l -4.1532,-4.9091 15.4763,-14.7835 15.4763,-14.7835 14.3494,14.9595 c 25.3193,26.3959 44.3779,39.6814 72.1506,50.2952 24.5617,9.3866 42.3339,11.8528 82.4102,11.4357 l 29.3398,-0.3053 19.3628,-14.696 19.3629,-14.696 6.0185,9.196 c 3.3102,5.0578 7.0106,10.8794 8.2231,12.9369 3.2445,5.5057 7.7095,7.9629 13.5547,7.4594 5.4906,-0.4728 6.4768,-1.0932 4.8513,-3.0517 -2.7603,-3.326 -20.1052,-31.2645 -20.1138,-32.3986 -0.01,-0.6875 0.3444,-1.25 0.7769,-1.25 0.4325,0 7.52,-5.1595 15.75,-11.4657 8.23,-6.3061 15.4497,-11.4811 16.0438,-11.5 0.9141,-0.029 17.9195,26.2068 30.8472,47.5911 5.757,9.5229 8.4814,11.6681 15.46,12.1728 3.2392,0.2343 6.5618,0.038 7.3836,-0.4361 1.4287,-0.8244 -6.7583,-14.5126 -34.6445,-57.9236 -2.6804,-4.1727 -4.9304,-8.2266 -5,-9.0087 -0.07,-0.7821 7.4897,-6.8293 16.7985,-13.4381 l 16.925,-12.0162 4.7309,7.2623 c 2.602,3.9942 10.9108,16.9372 18.464,28.7622 20.3758,31.8995 28.2816,43.5929 31.7975,47.0315 1.7367,1.6984 6.0718,4.5237 9.6337,6.2783 6.4316,3.1683 6.5979,3.1926 24.25,3.5373 L 1841,1176.1943 V 1151.5971 1127 l 28.25,0.044 c 38.0519,0.059 47.0731,0.8563 55.2578,4.8856 15.3169,7.5405 24.7873,26.259 24.8266,49.0708 0.03,17.5421 -4.9543,31.5564 -14.9519,42.0378 -10.4777,10.9848 -19.7171,13.9714 -42.8825,13.8615 -8.25,-0.039 -16.1279,-0.4143 -17.5065,-0.8336 z m 29.2887,-42.7782 c 3.4612,-3.2485 6.6644,-9.6602 6.6958,-13.4026 0.056,-6.6214 -8.861,-11.2153 -21.978,-11.3232 l -7.5,-0.062 -0.2842,6.5 c -0.2552,5.8347 0.052,7.0595 3,11.9665 6.108,10.1665 13.4912,12.4923 20.0664,6.321 z M 122.75,1216.2502 C 72.313196,1216.0132 66,1215.8113 66,1214.436 c 0,-0.8511 -1.788369,-19.6349 -3.974154,-41.7417 C 54.590631,1097.4951 49,1039.9463 49,1038.6089 c 0,-0.7336 1.248987,-2.9055 2.775526,-4.8264 5.001106,-6.2931 28.192833,-30.1475 28.759279,-29.581 0.906003,0.906 1.030364,2.0487 9.554549,87.7985 4.510624,45.375 8.33827,82.665 8.505879,82.8667 0.698707,0.8406 65.142207,1.3602 65.600337,0.5289 0.27144,-0.4926 -0.26808,-9.8837 -1.19892,-20.8693 -0.93084,-10.9855 -1.45699,-20.8855 -1.16923,-22 0.61339,-2.3756 1.9048,-3.6287 18.06184,-17.5263 12.98257,-11.1671 14.0735,-11.9238 14.17633,-9.8333 0.0361,0.7333 1.72561,16.8583 3.75453,35.8333 l 3.68895,34.5 29.75404,0.1406 c 16.36472,0.077 29.92817,-0.1476 30.14099,-0.5 0.21282,-0.3523 -2.29744,-30.7906 -5.57835,-67.6406 -3.60878,-40.5324 -5.64146,-67.869 -5.14553,-69.1997 0.88044,-2.3625 28.96298,-34.3003 30.15983,-34.3003 0.39487,0 2.1979,15.6375 4.00674,34.75 1.80883,19.1125 5.28328,54.8986 7.721,79.5246 2.43772,24.626 4.43221,46.7374 4.43221,49.1365 0,4.1709 -0.51462,4.9261 -11.75,17.2436 -6.4625,7.0849 -15.26832,16.7983 -19.56848,21.5854 -5.82401,6.4834 -8.75763,8.9646 -11.5,9.7262 -2.26947,0.6304 -17.29762,0.932 -39.18152,0.7865 -19.525,-0.1298 -61.0375,-0.356 -92.25,-0.5026 z m 881.9208,-29.9843 c -9.27059,-97.5486 -12.6702,-135.4564 -12.66568,-141.2302 0.006,-7.9331 1.10891,-9.9441 12.99488,-23.6991 12.1275,-14.0345 16.3387,-18.1543 16.6987,-16.3366 0.1635,0.825 2.0883,19.5 4.2774,41.5 2.1891,22 5.79,57.8993 8.002,79.7762 4.4562,44.071 4.8055,52.2702 2.4396,57.2561 -1.5791,3.3276 -25.9791,30.5145 -27.9654,31.1593 -0.6729,0.2185 -2.0258,-9.9516 -3.7815,-28.4257 z M 867.5,1090.1193 c -4.75782,-2.1848 -6.88992,-4.4149 -8.96186,-9.3738 -3.68484,-8.819 -0.27316,-19.5543 7.46691,-23.4955 15.73476,-8.0121 33.03547,6.7292 26.44427,22.5321 -4.34339,10.4136 -15.08812,14.8655 -24.94932,10.3372 z m 45,0.056 c -4.7759,-2.26 -6.89995,-4.4949 -8.96186,-9.4298 -5.34263,-12.7867 3.19889,-25.7455 16.96958,-25.7455 18.38283,0 25.10251,23.5059 9.73074,34.0388 -4.59965,3.1517 -12.42075,3.6528 -17.73846,1.1365 z M 496.82774,1037.723 c -5.36058,-4.0592 -7.82416,-8.7826 -7.82619,-15.0051 -0.002,-6.3836 1.95582,-10.7129 6.56186,-14.5096 6.76278,-5.5744 16.71255,-5.5389 23.11495,0.082 3.73726,3.2814 7.26511,9.6702 7.2941,13.2093 0.0538,6.5699 -5.09129,14.9587 -11.07124,18.0511 -1.54105,0.7969 -5.26426,1.4489 -8.27382,1.4489 -4.63563,0 -6.13335,-0.5008 -9.79966,-3.277 z m 390.91981,1.2636 c -9.09601,-4.9375 -12.3098,-18.0053 -6.56353,-26.6885 4.94919,-7.4787 16.19838,-10.5231 23.80653,-6.4428 5.86653,3.1462 9.1034,8.0892 9.71517,14.836 0.65101,7.1794 -1.73061,12.7004 -7.31653,16.961 -4.89668,3.7349 -14.07101,4.3581 -19.64164,1.3343 z M 59.515355,858 60.261785,728 H 57.71268 C 51.977672,728 52,728.06491 52,711.39301 V 696 h 4 c 2.2,0 4.005332,-0.3375 4.011849,-0.75 0.0065,-0.4125 1.352598,-36.525 2.991292,-80.25 1.638694,-43.725 2.983362,-82.9875 2.988151,-87.25 L 66,520 H 62.5 59 v -14 -14 h 4.438727 4.438727 l 0.534771,-4.25 c 0.399418,-3.17431 6.649011,-98.71473 8.847119,-135.25 L 77.5,348.5 73.25,348.1925 69,347.885 V 336.49476 325.10452 L 74.25,324.80226 79.5,324.5 85.692904,250 c 3.406097,-40.975 6.218597,-75.9625 6.25,-77.75 C 91.994855,169.29287 91.729661,169 89,169 h -3 v -7 -7 h 3.941359 c 3.807061,0 4.053354,-0.21013 7.228198,-6.16674 2.366332,-4.4397 4.553213,-6.97968 7.808643,-9.06947 4.15117,-2.66479 5.14976,-2.87625 12.18317,-2.57986 6.82449,0.28758 8.08067,0.66091 11.5,3.41771 2.11124,1.70217 5.14737,5.63815 6.74694,8.74661 2.77028,5.38354 3.09062,5.65175 6.75,5.65175 H 146 v 7 c 0,6.8 -0.0714,7 -2.5,7 -2.13345,0 -2.5,0.45829 -2.5,3.12571 0,3.23408 11.47721,138.31608 12.54286,147.62429 l 0.60105,5.25 H 160.07196 166 v 11.5 11.5 h -5 c -4.98726,0 -4.99984,0.008 -4.93712,3.25 0.0346,1.7875 2.17209,34.075 4.75,71.75 l 4.68712,68.5 5.25,0.30226 5.25,0.30226 V 506.05226 520 h -4.56055 -4.56055 l 0.55639,6.75 c 0.30602,3.7125 1.6996,40.95 3.09685,82.75 1.39725,41.8 2.7815,78.3625 3.07612,81.25 l 0.53565,5.25 H 179.07196 184 v 15.44521 15.44521 l -4.75,0.30479 -4.75,0.30479 -0.27256,18.25 -0.27256,18.25 H 408.35244 642.75 l 0.625,-3.125 c 0.34375,-1.71875 0.625,-9.81343 0.625,-17.98818 v -14.86318 l -4,-0.63963 -4,-0.63963 V 711.37219 696 h 4 c 3.69505,0 4.0006,-0.20965 4.00792,-2.75 0.004,-1.5125 1.34939,-38.75 2.98896,-82.75 1.63957,-44 2.98601,-82.3625 2.99208,-85.25 L 650,520 h -3.5 -3.5 v -14 -14 h 4.41468 4.41468 l 0.62632,-7.25 C 653.58096,471.72426 661,356.72103 661,352.30367 V 348 h -4 -4 V 336.5 325 h 4.88871 c 4.7239,0 4.90923,-0.10956 5.49758,-3.25 0.33488,-1.7875 3.08311,-33.85 6.10718,-71.25 3.02406,-37.4 5.79022,-71.0375 6.14702,-74.75 L 676.28921,169 H 672.6446 669 v -7 -7 l 3.75,-0.0153 c 4.72521,-0.0193 5.67853,-0.65408 7.48607,-4.98469 3.58886,-8.5984 10.37076,-13.17869 19.6383,-13.26311 8.88583,-0.0809 14.61252,4.03687 19.44385,13.98121 1.90768,3.92657 2.39571,4.2819 5.88105,4.2819 L 729,155 v 7 c 0,6.8 -0.0714,7 -2.5,7 -1.375,0 -2.49976,0.1125 -2.49946,0.25 2.9e-4,0.1375 2.0176,22.975 4.48291,50.75 2.4653,27.775 5.40534,61.3 6.53342,74.5 2.89246,33.84554 1.90214,30.5 9.02844,30.5 H 750 v 11.5 11.5 h -5 c -4.78317,0 -5.00084,0.11926 -5.01942,2.75 -0.0327,4.62936 9.10593,138.6649 9.5453,140 0.25664,0.77987 2.30368,1.25 5.44274,1.25 H 760 v 14 14 h -4.52312 -4.52311 l 0.64518,14.75 c 0.35484,8.1125 1.82775,47.6 3.27311,87.75 l 2.62794,73 5.25,0.30226 5.25,0.30226 v 15.39295 15.39295 l -4.75,0.30479 -4.75,0.30479 -0.27256,18.25 -0.27256,18.25 H 799.10244 840.25 l -0.65915,-3.25 c -3.31352,-16.33747 -3.80648,-21.81061 -3.21997,-35.75 0.33555,-7.975 1.28617,-17.86384 2.11248,-21.9752 4.9886,-24.82095 17.75011,-48.15374 34.57659,-63.21886 20.79436,-18.61766 44.60327,-28.82675 82.24583,-35.26642 2.53159,-0.43309 5.09029,-1.93559 7.6424,-4.4877 3.97473,-3.97473 15.70487,-21.12769 20.01562,-29.2688 2.45463,-4.63569 2.45649,-4.66112 0.5,-6.82302 -2.87006,-3.17138 -2.71216,-11.00228 0.2862,-14.19389 1.88266,-2.004 2.25255,-3.52733 2.26562,-9.33056 0.009,-3.81455 0.66756,-9.63555 1.46438,-12.93555 1.99149,-8.24771 2.01329,-8.1705 -2.4773,-8.77281 -2.19852,-0.29489 -6.91936,-1.90355 -10.49076,-3.5748 -21.25596,-9.94687 -30.09603,-36.40549 -19.34344,-57.89555 5.76916,-11.53019 19.55439,-21.53034 31.35446,-22.74531 3.4681,-0.35709 4.21909,-0.25486 2.47704,0.33718 -9.94301,3.37918 -17.82597,10.43769 -22.32783,19.99266 -2.7,5.7306 -3.13724,7.77361 -3.13724,14.65863 0,6.88316 0.43749,8.92855 3.13379,14.65125 7.23024,15.34571 23.15969,23.91336 38.75608,20.84496 15.0754,-2.96591 25.3633,-12.64405 29.2285,-27.49621 l 1.3012,-5 -0.3107,7.5 c -0.4356,10.51674 -3.4251,17.62398 -10.6714,25.37039 -7.7459,8.28031 -12.9349,11.06573 -26.12607,14.0242 l -2.65368,0.59516 1.40368,4.66406 c 0.77202,2.56523 1.40367,8.57279 1.40367,13.35013 0,7.36055 0.29946,8.9571 1.9624,10.46199 4.4503,4.02751 4.7282,11.90353 0.5816,16.48545 -1.2605,1.39287 -0.723,2.75992 4.5119,11.47509 7.0452,11.72911 16.0774,23.95952 19.2097,26.01189 1.2321,0.8073 8.3015,2.64969 15.7099,4.0942 59.6939,11.63937 94.9961,43.82217 106.1595,96.77903 3.6094,17.12244 2.7448,47.73164 -1.6651,58.94935 -0.6553,1.66689 1.5701,1.747 41.6689,1.5 L 1229.5,763.5 l 0.2747,-16.86776 c 0.1888,-11.59128 -0.084,-17.30014 -0.8724,-18.25 C 1228.2713,727.62201 1226.2352,727 1224.3776,727 H 1221 V 711.5 696 h 4.4547 c 4.2606,0 4.4756,-0.14157 4.9349,-3.25 0.2641,-1.7875 0.987,-18.325 1.6065,-36.75 0.6195,-18.425 1.9927,-54.875 3.0515,-81 1.0587,-26.125 1.9312,-49.1875 1.9387,-51.25 L 1237,520 h -4.5 -4.5 v -14 -14 h 4.9809 c 4.3633,0 5.0377,-0.27904 5.4384,-2.25 0.2516,-1.2375 2.2995,-30.375 4.551,-64.75 2.2515,-34.375 4.3663,-65.7625 4.6996,-69.75 l 0.606,-7.25 h -5.138 H 1238 V 336.5 325 h 5.9062 5.9061 l 0.605,-4.75 C 1251.6014,310.95214 1263,178.0896 1263,173.58545 1263,169.36097 1262.8032,169 1260.5,169 c -2.4286,0 -2.5,-0.2 -2.5,-7 v -7 h 3.9866 c 3.6512,0 4.1165,-0.31097 5.5309,-3.69617 3.9611,-9.4802 10.6643,-14.30383 19.8776,-14.30383 3.0111,0 6.7415,0.4776 8.2898,1.06133 4.0561,1.52921 9.1192,6.70589 11.9212,12.18867 2.2821,4.46535 2.6663,4.75 6.4107,4.75 H 1318 v 7 7 h -3 c -2.1833,0 -3.0051,0.47639 -3.0188,1.75 -0.035,3.3175 12.1355,151.7524 12.5454,153 0.2562,0.77996 2.3026,1.25 5.442,1.25 H 1335 v 11.5 11.5 h -3.941 c -2.1675,0 -4.133,0.3375 -4.3678,0.75 -0.2347,0.4125 -0.07,5.925 0.3664,12.25 0.4363,6.325 2.4159,36.925 4.3992,68 1.9832,31.075 3.8372,57.9625 4.1199,59.75 0.4907,3.10337 0.7149,3.25 4.9686,3.25 H 1345 v 13.93963 13.93964 l -3.75,0.31036 -3.75,0.31037 0.2635,7 c 0.1449,3.85 1.3757,38.725 2.7352,77.5 1.3594,38.775 2.7467,75.1125 3.0827,80.75 l 0.6111,10.25 h 4.4037 4.4038 v 15.4425 15.4425 l -4.25,0.3075 -4.25,0.3075 -0.2726,17.63795 -0.2726,17.63796 3.7726,0.58551 c 6.0296,0.9358 403.6968,1.99598 436.5226,1.16376 L 1814,763.77095 V 745.88547 728 h -6.5 -6.5 V 712.5 697 h 6.5 c 5.7821,0 6.5,-0.21579 6.5,-1.95381 0,-2.39342 5.8162,-159.86848 6.2528,-169.29619 l 0.3126,-6.75 H 1816.2827 1812 v -14 -14 h 4.9547 c 5.7792,0 5.5544,0.56775 6.5339,-16.5 0.3157,-5.5 2.3344,-35.84667 4.4861,-67.43706 2.1517,-31.59038 3.686,-57.80288 3.4097,-58.25 C 1831.1081,348.36583 1828.8835,348 1826.441,348 H 1822 v -12 -12 h 6 c 3.3,0 6,-0.38373 6,-0.85274 0,-0.469 2.0285,-22.8565 4.5079,-49.75 C 1844.3451,210.07974 1847,178.80882 1847,173.37135 1847,169.18096 1846.8758,169 1844,169 h -3 v -7 -7 l 4.25,-0.0155 c 4.136,-0.0151 4.3315,-0.16718 7.2875,-5.67011 4.5035,-8.38369 9.024,-11.62801 16.9008,-12.12956 3.5001,-0.22287 7.9537,0.11947 9.8968,0.76075 4.2628,1.40685 10.1105,7.62832 12.2901,13.07568 1.5175,3.79262 1.7974,3.97874 5.9834,3.97874 H 1902 v 6.93664 6.93664 l -3.25,0.31336 c -3.0487,0.29395 -3.2333,0.53016 -2.981,3.81336 0.1479,1.925 2.9604,36.21986 6.25,76.21079 3.2895,39.99093 5.981,73.17843 5.981,73.75 0,0.59298 2.3617,1.03921 5.5,1.03921 h 5.5 v 12 12 h -3.941 c -2.1675,0 -4.1672,0.36603 -4.4437,0.81341 -0.2765,0.44738 1.4945,30.93488 3.9355,67.75 2.441,36.81512 4.4406,68.62409 4.4437,70.68659 L 1919,491 h 4.5 4.5 v 14 14 h -3.5751 -3.575 l 0.5817,8.75 c 0.32,4.8125 1.7153,42.05 3.1006,82.75 1.3854,40.7 2.7682,76.8125 3.0729,80.25 l 0.5541,6.25 h 3.9204 3.9204 v 15.5 15.5 h -4 -4 v 130 130 h -63.9387 -63.9388 l -0.6567,-4.75 c -1.988,-14.37938 -8.8811,-30.80927 -18.0204,-42.95193 -29.5003,-39.19473 -86.5708,-65.70231 -161.4454,-74.98667 -22.4631,-2.78539 -73.643,-2.51553 -96,0.5062 -39.8443,5.38528 -69.079,13.74504 -98.5,28.16638 -29.8311,14.62236 -52.2828,33.66605 -65.4169,55.48707 -4.7276,7.8545 -9.8734,22.00943 -11.2723,31.00743 l -1.1716,7.53609 -64.0655,-0.25728 -64.0654,-0.25729 -0.7228,-5.78692 c -2.4254,-19.41869 -13.2653,-39.13623 -30.9518,-56.30078 -33.017,-32.0425 -86.1836,-53.18293 -152.3337,-60.5719 -15.9797,-1.78493 -68.02028,-1.78493 -84,0 -63.65708,7.11049 -118.08248,28.34434 -150.21857,58.60715 C 789.66172,934.38992 783.25954,942.82392 776.95062,955.5 772.14978,965.14604 768,978.38404 768,984.05297 c 0,1.5697 -0.67331,2.99142 -1.58179,3.34004 -0.86998,0.33385 -29.89498,0.60699 -64.5,0.60699 H 639 l -0.007,-2.75 c -0.0147,-5.7604 -4.23687,-20.11097 -8.5058,-28.90983 C 618.4058,931.4387 596.41214,911.44172 562.5,894.52514 518.03031,872.34207 465.29594,861.95366 404,863.30143 c -28.05897,0.61695 -44.39729,2.34091 -68.5,7.22785 -68.31842,13.85189 -119.17627,44.93436 -139.03101,84.97072 -4.08225,8.2317 -7.50065,19.17575 -8.98014,28.75 L 186.90937,988 H 122.83915 58.768925 Z M 207.94431,837.01056 c 10.06705,-1.90918 13.92856,-7.44357 8.62383,-12.35983 -2.12956,-1.97361 -2.40926,-3.03791 -2.25,-8.56156 0.17957,-6.22836 0.12932,-6.35447 -3.99036,-10.01532 -2.84312,-2.52647 -3.91097,-4.13023 -3.35213,-5.03445 0.45104,-0.72981 0.37551,-2.60222 -0.16786,-4.16092 -0.80926,-2.32145 -0.60992,-3.31457 1.10214,-5.4911 2.73902,-3.48211 2.63918,-5.92918 -0.36448,-8.93283 -6.81333,-6.81334 -18.27302,2.06333 -12.20043,9.45044 0.63524,0.77275 1.15498,3.75189 1.15498,6.62031 0,4.17248 -0.38423,5.39121 -1.92156,6.09501 -3.99885,1.83068 -6.02116,6.06353 -5.76956,12.07612 0.20581,4.91828 -0.10532,6.00355 -2.41103,8.41019 -4.73247,4.93964 -1.53,9.48248 8.31965,11.8018 5.21596,1.22822 7.20792,1.2436 13.22681,0.10214 z m 39.03566,-0.0997 C 252.17857,835.79598 258,831.87468 258,829.48783 c 0,-0.73391 -1.23437,-2.80135 -2.74305,-4.59431 -2.39841,-2.85034 -2.70266,-3.96131 -2.42151,-8.84208 0.34899,-6.0586 -1.80624,-10.27262 -5.92197,-11.5789 -1.66078,-0.52712 -1.9152,-1.1882 -1.38546,-3.60007 0.38469,-1.75148 0.16629,-3.53589 -0.5364,-4.38258 -0.93771,-1.12988 -0.74731,-1.98501 0.91155,-4.0939 6.25335,-7.94985 -4.28725,-17.10281 -11.44861,-9.94144 -3.02093,3.02092 -3.13047,6.19707 -0.31701,9.19185 1.90742,2.03036 2.00197,2.60257 0.8783,5.31536 -0.97709,2.3589 -0.99205,3.36198 -0.0668,4.47687 0.97163,1.17075 0.62693,1.72927 -1.86138,3.01602 -4.47095,2.31202 -6.44758,6.77474 -5.65316,12.76337 0.60465,4.55805 0.43747,5.09913 -2.39222,7.74246 -1.67327,1.56307 -3.04231,3.3113 -3.04231,3.88497 0,2.51227 4.86336,6.4333 9.53422,7.68686 6.24112,1.67498 9.07673,1.74448 15.44575,0.37856 z M 291.5,834.66561 c 5.05458,-2.76938 5.85519,-6.50516 2.13334,-9.95446 -2.20088,-2.0397 -2.4755,-3.05793 -2.3152,-8.58446 0.1767,-6.09232 0.0721,-6.37095 -3.68413,-9.81823 -3.31198,-3.03953 -3.89653,-4.21149 -4.07912,-8.17821 -0.14758,-3.20598 0.3495,-5.36383 1.61598,-7.01511 2.47989,-3.23333 2.29916,-5.73602 -0.62542,-8.66059 -4.0438,-4.04381 -10.57072,-3.24015 -13.07905,1.61043 -1.48808,2.87762 -0.79172,6.99789 1.41298,8.36047 0.55151,0.34085 0.84688,2.87378 0.65639,5.62873 -0.27859,4.02889 -0.87777,5.427 -3.06224,7.1453 -3.73668,2.93927 -5.45681,7.50626 -4.76628,12.65455 0.4949,3.68974 0.20687,4.62617 -2.19352,7.13164 -2.11722,2.2099 -2.61377,3.47959 -2.12398,5.43106 1.74002,6.9328 20.40459,9.56657 30.11025,4.24888 z m 32.65419,2.2079 C 329.15591,835.80084 335,831.64111 335,829.15365 c 0,-0.55011 -1.2375,-2.47106 -2.75,-4.26877 -2.38118,-2.83021 -2.70435,-3.97629 -2.40963,-8.54544 0.37435,-5.80367 -2.03731,-10.6324 -5.92679,-11.86687 -1.63591,-0.51922 -1.91272,-1.19998 -1.41303,-3.47505 0.34896,-1.58883 0.0913,-3.67818 -0.58764,-4.76536 -1.01277,-1.62171 -0.86033,-2.28474 0.93902,-4.08409 C 327.3909,787.6091 323.901,780 317.28023,780 313.25798,780 309,783.73642 309,787.26598 c 0,1.2963 0.94319,3.36929 2.09597,4.60666 1.84209,1.97724 1.94847,2.60585 0.87831,5.18946 -0.9436,2.27804 -0.94927,3.26311 -0.0252,4.37653 0.97163,1.17075 0.62693,1.72927 -1.86138,3.01602 -4.40109,2.2759 -6.44572,6.78873 -5.68249,12.54221 0.56412,4.25261 0.34595,4.96691 -2.39223,7.83215 -1.65713,1.73403 -3.01297,3.58179 -3.01297,4.10612 0,2.43072 4.93454,6.36272 9.53422,7.59718 6.27523,1.68413 9.07313,1.74525 15.61997,0.3412 z m 43.89874,-1.90051 c 5.57639,-2.84486 6.50928,-6.6279 2.49513,-10.11816 -2.17822,-1.89394 -2.4294,-2.85003 -2.25,-8.56428 0.19745,-6.28932 0.11598,-6.51124 -3.66405,-9.9812 -3.31182,-3.04016 -3.89653,-4.21257 -4.07912,-8.17911 -0.14758,-3.20598 0.3495,-5.36383 1.61598,-7.01511 2.47989,-3.23333 2.29916,-5.73602 -0.62542,-8.66059 -4.0438,-4.04381 -10.57072,-3.24015 -13.07905,1.61043 -1.48808,2.87762 -0.79172,6.99789 1.41298,8.36047 0.55151,0.34085 0.84688,2.87378 0.65639,5.62873 -0.27859,4.02889 -0.87777,5.427 -3.06224,7.1453 -3.7483,2.94842 -5.45711,7.50403 -4.76113,12.69297 0.50157,3.73945 0.23781,4.59839 -2.06877,6.73718 -5.61785,5.20916 -1.97303,9.92776 9.85637,12.76008 3.69028,0.88357 13.81676,-0.51066 17.55293,-2.41671 z m 33.10126,1.90051 C 406.22954,835.78504 412,831.63207 412,829.06782 c 0,-0.59731 -1.31444,-2.46146 -2.92097,-4.14254 -2.67392,-2.798 -2.87488,-3.50313 -2.376,-8.33683 0.62697,-6.0748 -1.12581,-9.72148 -5.84581,-12.16229 -2.46939,-1.27696 -2.68756,-1.72497 -1.6495,-3.38717 0.93859,-1.50291 0.91364,-2.44371 -0.11578,-4.36721 -1.15911,-2.16581 -1.06608,-2.69764 0.79799,-4.56171 2.98438,-2.98438 2.75032,-7.46129 -0.52479,-10.03749 -7.57759,-5.96053 -18.00034,3.29222 -11.27935,10.01321 1.83032,1.83032 1.93789,2.44283 0.8783,5.0009 -0.93538,2.25822 -0.93877,3.23889 -0.015,4.35194 0.97163,1.17075 0.62693,1.72927 -1.86138,3.01602 -4.37368,2.26172 -6.45229,6.81903 -5.76336,12.63601 0.50405,4.2559 0.26388,5.04361 -2.38188,7.81214 -1.61835,1.69345 -2.94245,3.508 -2.94245,4.03233 0,2.43072 4.93454,6.36272 9.53422,7.59718 6.27523,1.68413 9.07313,1.74525 15.61997,0.3412 z m 43.89874,-1.90051 c 5.68194,-2.89871 6.47646,-6.47393 2.29943,-10.34709 -2.37124,-2.19874 -2.58104,-2.94086 -2.00974,-7.10897 0.73116,-5.33433 -0.7818,-9.14404 -4.92596,-12.40384 -3.51186,-2.76242 -4.17021,-10.17485 -1.25403,-14.1192 C 442.78948,786.08832 439.09978,780 432.5,780 c -6.59978,0 -10.28948,6.08832 -6.66263,10.9939 1.41763,1.91744 1.88159,3.91648 1.67409,7.21306 -0.24143,3.83551 -0.90102,5.12407 -4.14926,8.10587 -3.77571,3.466 -3.85768,3.68943 -3.66026,9.97773 0.18068,5.75484 -0.0628,6.66255 -2.31187,8.61807 -5.07083,4.40904 -1.02314,10.21271 8.51502,12.20903 5.26477,1.10191 14.89927,0.0228 19.14784,-2.14466 z m 33.10126,1.90051 C 483.22954,835.78504 489,831.63207 489,829.06782 c 0,-0.59731 -1.3241,-2.47157 -2.94245,-4.16502 -2.64576,-2.76853 -2.88593,-3.55624 -2.38188,-7.81214 0.68893,-5.81698 -1.38968,-10.37429 -5.76336,-12.63601 -2.48831,-1.28675 -2.83301,-1.84527 -1.86138,-3.01602 0.92375,-1.11305 0.92036,-2.09372 -0.015,-4.35194 -1.05959,-2.55807 -0.95202,-3.17058 0.8783,-5.0009 2.96013,-2.96013 2.71412,-7.44638 -0.54907,-10.01321 -7.5987,-5.97714 -17.99663,3.29593 -11.25507,10.03749 1.86407,1.86407 1.9571,2.3959 0.79799,4.56171 -1.02942,1.9235 -1.05437,2.8643 -0.11578,4.36721 1.04157,1.66783 0.81123,2.11468 -1.78107,3.45521 -4.3012,2.22424 -6.37206,6.8112 -5.68688,12.59646 0.50405,4.2559 0.26388,5.04361 -2.38188,7.81214 -1.61835,1.69345 -2.94245,3.508 -2.94245,4.03233 0,2.43072 4.93454,6.36272 9.53422,7.59718 6.27523,1.68413 9.07313,1.74525 15.61997,0.3412 z m 44.00607,-1.95527 c 5.21549,-2.66074 6.01504,-6.08205 2.32215,-9.9366 -2.47148,-2.57967 -2.69949,-3.38121 -2.13448,-7.50342 0.72546,-5.29281 -0.79859,-9.11435 -4.93127,-12.36512 -3.56378,-2.80327 -4.17013,-10.17496 -1.17063,-14.232 1.81195,-2.4508 1.89865,-3.1176 0.7621,-5.86146 -2.31676,-5.59316 -9.21919,-6.89949 -13.55358,-2.56509 -2.92458,2.92457 -3.10531,5.42726 -0.62542,8.66059 1.26648,1.65128 1.76356,3.80913 1.61598,7.01511 -0.18259,3.96672 -0.76714,5.13868 -4.07912,8.17821 -3.75628,3.44728 -3.86083,3.72591 -3.68413,9.81823 0.1603,5.52653 -0.11432,6.54476 -2.3152,8.58446 -5.00803,4.64129 -1.04414,10.40089 8.53843,12.40651 5.31371,1.11216 14.91328,0.0157 19.25517,-2.19942 z m 32.99393,1.95527 C 560.22954,835.78504 566,831.63207 566,829.06782 c 0,-0.59731 -1.3241,-2.47157 -2.94245,-4.16502 -2.64576,-2.76853 -2.88593,-3.55624 -2.38188,-7.81214 0.68893,-5.81698 -1.38968,-10.37429 -5.76336,-12.63601 -2.48831,-1.28675 -2.83301,-1.84527 -1.86138,-3.01602 0.92375,-1.11305 0.92036,-2.09372 -0.015,-4.35194 -1.05959,-2.55807 -0.95202,-3.17058 0.8783,-5.0009 2.96013,-2.96013 2.71412,-7.44638 -0.54907,-10.01321 -7.63171,-6.00311 -17.99082,3.30174 -11.21707,10.07549 1.79935,1.79935 1.95179,2.46238 0.93902,4.08409 -0.67896,1.08718 -0.9366,3.17653 -0.58764,4.76536 0.49969,2.27507 0.22288,2.95583 -1.41303,3.47505 -3.88948,1.23447 -6.30114,6.0632 -5.92679,11.86687 0.29472,4.56915 -0.0285,5.71523 -2.40963,8.54544 -1.5125,1.79771 -2.75,3.8306 -2.75,4.51753 0,2.27577 4.87272,5.8734 9.72123,7.17738 6.08131,1.63553 8.92403,1.68964 15.43296,0.29372 z m 43.47946,-1.82961 c 5.6808,-2.51289 6.7359,-6.00496 2.99431,-9.91034 -2.27861,-2.37836 -2.58925,-3.472 -2.37474,-8.36068 0.26292,-5.99224 -1.80967,-10.31129 -5.83166,-12.15257 -1.53733,-0.7038 -1.92156,-1.92253 -1.92156,-6.09501 0,-2.86842 0.49264,-5.84756 1.09477,-6.62031 2.10007,-2.69518 2.38086,-5.05143 0.93514,-7.84715 -2.50472,-4.8436 -9.03439,-5.64426 -13.07536,-1.60329 -2.92458,2.92457 -3.10531,5.42726 -0.62542,8.66059 1.26648,1.65128 1.76356,3.80913 1.61598,7.01511 -0.18259,3.96672 -0.76714,5.13868 -4.07912,8.17821 -3.75628,3.44728 -3.86083,3.72591 -3.68413,9.81823 0.15906,5.48409 -0.12304,6.55284 -2.25,8.52404 -9.72324,9.01119 11.7653,17.22147 27.20179,10.39317 z m 37.94268,0.48866 c 6.29892,-2.63186 7.60841,-8.05496 2.71863,-11.25887 -2.21844,-1.45357 -2.37753,-2.03788 -1.76584,-6.4854 0.85514,-6.21766 -0.71576,-10.12249 -5.18297,-12.88337 -2.7361,-1.69101 -3.18739,-2.39129 -2.26065,-3.50794 0.87904,-1.05918 0.86464,-2.10313 -0.0598,-4.33488 -1.07016,-2.58361 -0.96378,-3.21222 0.87831,-5.18946 2.77951,-2.98345 2.64903,-6.41049 -0.35858,-9.41809 -6.9622,-6.96221 -17.81056,2.0567 -11.63998,9.67704 1.41294,1.7449 1.65421,2.82263 0.93343,4.16943 -0.53463,0.99896 -0.69901,3.05942 -0.36529,4.57881 0.49989,2.27598 0.16868,2.96212 -1.88054,3.89581 -4.22605,1.92552 -5.89606,5.55718 -5.38566,11.71185 0.41315,4.98214 0.20367,5.70254 -2.37717,8.17515 -3.47776,3.33191 -3.56281,5.30052 -0.35901,8.31033 5.08417,4.77633 18.71826,6.06383 27.1051,2.55959 z m 148.57786,1.34095 C 790.22954,835.78504 796,831.63207 796,829.06782 c 0,-0.59731 -1.3241,-2.47157 -2.94245,-4.16502 -2.64576,-2.76853 -2.88593,-3.55624 -2.38188,-7.81214 0.68893,-5.81698 -1.38968,-10.37429 -5.76336,-12.63601 -2.48831,-1.28675 -2.83301,-1.84527 -1.86138,-3.01602 0.92375,-1.11305 0.92036,-2.09372 -0.015,-4.35194 -1.05959,-2.55807 -0.95202,-3.17058 0.8783,-5.0009 6.69161,-6.69161 -4.68229,-16.4101 -11.59976,-9.91148 -2.92593,2.74878 -2.9992,7.14094 -0.16638,9.97376 1.79935,1.79935 1.95179,2.46238 0.93902,4.08409 -0.67896,1.08718 -0.9366,3.17653 -0.58764,4.76536 0.49969,2.27507 0.22288,2.95583 -1.41303,3.47505 -3.88948,1.23447 -6.30114,6.0632 -5.92679,11.86687 0.29472,4.56915 -0.0285,5.71523 -2.40963,8.54544 -1.5125,1.79771 -2.75,3.8306 -2.75,4.51753 0,2.27577 4.87272,5.8734 9.72123,7.17738 6.08131,1.63553 8.92403,1.68964 15.43296,0.29372 z m 43.47946,-1.82961 c 5.6808,-2.51289 6.7359,-6.00496 2.99431,-9.91034 -2.27861,-2.37836 -2.58925,-3.472 -2.37474,-8.36068 0.26292,-5.99224 -1.80967,-10.31129 -5.83166,-12.15257 -1.53733,-0.7038 -1.92156,-1.92253 -1.92156,-6.09501 0,-2.86842 0.49264,-5.84756 1.09477,-6.62031 2.10007,-2.69518 2.38086,-5.05143 0.93514,-7.84715 -2.50472,-4.8436 -9.03439,-5.64426 -13.07536,-1.60329 -2.92458,2.92457 -3.10531,5.42726 -0.62542,8.66059 1.26648,1.65128 1.76356,3.80913 1.61598,7.01511 -0.18259,3.96672 -0.76714,5.13868 -4.07912,8.17821 -3.75628,3.44728 -3.86083,3.72591 -3.68413,9.81823 0.15906,5.48409 -0.12304,6.55284 -2.25,8.52404 -9.72324,9.01119 11.7653,17.22147 27.20179,10.39317 z m 37.94268,0.48866 c 6.29892,-2.63186 7.60841,-8.05496 2.71863,-11.25887 -2.21844,-1.45357 -2.37753,-2.03788 -1.76584,-6.4854 0.85514,-6.21766 -0.71576,-10.12249 -5.18297,-12.88337 -2.7361,-1.69101 -3.18739,-2.39129 -2.26065,-3.50794 0.88022,-1.06061 0.85592,-2.12419 -0.10134,-4.43522 -1.12367,-2.71279 -1.02912,-3.285 0.8783,-5.31536 2.81346,-2.99478 2.70392,-6.17093 -0.31701,-9.19185 -6.9622,-6.96221 -17.81056,2.0567 -11.63998,9.67704 1.41294,1.7449 1.65421,2.82263 0.93343,4.16943 -0.53463,0.99896 -0.69901,3.05942 -0.36529,4.57881 0.49989,2.27598 0.16868,2.96212 -1.88054,3.89581 -4.22605,1.92552 -5.89606,5.55718 -5.38566,11.71185 0.41315,4.98214 0.20367,5.70254 -2.37717,8.17515 -3.47776,3.33191 -3.56281,5.30052 -0.35901,8.31033 5.08417,4.77633 18.71826,6.06383 27.1051,2.55959 z m 39.05732,-0.48866 c 5.762,-2.5488 6.74076,-5.99988 2.85262,-10.05823 -2.40039,-2.50547 -2.68842,-3.4419 -2.19352,-7.13164 0.71894,-5.36005 -1.28459,-10.36837 -5.00119,-12.50172 -2.49424,-1.43171 -2.79156,-2.15832 -2.79156,-6.82235 0,-2.87098 0.51974,-5.85222 1.15498,-6.62497 2.32353,-2.82649 2.03321,-7.2168 -0.65498,-9.90499 -2.87419,-2.87419 -8.43568,-2.65523 -11.54545,0.45455 -3.00366,3.00365 -3.1035,5.45072 -0.36448,8.93283 1.71206,2.17653 1.9114,3.16965 1.10214,5.4911 -0.54337,1.5587 -0.6189,3.43111 -0.16786,4.16092 0.55883,0.9042 -0.50907,2.50832 -3.35213,5.03534 -4.15108,3.68964 -4.17119,3.74147 -3.96797,10.23181 0.18704,5.97387 -0.007,6.66209 -2.30877,8.16998 -3.29114,2.15644 -2.98713,7.01465 0.60603,9.68432 5.48376,4.07438 18.44599,4.50418 26.63214,0.88305 z m 33.27655,1.88194 c 2.75476,-0.59079 6.15191,-1.97345 7.54922,-3.07258 3.4581,-2.72014 3.44342,-7.21559 -0.031,-9.49211 -2.36876,-1.55207 -2.51855,-2.07046 -1.89931,-6.57286 0.85514,-6.21766 -0.71576,-10.12249 -5.18297,-12.88337 -2.7361,-1.69101 -3.18739,-2.39129 -2.26065,-3.50794 0.88022,-1.06061 0.85592,-2.12419 -0.10134,-4.43522 -1.12367,-2.71279 -1.02912,-3.285 0.8783,-5.31536 2.81346,-2.99478 2.70392,-6.17093 -0.31701,-9.19185 -6.54592,-6.54593 -16.83235,0.85759 -12.31173,8.86119 0.67855,1.20134 1.27237,4.5422 1.31961,7.42412 0.069,4.20693 -0.26766,5.35209 -1.70763,5.80911 -3.79327,1.20394 -5.8457,5.38611 -5.8457,11.91157 0,5.31059 -0.35546,6.52477 -2.5,8.53946 -1.375,1.29175 -2.5,3.09175 -2.5,4 0,2.64211 4.54845,6.1886 9.72123,7.57979 6.03398,1.6228 8.9282,1.68874 15.18897,0.34605 z m 38.06977,-0.015 C 982.52257,835.7222 988,831.83261 988,829.08542 c 0,-0.95524 -1.12543,-2.79408 -2.50096,-4.08632 -2.15077,-2.02055 -2.48259,-3.16185 -2.3698,-8.15114 0.144,-6.37036 -1.61657,-10.20162 -5.50128,-11.97161 -1.96046,-0.89325 -2.25693,-1.75751 -2.19711,-6.40491 0.038,-2.95478 0.63165,-5.93463 1.31915,-6.62188 0.6875,-0.68726 1.25,-2.71703 1.25,-4.5106 0,-6.83258 -8.5237,-9.90617 -13.54545,-4.88441 -3.01448,3.01447 -3.10301,5.45135 -0.32629,8.98138 1.78716,2.27201 1.9467,3.10414 0.9954,5.19201 -0.77908,1.7099 -0.81797,3.07473 -0.12452,4.37046 0.83047,1.55173 0.50237,2.18299 -1.85986,3.57839 -4.69218,2.77175 -6.38377,6.61823 -5.61532,12.76867 0.61812,4.94727 0.48882,5.41615 -1.93074,7.0015 -3.19119,2.09095 -3.4799,6.54063 -0.59383,9.15249 2.14262,1.93904 9.77813,4.32252 14.20139,4.43306 1.48543,0.0371 4.98606,-0.42262 7.77919,-1.02164 z m 42.86143,-1.04068 c 6.5143,-2.47671 8.365,-8.37841 3.6054,-11.49702 -2.3708,-1.55337 -2.5062,-2.04949 -1.8951,-6.94105 0.7643,-6.11724 -0.989,-10.07778 -5.691,-12.85533 -2.3622,-1.3954 -2.6903,-2.02666 -1.8598,-3.57839 0.6974,-1.30318 0.6477,-2.6756 -0.1613,-4.45114 -1.0052,-2.20615 -0.8653,-2.89103 0.9954,-4.8716 2.8397,-3.02272 2.7402,-6.19138 -0.2895,-9.22111 -5.0218,-5.02176 -13.5455,-1.94817 -13.5455,4.88441 0,1.79357 0.5625,3.82334 1.25,4.5106 0.6875,0.68725 1.2813,3.69769 1.3196,6.68986 0.056,4.39079 -0.2764,5.55013 -1.7239,6.00955 -3.79327,1.20394 -5.8457,5.38611 -5.8457,11.91157 0,5.31059 -0.35546,6.52477 -2.5,8.53946 -3.15168,2.96085 -3.15915,5.03213 -0.0288,7.97297 4.87527,4.58008 18.1174,6.03495 26.3702,2.89722 z m 34.1386,1.04068 c 5.5426,-1.18867 11.02,-5.07826 11.02,-7.82545 0,-0.95524 -1.125,-2.79367 -2.5,-4.08542 -2.1445,-2.01469 -2.5,-3.22887 -2.5,-8.53946 0,-6.52546 -2.0524,-10.70763 -5.8457,-11.91157 -1.4475,-0.45942 -1.7801,-1.61876 -1.7239,-6.00955 0.038,-2.99217 0.6321,-6.00261 1.3196,-6.68986 0.6875,-0.68726 1.25,-2.71703 1.25,-4.5106 0,-6.83258 -8.5237,-9.90617 -13.5455,-4.88441 -3.0297,3.02973 -3.1292,6.19839 -0.2895,9.22111 1.8607,1.98057 2.0006,2.66545 0.9954,4.8716 -0.809,1.77554 -0.8587,3.14796 -0.1613,4.45114 0.8305,1.55173 0.5024,2.18299 -1.8598,3.57839 -4.702,2.77755 -6.4553,6.73809 -5.691,12.85533 0.6142,4.9166 0.4839,5.3823 -1.9538,6.97955 -2.044,1.33923 -2.5449,2.38339 -2.3033,4.80102 0.6606,6.6101 11.9012,10.24761 23.7888,7.69818 z m 42.8614,-1.04068 c 6.5143,-2.47671 8.365,-8.37841 3.6054,-11.49702 -2.3708,-1.55337 -2.5062,-2.04949 -1.8951,-6.94105 0.7643,-6.11724 -0.989,-10.07778 -5.691,-12.85533 -2.3622,-1.3954 -2.6903,-2.02666 -1.8598,-3.57839 0.6934,-1.29573 0.6545,-2.66056 -0.1246,-4.37046 -0.9513,-2.08787 -0.7917,-2.92 0.9954,-5.19201 2.7768,-3.53003 2.6882,-5.96691 -0.3262,-8.98138 -5.0218,-5.02176 -13.5455,-1.94817 -13.5455,4.88441 0,1.79357 0.5625,3.82334 1.25,4.5106 0.6875,0.68725 1.2811,3.6671 1.3192,6.62188 0.06,4.6474 -0.2367,5.51166 -2.1972,6.40491 -3.857,1.7574 -5.6469,5.60942 -5.5032,11.84353 0.112,4.85677 -0.2461,6.06455 -2.4938,8.41056 -4.7023,4.90816 -1.5592,9.36466 8.3425,11.82852 4.2195,1.04995 14.0523,0.45926 18.1239,-1.08877 z m 34.1386,1.04068 c 5.5426,-1.18867 11.02,-5.07826 11.02,-7.82545 0,-0.95524 -1.125,-2.79367 -2.5,-4.08542 -2.1445,-2.01469 -2.5,-3.22887 -2.5,-8.53946 0,-6.52546 -2.0524,-10.70763 -5.8457,-11.91157 -1.44,-0.45702 -1.7766,-1.60218 -1.7076,-5.80911 0.047,-2.88192 0.641,-6.22278 1.3196,-7.42412 4.5335,-8.02639 -5.7472,-15.42576 -12.3118,-8.86119 -3.0297,3.02973 -3.1292,6.19839 -0.2895,9.22111 1.8607,1.98057 2.0006,2.66545 0.9954,4.8716 -0.8028,1.76203 -0.8566,3.15196 -0.1714,4.43226 0.8284,1.54773 0.4236,2.22038 -2.3777,3.9517 -4.426,2.73542 -5.9933,6.65557 -5.1404,12.85707 0.6192,4.5024 0.4694,5.02079 -1.8993,6.57286 -3.1698,2.0769 -3.4489,6.53492 -0.5722,9.1383 2.1426,1.93904 9.7781,4.32252 14.2014,4.43306 1.4854,0.0371 4.986,-0.42262 7.7792,-1.02164 z m 37.9643,0.0997 c 10.0671,-1.90918 13.9286,-7.44357 8.6238,-12.35983 -2.1295,-1.97361 -2.4092,-3.03791 -2.25,-8.56156 0.1796,-6.22836 0.1294,-6.35447 -3.9903,-10.01532 -2.8431,-2.52647 -3.911,-4.13023 -3.3521,-5.03445 0.451,-0.72981 0.3755,-2.60222 -0.1679,-4.16092 -0.8093,-2.32145 -0.6099,-3.31457 1.1021,-5.4911 2.7391,-3.48211 2.6392,-5.92918 -0.3644,-8.93283 -3.1098,-3.10978 -8.6713,-3.32874 -11.5455,-0.45455 -2.6882,2.68819 -2.9785,7.0785 -0.655,9.90499 0.6353,0.77275 1.155,3.75189 1.155,6.62031 0,4.17248 -0.3842,5.39121 -1.9216,6.09501 -4.022,1.84128 -6.0945,6.16033 -5.8316,12.15257 0.2145,4.88868 -0.096,5.98232 -2.3748,8.36068 -4.7056,4.91166 -1.4813,9.46091 8.3455,11.77486 5.216,1.22822 7.2079,1.2436 13.2268,0.10214 z m 39.0357,-0.0997 c 5.1986,-1.11489 11.02,-5.03619 11.02,-7.42304 0,-0.73391 -1.2344,-2.80135 -2.7431,-4.59431 -2.3984,-2.85034 -2.7026,-3.96131 -2.4215,-8.84208 0.349,-6.0586 -1.8062,-10.27262 -5.9219,-11.5789 -1.6411,-0.52085 -1.9132,-1.19759 -1.4074,-3.50046 0.3449,-1.57013 0.1896,-3.6721 -0.345,-4.67106 -0.7208,-1.3468 -0.4795,-2.42453 0.9334,-4.16943 6.1846,-7.63768 -4.6619,-16.65509 -11.64,-9.67704 -3.0076,3.0076 -3.138,6.43464 -0.3585,9.41809 1.8421,1.97724 1.9484,2.60585 0.8783,5.18946 -0.9436,2.27804 -0.9493,3.26311 -0.025,4.37653 0.9716,1.17075 0.6269,1.72927 -1.8614,3.01602 -4.471,2.31202 -6.4476,6.77474 -5.6532,12.76337 0.6047,4.55805 0.4375,5.09913 -2.3922,7.74246 -1.6733,1.56307 -3.0423,3.3113 -3.0423,3.88497 0,2.51227 4.8634,6.4333 9.5342,7.68686 6.2411,1.67498 9.0767,1.74448 15.4458,0.37856 z m 159,0 c 5.5426,-1.18867 11.02,-5.07826 11.02,-7.82545 0,-0.95524 -1.125,-2.79367 -2.5,-4.08542 -2.1445,-2.01469 -2.5,-3.22887 -2.5,-8.53946 0,-6.52546 -2.0524,-10.70763 -5.8457,-11.91157 -1.44,-0.45702 -1.7766,-1.60218 -1.7076,-5.80911 0.047,-2.88192 0.641,-6.22278 1.3196,-7.42412 4.587,-8.12113 -5.6697,-15.50324 -12.3118,-8.86119 -3.0297,3.02973 -3.1292,6.19839 -0.2895,9.22111 1.8607,1.98057 2.0006,2.66545 0.9954,4.8716 -0.809,1.77554 -0.8587,3.14796 -0.1613,4.45114 0.8305,1.55173 0.5024,2.18299 -1.8598,3.57839 -4.702,2.77755 -6.4553,6.73809 -5.691,12.85533 0.6111,4.89156 0.4757,5.38768 -1.8951,6.94105 -3.1516,2.06499 -3.4225,6.53012 -0.5538,9.12628 2.1426,1.93904 9.7781,4.32252 14.2014,4.43306 1.4854,0.0371 4.986,-0.42262 7.7792,-1.02164 z m 42.8614,-1.04068 c 6.5227,-2.47993 8.0065,-7.25312 3.5411,-11.39151 -2.337,-2.16583 -2.5451,-2.90849 -1.9422,-6.92926 0.8358,-5.57321 -1.2011,-10.38619 -5.4602,-12.9021 -2.4703,-1.45927 -2.813,-2.09101 -1.9792,-3.64892 0.6934,-1.29573 0.6545,-2.66056 -0.1246,-4.37046 -0.9513,-2.08787 -0.7917,-2.92 0.9954,-5.19201 2.7768,-3.53003 2.6882,-5.96691 -0.3262,-8.98138 -5.0218,-5.02176 -13.5455,-1.94817 -13.5455,4.88441 0,1.79357 0.5625,3.82334 1.25,4.5106 0.6875,0.68725 1.2811,3.6671 1.3192,6.62188 0.06,4.6474 -0.2367,5.51166 -2.1972,6.40491 -3.857,1.7574 -5.6469,5.60942 -5.5032,11.84353 0.112,4.85677 -0.2461,6.06455 -2.4938,8.41056 -4.7023,4.90816 -1.5592,9.36466 8.3425,11.82852 4.2195,1.04995 14.0523,0.45926 18.1239,-1.08877 z m 34.1386,1.04068 c 5.436,-1.16582 11.02,-5.06499 11.02,-7.69504 0,-0.88352 -1.1992,-2.85811 -2.6649,-4.38798 -2.3338,-2.43597 -2.6388,-3.50606 -2.4546,-8.61206 0.2276,-6.3064 -1.8751,-10.44452 -5.967,-11.74325 -1.6411,-0.52085 -1.9132,-1.19759 -1.4074,-3.50046 0.3449,-1.57013 0.1896,-3.6721 -0.345,-4.67106 -0.7208,-1.3468 -0.4795,-2.42453 0.9334,-4.16943 6.1846,-7.63768 -4.6619,-16.65509 -11.64,-9.67704 -3.0209,3.02092 -3.1304,6.19707 -0.317,9.19185 1.9075,2.03036 2.002,2.60257 0.8783,5.31536 -0.9572,2.31103 -0.9815,3.37461 -0.1013,4.43522 0.9267,1.11665 0.4755,1.81693 -2.2607,3.50794 -4.4672,2.76088 -6.0381,6.66571 -5.1829,12.88337 0.6192,4.5024 0.4694,5.02079 -1.8993,6.57286 -3.1698,2.0769 -3.4489,6.53492 -0.5722,9.1383 2.1426,1.93904 9.7781,4.32252 14.2014,4.43306 1.4854,0.0371 4.986,-0.42262 7.7792,-1.02164 z m 44.4033,-2.17245 c 5.1736,-2.84576 6.0044,-6.54786 2.25,-10.02727 -2.2035,-2.04218 -2.4757,-3.05562 -2.3152,-8.62198 0.1796,-6.22836 0.1294,-6.35447 -3.9903,-10.01532 -2.8431,-2.52647 -3.911,-4.13023 -3.3521,-5.03445 0.451,-0.72981 0.3755,-2.60222 -0.1679,-4.16092 -0.8093,-2.32145 -0.6099,-3.31457 1.1021,-5.4911 2.7391,-3.48211 2.6392,-5.92918 -0.3644,-8.93283 -6.8134,-6.81334 -18.2731,2.06333 -12.2005,9.45044 0.6353,0.77275 1.155,3.75189 1.155,6.62031 0,4.17248 -0.3842,5.39121 -1.9216,6.09501 -4.022,1.84128 -6.0945,6.16033 -5.8316,12.15257 0.2145,4.88868 -0.096,5.98232 -2.3748,8.36068 -1.9883,2.07541 -2.4671,3.35141 -1.9823,5.28317 1.7437,6.94722 20.3471,9.62773 29.9936,4.32169 z m 32.5967,2.17245 c 5.1986,-1.11489 11.02,-5.03619 11.02,-7.42304 0,-0.73391 -1.2344,-2.80135 -2.7431,-4.59431 -2.3984,-2.85034 -2.7026,-3.96131 -2.4215,-8.84208 0.349,-6.0586 -1.8062,-10.27262 -5.9219,-11.5789 -1.6411,-0.52085 -1.9132,-1.19759 -1.4074,-3.50046 0.3449,-1.57013 0.1896,-3.6721 -0.345,-4.67106 -0.7208,-1.3468 -0.4795,-2.42453 0.9334,-4.16943 6.1846,-7.63768 -4.6619,-16.65509 -11.64,-9.67704 -3.0209,3.02092 -3.1304,6.19707 -0.317,9.19185 1.9075,2.03036 2.002,2.60257 0.8783,5.31536 -0.977,2.3589 -0.992,3.36198 -0.067,4.47687 0.9716,1.17075 0.6269,1.72927 -1.8614,3.01602 -4.471,2.31202 -6.4476,6.77474 -5.6532,12.76337 0.6047,4.55805 0.4375,5.09913 -2.3922,7.74246 -1.6733,1.56307 -3.0423,3.3113 -3.0423,3.88497 0,2.51227 4.8634,6.4333 9.5342,7.68686 6.2411,1.67498 9.0767,1.74448 15.4458,0.37856 z m 44.52,-2.24526 c 5.0546,-2.76938 5.8552,-6.50516 2.1333,-9.95446 -2.2008,-2.0397 -2.4755,-3.05793 -2.3152,-8.58446 0.1767,-6.09232 0.072,-6.37095 -3.6841,-9.81823 -3.312,-3.03953 -3.8965,-4.21149 -4.0791,-8.17821 -0.1476,-3.20598 0.3495,-5.36383 1.616,-7.01511 2.4799,-3.23333 2.2991,-5.73602 -0.6254,-8.66059 -4.0439,-4.04381 -10.5708,-3.24015 -13.0791,1.61043 -1.4881,2.87762 -0.7917,6.99789 1.413,8.36047 0.5515,0.34085 0.8469,2.87378 0.6564,5.62873 -0.2786,4.02889 -0.8778,5.427 -3.0623,7.1453 -3.7483,2.94842 -5.4571,7.50403 -4.7611,12.69297 0.5016,3.73945 0.2378,4.59839 -2.0688,6.73718 -5.6178,5.20916 -1.973,9.92776 9.8564,12.76008 4.0051,0.95894 14.0534,-0.56176 18,-2.7241 z m 32.6542,2.2079 c 5.0379,-1.08044 10.8458,-5.23684 10.8458,-7.76179 0,-0.57317 -1.2959,-2.52029 -2.8797,-4.32692 -2.582,-2.94521 -2.8281,-3.81999 -2.3798,-8.46163 0.4067,-4.21165 0.1,-5.73876 -1.6463,-8.19086 -1.1804,-1.65771 -3.0617,-3.3046 -4.1806,-3.65974 -1.6359,-0.51922 -1.9127,-1.19998 -1.4131,-3.47505 0.349,-1.58883 0.091,-3.67818 -0.5876,-4.76536 -1.0128,-1.62171 -0.8603,-2.28474 0.939,-4.08409 3.0224,-3.02237 2.8068,-7.48477 -0.4868,-10.07549 -7.5775,-5.96053 -18.0003,3.29222 -11.2793,10.01321 1.8303,1.83032 1.9379,2.44283 0.8783,5.0009 -0.9354,2.25822 -0.9388,3.23889 -0.015,4.35194 0.9716,1.17075 0.6269,1.72927 -1.8614,3.01602 -4.3737,2.26172 -6.4523,6.81903 -5.7634,12.63601 0.5041,4.2559 0.2639,5.04361 -2.3818,7.81214 -1.6184,1.69345 -2.9425,3.508 -2.9425,4.03233 0,2.43072 4.9345,6.36272 9.5342,7.59718 6.2753,1.68413 9.0731,1.74525 15.62,0.3412 z m 44.3458,-2.2079 c 5.054,-2.76906 5.86,-6.49632 2.1099,-9.75698 -2.249,-1.95552 -2.4925,-2.86323 -2.3118,-8.61807 0.1974,-6.2883 0.1154,-6.51173 -3.6603,-9.97773 -3.2482,-2.9818 -3.9078,-4.27036 -4.1493,-8.10587 -0.2075,-3.29658 0.2565,-5.29562 1.6741,-7.21306 5.1966,-7.02868 -5.2121,-14.82314 -12.2185,-9.14973 -2.7058,2.19107 -3.063,7.25313 -0.6981,9.89292 2.5826,2.88268 1.597,10.81199 -1.6627,13.37601 -4.1441,3.2598 -5.6571,7.06951 -4.9259,12.40384 0.5713,4.16811 0.3615,4.91023 -2.0098,7.10897 -5.3946,5.00219 -1.8644,10.28029 8.3524,12.4879 5.4847,1.18511 15.0636,-0.0175 19.5,-2.4482 z m 32.6542,2.2079 c 5.0753,-1.08847 10.8458,-5.24144 10.8458,-7.80569 0,-0.59731 -1.3241,-2.47157 -2.9425,-4.16502 -2.6457,-2.76853 -2.8859,-3.55624 -2.3818,-7.81214 0.6653,-5.61754 -1.4551,-10.57742 -5.264,-12.31284 -2.0467,-0.93253 -2.3846,-1.62465 -1.8909,-3.87256 0.3306,-1.5054 0.057,-3.60829 -0.6079,-4.6731 -1.0128,-1.62171 -0.8603,-2.28474 0.939,-4.08409 3.0224,-3.02237 2.8068,-7.48477 -0.4868,-10.07549 -7.5987,-5.97714 -17.9966,3.29593 -11.255,10.03749 1.864,1.86407 1.9571,2.3959 0.798,4.56171 -1.0295,1.9235 -1.0544,2.8643 -0.1158,4.36721 1.0416,1.66783 0.8112,2.11468 -1.7811,3.45521 -4.2251,2.18491 -6.3515,6.79472 -5.7197,12.40006 0.4505,3.99607 0.1538,4.97352 -2.3886,7.86909 -1.5966,1.81843 -2.9029,3.71549 -2.9029,4.21568 0,2.39087 4.9702,6.32839 9.5342,7.55328 6.2753,1.68413 9.0731,1.74525 15.62,0.3412 z m 43.8987,-1.90051 c 5.682,-2.89871 6.4765,-6.47393 2.2995,-10.34709 -2.3713,-2.19874 -2.5811,-2.94086 -2.0098,-7.10897 0.7312,-5.33433 -0.7818,-9.14404 -4.9259,-12.40384 -3.5638,-2.80327 -4.1702,-10.17496 -1.1707,-14.232 1.812,-2.4508 1.8987,-3.1176 0.7621,-5.86146 -1.4808,-3.57497 -3.7026,-5.01964 -7.7199,-5.01964 -6.3996,0 -10.0188,6.16802 -6.4508,10.9939 1.4176,1.91744 1.8816,3.91648 1.6741,7.21306 -0.2415,3.83551 -0.9011,5.12407 -4.1493,8.10587 -3.7757,3.466 -3.8577,3.68943 -3.6603,9.97773 0.1807,5.75484 -0.063,6.66255 -2.3118,8.61807 -5.0709,4.40904 -1.0232,10.21271 8.515,12.20903 5.2648,1.10191 14.8993,0.0228 19.1478,-2.14466 z m 37.5234,0.55956 c 2.9201,-1.22008 6.4237,-4.90942 6.4237,-6.76417 0,-0.43263 -1.3241,-2.17214 -2.9425,-3.86559 -2.6457,-2.76853 -2.8859,-3.55624 -2.3818,-7.81214 0.6889,-5.81698 -1.3897,-10.37429 -5.7634,-12.63601 -2.4883,-1.28675 -2.833,-1.84527 -1.8614,-3.01602 0.9238,-1.11305 0.9204,-2.09372 -0.015,-4.35194 -1.0596,-2.55807 -0.952,-3.17058 0.8783,-5.0009 2.9601,-2.96013 2.7141,-7.44638 -0.5491,-10.01321 -7.6317,-6.00311 -17.9908,3.30174 -11.217,10.07549 1.7993,1.79935 1.9518,2.46238 0.939,4.08409 -0.679,1.08718 -0.9366,3.17653 -0.5876,4.76536 0.4996,2.27507 0.2228,2.95583 -1.4131,3.47505 -1.1189,0.35514 -3.0002,2.00203 -4.1806,3.65974 -1.7461,2.4521 -2.053,3.97921 -1.6463,8.19086 0.4483,4.64164 0.2022,5.51642 -2.3798,8.46163 -3.4719,3.96035 -3.504,4.37789 -0.5955,7.75924 4.3856,5.09855 18.5342,6.64783 27.2921,2.98852 z m 39.9237,-0.86695 c 5.054,-2.76906 5.86,-6.49632 2.1099,-9.75698 -2.249,-1.95552 -2.4925,-2.86323 -2.3118,-8.61807 0.1974,-6.2883 0.1154,-6.51173 -3.6603,-9.97773 -3.2482,-2.9818 -3.9078,-4.27036 -4.1493,-8.10587 -0.2075,-3.29658 0.2565,-5.29562 1.6741,-7.21306 5.5043,-7.44498 -6.043,-15.20438 -12.7081,-8.53935 -2.9472,2.94729 -3.1062,5.44723 -0.5527,8.69347 2.8746,3.65444 2.1594,11.22939 -1.3185,13.96508 -4.1742,3.28344 -5.7394,7.22394 -5.025,12.65039 0.5623,4.27086 0.3628,4.96235 -2.0292,7.03369 -5.2159,4.51669 -1.2853,10.2984 8.376,12.32048 5.6166,1.17556 15.1517,-0.0176 19.5949,-2.45205 z M 995.92901,497 c -0.0734,-0.275 -0.64991,-5.45 -1.28121,-11.5 l -1.1478,-11 -11.25,-2.43599 c -6.1875,-1.3398 -11.25,-2.7077 -11.25,-3.03977 0,-0.33208 4.1625,-2.34386 9.25,-4.47062 5.0875,-2.12677 9.71417,-4.21987 10.2815,-4.65134 0.66351,-0.50462 0.77808,-3.57027 0.32114,-8.59338 -0.39069,-4.2949 -0.72278,-9.3839 -0.73799,-11.3089 l -0.0276,-3.5 7.83348,8.4375 7.83357,8.4375 10.3466,-4.63053 c 5.6907,-2.54678 10.5257,-4.45154 10.7444,-4.23278 0.2188,0.21876 -2.1502,4.74987 -5.2645,10.06915 -6.4772,11.06353 -6.9372,8.6122 3.8217,20.36839 3.2462,3.54712 5.4492,6.6003 4.8956,6.78484 -0.5536,0.18453 -5.1173,-0.58014 -10.1416,-1.69928 C 1015.132,478.91566 1010.2204,478 1009.2415,478 c -1.1289,0 -2.9504,2.1029 -4.9808,5.75 -4.2669,7.66445 -8.16703,13.86696 -8.33164,13.25 z"
       id="path1" />
  </g>
</svg>
