<?xml version="1.0" encoding="UTF-8" standalone="no"?>
<!-- Created with Inkscape (http://www.inkscape.org/) -->

<svg
   version="1.1"
   id="svg1"
   width="61.546871"
   height="53.02499"
   viewBox="0 0 61.54687 53.024989"
   xmlns="http://www.w3.org/2000/svg"
   xmlns:svg="http://www.w3.org/2000/svg">
  <defs
     id="defs1">
    <clipPath
       clipPathUnits="userSpaceOnUse"
       id="clipPath3">
      <path
         d="M 0,85.04 H 85.04 V 0 H 0 Z"
         transform="translate(-44.849601,-52.469701)"
         id="path3" />
    </clipPath>
    <clipPath
       clipPathUnits="userSpaceOnUse"
       id="clipPath5">
      <path
         d="M 0,85.04 H 85.04 V 0 H 0 Z"
         transform="translate(-40.774901,-53.043901)"
         id="path5" />
    </clipPath>
    <clipPath
       clipPathUnits="userSpaceOnUse"
       id="clipPath7">
      <path
         d="M 0,85.04 H 85.04 V 0 H 0 Z"
         transform="translate(-34.068401,-34.807601)"
         id="path7" />
    </clipPath>
    <clipPath
       clipPathUnits="userSpaceOnUse"
       id="clipPath9">
      <path
         d="M 0,85.04 H 85.04 V 0 H 0 Z"
         transform="translate(-32.488801,-34.807601)"
         id="path9" />
    </clipPath>
    <clipPath
       clipPathUnits="userSpaceOnUse"
       id="clipPath11">
      <path
         d="M 0,85.04 H 85.04 V 0 H 0 Z"
         transform="translate(-26.1055,-34.807601)"
         id="path11" />
    </clipPath>
    <clipPath
       clipPathUnits="userSpaceOnUse"
       id="clipPath13">
      <path
         d="M 0,85.04 H 85.04 V 0 H 0 Z"
         transform="translate(-51.555701,-34.222701)"
         id="path13" />
    </clipPath>
    <clipPath
       clipPathUnits="userSpaceOnUse"
       id="clipPath15">
      <path
         d="M 0,85.04 H 85.04 V 0 H 0 Z"
         transform="translate(-53.135701,-34.222701)"
         id="path15" />
    </clipPath>
    <clipPath
       clipPathUnits="userSpaceOnUse"
       id="clipPath17">
      <path
         d="M 0,85.04 H 85.04 V 0 H 0 Z"
         transform="translate(-59.518601,-34.222701)"
         id="path17" />
    </clipPath>
    <clipPath
       clipPathUnits="userSpaceOnUse"
       id="clipPath20">
      <path
         d="M 0,85.04 H 85.04 V 0 H 0 Z"
         transform="translate(-47.880901,-37.569301)"
         id="path20" />
    </clipPath>
    <clipPath
       clipPathUnits="userSpaceOnUse"
       id="clipPath22">
      <path
         d="M 0,85.04 H 85.04 V 0 H 0 Z"
         transform="translate(-53.200201,-36.000001)"
         id="path22" />
    </clipPath>
    <clipPath
       clipPathUnits="userSpaceOnUse"
       id="clipPath24">
      <path
         d="M 0,85.04 H 85.04 V 0 H 0 Z"
         transform="translate(-63.956102,-36.000001)"
         id="path24" />
    </clipPath>
    <clipPath
       clipPathUnits="userSpaceOnUse"
       id="clipPath26">
      <path
         d="M 0,85.04 H 85.04 V 0 H 0 Z"
         transform="translate(-45.322301,-44.296901)"
         id="path26" />
    </clipPath>
    <clipPath
       clipPathUnits="userSpaceOnUse"
       id="clipPath28">
      <path
         d="M 0,85.04 H 85.04 V 0 H 0 Z"
         transform="translate(-48.051801,-41.943401)"
         id="path28" />
    </clipPath>
    <clipPath
       clipPathUnits="userSpaceOnUse"
       id="clipPath30">
      <path
         d="M 0,85.04 H 85.04 V 0 H 0 Z"
         transform="translate(-55.370101,-44.296901)"
         id="path30" />
    </clipPath>
    <clipPath
       clipPathUnits="userSpaceOnUse"
       id="clipPath32">
      <path
         d="M 0,85.04 H 85.04 V 0 H 0 Z"
         transform="translate(-38.468801,-37.569301)"
         id="path32" />
    </clipPath>
    <clipPath
       clipPathUnits="userSpaceOnUse"
       id="clipPath34">
      <path
         d="M 0,85.04 H 85.04 V 0 H 0 Z"
         transform="translate(-31.838401,-37.569301)"
         id="path34" />
    </clipPath>
    <clipPath
       clipPathUnits="userSpaceOnUse"
       id="clipPath36">
      <path
         d="M 0,85.04 H 85.04 V 0 H 0 Z"
         transform="translate(-21.081501,-37.569301)"
         id="path36" />
    </clipPath>
    <clipPath
       clipPathUnits="userSpaceOnUse"
       id="clipPath38">
      <path
         d="M 0,85.04 H 85.04 V 0 H 0 Z"
         transform="translate(-39.716301,-45.866201)"
         id="path38" />
    </clipPath>
    <clipPath
       clipPathUnits="userSpaceOnUse"
       id="clipPath40">
      <path
         d="M 0,85.04 H 85.04 V 0 H 0 Z"
         transform="translate(-36.986801,-63.155302)"
         id="path40" />
    </clipPath>
    <clipPath
       clipPathUnits="userSpaceOnUse"
       id="clipPath42">
      <path
         d="M 0,85.04 H 85.04 V 0 H 0 Z"
         transform="translate(-31.441901,-44.898401)"
         id="path42" />
    </clipPath>
    <clipPath
       clipPathUnits="userSpaceOnUse"
       id="clipPath44">
      <path
         d="M 0,85.04 H 85.04 V 0 H 0 Z"
         transform="translate(-43.274901,-40.695301)"
         id="path44" />
    </clipPath>
  </defs>
  <g
     id="layer-MC0"
     transform="translate(-25.503907,-29.178132)">
    <path
       id="path1"
       d="M 0,0 0.646,-1.987 H 2.735 L 1.044,-3.215 1.69,-5.202 0,-3.974 l -1.691,-1.228 0.646,1.987 -1.69,1.228 h 2.089 z"
       style="fill:#000000;fill-opacity:1;fill-rule:nonzero;stroke:none"
       transform="matrix(1.3333333,0,0,-1.3333333,56.7396,55.348933)" />
    <path
       id="path2"
       d="m 0,0 c 0,-0.392 -0.195,-0.586 -0.586,-0.586 -0.384,0 -0.575,0.194 -0.575,0.586 0,0.383 0.191,0.574 0.575,0.574 C -0.195,0.574 0,0.383 0,0"
       style="fill:#000000;fill-opacity:1;fill-rule:nonzero;stroke:none"
       transform="matrix(1.3333333,0,0,-1.3333333,59.799467,43.427067)"
       clip-path="url(#clipPath3)" />
    <path
       id="path4"
       d="M 0,0 C 0.383,0 0.575,-0.191 0.575,-0.575 0.575,-0.966 0.383,-1.16 0,-1.16 c -0.391,0 -0.586,0.194 -0.586,0.585 C -0.586,-0.191 -0.391,0 0,0"
       style="fill:#000000;fill-opacity:1;fill-rule:nonzero;stroke:none"
       transform="matrix(1.3333333,0,0,-1.3333333,54.366533,42.661467)"
       clip-path="url(#clipPath5)" />
    <path
       id="path6"
       d="m 0,0 c 0.383,0 0.575,-0.194 0.575,-0.585 0,-0.384 -0.192,-0.576 -0.575,-0.576 -0.391,0 -0.586,0.192 -0.586,0.576 C -0.586,-0.194 -0.391,0 0,0"
       style="fill:#000000;fill-opacity:1;fill-rule:nonzero;stroke:none"
       transform="matrix(1.3333333,0,0,-1.3333333,45.424533,66.976533)"
       clip-path="url(#clipPath7)" />
    <path
       id="path8"
       d="m 0,0 c 0.383,0 0.575,-0.194 0.575,-0.585 0,-0.384 -0.192,-0.576 -0.575,-0.576 -0.391,0 -0.586,0.192 -0.586,0.576 C -0.586,-0.194 -0.391,0 0,0"
       style="fill:#000000;fill-opacity:1;fill-rule:nonzero;stroke:none"
       transform="matrix(1.3333333,0,0,-1.3333333,43.3184,66.976533)"
       clip-path="url(#clipPath9)" />
    <path
       id="path10"
       d="m 0,0 c 0.383,0 0.575,-0.194 0.575,-0.585 0,-0.384 -0.192,-0.576 -0.575,-0.576 -0.391,0 -0.586,0.192 -0.586,0.576 C -0.586,-0.194 -0.391,0 0,0"
       style="fill:#000000;fill-opacity:1;fill-rule:nonzero;stroke:none"
       transform="matrix(1.3333333,0,0,-1.3333333,34.807333,66.976533)"
       clip-path="url(#clipPath11)" />
    <path
       id="path12"
       d="m 0,0 c 0,-0.384 -0.195,-0.576 -0.586,-0.576 -0.383,0 -0.574,0.192 -0.574,0.576 0,0.391 0.191,0.585 0.574,0.585 C -0.195,0.585 0,0.391 0,0"
       style="fill:#000000;fill-opacity:1;fill-rule:nonzero;stroke:none"
       transform="matrix(1.3333333,0,0,-1.3333333,68.740933,67.7564)"
       clip-path="url(#clipPath13)" />
    <path
       id="path14"
       d="m 0,0 c 0,-0.384 -0.195,-0.576 -0.586,-0.576 -0.384,0 -0.575,0.192 -0.575,0.576 0,0.391 0.191,0.585 0.575,0.585 C -0.195,0.585 0,0.391 0,0"
       style="fill:#000000;fill-opacity:1;fill-rule:nonzero;stroke:none"
       transform="matrix(1.3333333,0,0,-1.3333333,70.8476,67.7564)"
       clip-path="url(#clipPath15)" />
    <path
       id="path16"
       d="m 0,0 c 0,-0.384 -0.195,-0.576 -0.586,-0.576 -0.383,0 -0.574,0.192 -0.574,0.576 0,0.391 0.191,0.585 0.574,0.585 C -0.195,0.585 0,0.391 0,0"
       style="fill:#000000;fill-opacity:1;fill-rule:nonzero;stroke:none"
       transform="matrix(1.3333333,0,0,-1.3333333,79.358133,67.7564)"
       clip-path="url(#clipPath17)" />
    <path
       id="path18"
       d="M 6.4101297,0.0010625 H 4.7929422 L 4.3593484,-1.0653438 H 2.0859109 L 1.6523172,0.0010625 H 0.03512969 L 2.3554422,-5.2372188 h 1.7460937 z m -2.4140625,-1.96875 -0.7617188,-1.9101563 -0.7734375,1.9101563 z m 8.7890628,1.96875 H 11.37888 L 8.6601297,-2.9169063 V 0.0010625 H 7.1015359 v -5.2382813 h 1.40625 l 2.7070311,2.90625 v -2.90625 h 1.570313 z m 6.999023,0 h -1.40625 l -2.71875,-2.9179688 v 2.9179688 h -1.558594 v -5.2382813 h 1.40625 l 2.707032,2.90625 v -2.90625 h 1.570312 z m 6.767578,-2.34375 c 0,0.4453125 -0.08203,0.8291016 -0.246094,1.1484375 -0.164062,0.31347656 -0.386718,0.5625 -0.667968,0.75 -0.275391,0.18164062 -0.571289,0.31347656 -0.890625,0.3984375 -0.322266,0.07617187 -0.638672,0.1171875 -0.949219,0.1171875 -0.445313,0 -0.878906,-0.07324219 -1.300781,-0.22265625 -0.416016,-0.15527344 -0.761719,-0.41308594 -1.042969,-0.7734375 C 21.172825,-1.2909297 21.0322,-1.7626094 21.0322,-2.3426875 v -2.8945313 h 1.570312 v 2.484375 c 0,0.3457032 0.04687,0.6298829 0.140625,0.8554688 0.09961,0.2285156 0.240235,0.3955078 0.421875,0.5039062 0.178711,0.1025391 0.389649,0.1523438 0.632813,0.1523438 0.225586,0 0.427734,-0.049805 0.609375,-0.1523438 0.178711,-0.1083984 0.319336,-0.2724609 0.421875,-0.4921875 0.09961,-0.2255859 0.152344,-0.5097656 0.152344,-0.8554687 v -2.4960938 h 1.570312 z m 2.988281,1.69921875 c 0,0.46289062 -0.04102,0.84960937 -0.117187,1.171875 -0.07031,0.328125 -0.240234,0.60058595 -0.503906,0.82031245 -0.257813,0.2167969 -0.644532,0.328125 -1.160157,0.328125 -0.1875,0 -0.375,-0.017578 -0.5625,-0.046875 L 26.961887,0.36434375 c 0.19336,-0.008789 0.354493,-0.0205078 0.480469,-0.0351563 0.131836,-0.0175781 0.237305,-0.0556641 0.316406,-0.1171875 0.07617,-0.0644531 0.131836,-0.15820313 0.164063,-0.28125 0.02344,-0.09960938 0.03516,-0.38964844 0.03516,-0.8671875 V -5.2372188 h 1.582031 z M 36.50388,0.0010625 H 34.886692 L 34.453098,-1.0653438 H 32.179661 L 31.746067,0.0010625 H 30.12888 l 2.320312,-5.2382813 h 1.746094 z m -2.414063,-1.96875 -0.761719,-1.9101563 -0.773437,1.9101563 z m 4.684571,1.96875 h -1.570313 v -5.2382813 h 1.570313 z m 7.420898,0 h -1.582031 v -3.0351563 l -1.429688,1.7578125 H 43.06638 l -1.429688,-1.7578125 v 3.0351563 h -1.535156 v -5.2382813 h 1.429687 l 1.605469,1.96875 1.617188,-1.96875 h 1.441406 z m 0,0"
       style="fill:#000000;fill-opacity:1;fill-rule:nonzero;stroke:none"
       aria-label="ANNUJAIM"
       transform="matrix(1.3333333,0,0,1.3333333,25.457067,79.967333)" />
    <path
       id="path19"
       d="M 0,0 V 1.183 C -0.875,1.183 -1.312,0.788 -1.312,0 Z m 1.944,-1.569 h -3.147 c 0,-0.668 -0.229,-1.238 -0.684,-1.705 -0.455,-0.469 -1.015,-0.702 -1.681,-0.702 -0.645,0 -1.193,0.231 -1.643,0.69 -0.453,0.462 -0.678,1.019 -0.678,1.674 0,-0.387 0.16,-0.744 0.483,-1.075 0.323,-0.329 0.674,-0.494 1.053,-0.494 1.068,0 1.595,0.77 1.581,2.311 l -0.011,0.687 c -0.008,0.846 0.25,1.527 0.773,2.041 0.488,0.481 1.154,0.778 1.999,0.893 C 0.232,2.779 0.53,2.83 0.881,2.902 1.103,2.994 1.333,3.209 1.569,3.546 V 0 h 0.375 z"
       style="fill:#000000;fill-opacity:1;fill-rule:nonzero;stroke:none"
       transform="matrix(1.3333333,0,0,-1.3333333,63.8412,63.294267)"
       clip-path="url(#clipPath20)" />
    <path
       id="path21"
       d="m 0,0 h -3.826 v 1.569 h 1.967 v 2.365 c 0,0.465 -0.198,0.727 -0.591,0.784 0.662,0.222 1.155,0.507 1.479,0.854 0.325,0.348 0.551,0.847 0.68,1.499 V 1.569 H 0 Z"
       style="fill:#000000;fill-opacity:1;fill-rule:nonzero;stroke:none"
       transform="matrix(1.3333333,0,0,-1.3333333,70.9336,65.386667)"
       clip-path="url(#clipPath22)" />
    <path
       id="path23"
       d="m 0,0 h -11.648 v 1.569 h 6.792 c -1.34,1.197 -2.009,2.925 -2.009,5.183 0,0.99 0.278,2.008 0.837,3.055 0.522,0.845 1.046,1.687 1.569,2.526 0.559,0.954 0.838,1.811 0.838,2.57 0,1.599 -0.557,2.398 -1.67,2.398 -0.848,0 -1.461,-0.186 -1.842,-0.56 -0.338,-0.329 -0.596,-0.92 -0.775,-1.773 -0.022,0.186 -0.033,0.415 -0.033,0.688 0,0.802 0.199,1.462 0.597,1.979 -0.773,0.269 -1.584,0.677 -2.428,1.224 0.694,-0.071 1.317,-0.106 1.87,-0.106 0.314,0 0.789,0.019 1.423,0.059 0.633,0.039 1.106,0.058 1.421,0.058 0.959,0 1.714,-0.365 2.265,-1.096 0.494,-0.659 0.74,-1.476 0.74,-2.45 0,-0.839 -0.279,-1.802 -0.838,-2.89 -0.515,-0.96 -1.035,-1.917 -1.557,-2.871 -0.559,-1.167 -0.838,-2.267 -0.838,-3.298 0,-1.533 0.515,-2.699 1.542,-3.497 1.027,-0.798 2.08,-1.199 3.153,-1.199 H 0 Z"
       style="fill:#000000;fill-opacity:1;fill-rule:nonzero;stroke:none"
       transform="matrix(1.3333333,0,0,-1.3333333,85.2748,65.386667)"
       clip-path="url(#clipPath24)" />
    <path
       id="path25"
       d="m 0,0 h -3.804 v 1.569 h 1.966 v 2.369 c 0,0.465 -0.197,0.728 -0.591,0.785 0.661,0.223 1.154,0.507 1.478,0.856 0.325,0.348 0.553,0.849 0.681,1.502 V 1.569 H 0 Z"
       style="fill:#000000;fill-opacity:1;fill-rule:nonzero;stroke:none"
       transform="matrix(1.3333333,0,0,-1.3333333,60.429733,54.324133)"
       clip-path="url(#clipPath26)" />
    <path
       id="path27"
       d="m 0,0 c -0.513,0.251 -0.884,0.57 -1.114,0.956 -0.174,0.295 -0.326,0.76 -0.455,1.398 h -2.354 v 1.569 h 2.354 v 14.152 c 0,0.523 -0.266,0.784 -0.795,0.784 0.695,0.172 1.21,0.441 1.542,0.806 0.26,0.287 0.533,0.803 0.822,1.548 z"
       style="fill:#000000;fill-opacity:1;fill-rule:nonzero;stroke:none"
       transform="matrix(1.3333333,0,0,-1.3333333,64.069067,57.462133)"
       clip-path="url(#clipPath28)" />
    <path
       id="path29"
       d="M 0,0 H -3.149 C -3.265,-0.638 -3.416,-1.103 -3.604,-1.397 -3.82,-1.741 -4.191,-2.06 -4.719,-2.354 v 21.213 c 0.108,-0.809 0.323,-1.39 0.639,-1.741 0.368,-0.408 0.943,-0.612 1.726,-0.612 -0.531,0 -0.795,-0.262 -0.795,-0.784 V 1.569 c 0.53,0.179 0.795,0.441 0.795,0.785 0,-0.832 0.194,-1.416 0.581,-1.752 C -1.459,0.329 -0.867,0.129 0,0"
       style="fill:#000000;fill-opacity:1;fill-rule:nonzero;stroke:none"
       transform="matrix(1.3333333,0,0,-1.3333333,73.8268,54.324133)"
       clip-path="url(#clipPath30)" />
    <path
       id="path31"
       d="M 0,0 C 0,0.788 -0.437,1.183 -1.312,1.183 V 0 Z M -3.256,0 H -2.88 V 3.546 C -2.644,3.209 -2.414,2.994 -2.192,2.902 -1.841,2.83 -1.544,2.779 -1.3,2.751 -0.455,2.636 0.211,2.339 0.698,1.858 1.221,1.344 1.479,0.663 1.472,-0.183 L 1.461,-0.87 c -0.014,-1.541 0.513,-2.311 1.58,-2.311 0.379,0 0.73,0.165 1.053,0.494 0.323,0.331 0.484,0.688 0.484,1.075 0,-0.655 -0.226,-1.212 -0.677,-1.674 -0.452,-0.459 -1,-0.69 -1.644,-0.69 -0.667,0 -1.228,0.233 -1.682,0.702 -0.455,0.467 -0.683,1.037 -0.683,1.705 h -3.148 z"
       style="fill:#000000;fill-opacity:1;fill-rule:nonzero;stroke:none"
       transform="matrix(1.3333333,0,0,-1.3333333,51.291733,63.294267)"
       clip-path="url(#clipPath32)" />
    <path
       id="path33"
       d="M 0,0 H 0.29 V 5.502 C 0.419,4.85 0.646,4.351 0.971,4.003 1.294,3.655 1.788,3.371 2.45,3.148 2.056,3.092 1.859,2.83 1.859,2.364 V 0 H 3.826 V -1.569 H 0 Z"
       style="fill:#000000;fill-opacity:1;fill-rule:nonzero;stroke:none"
       transform="matrix(1.3333333,0,0,-1.3333333,42.4512,63.294267)"
       clip-path="url(#clipPath34)" />
    <path
       id="path35"
       d="m 0,0 h 0.591 c 1.075,0 2.126,0.4 3.154,1.198 1.028,0.799 1.542,1.965 1.542,3.497 0,1.032 -0.28,2.132 -0.839,3.299 -0.522,0.953 -1.041,1.909 -1.557,2.869 -0.559,1.09 -0.838,2.053 -0.838,2.892 0,0.974 0.247,1.791 0.74,2.45 0.551,0.731 1.306,1.096 2.265,1.096 0.316,0 0.789,-0.02 1.422,-0.059 0.634,-0.039 1.108,-0.058 1.423,-0.058 0.552,0 1.175,0.035 1.87,0.106 -0.845,-0.547 -1.655,-0.955 -2.429,-1.225 0.398,-0.516 0.598,-1.176 0.598,-1.978 0,-0.274 -0.012,-0.502 -0.033,-0.689 -0.18,0.854 -0.438,1.445 -0.776,1.774 -0.38,0.374 -0.994,0.559 -1.842,0.559 -1.113,0 -1.669,-0.798 -1.669,-2.397 0,-0.76 0.279,-1.616 0.838,-2.57 C 4.983,9.925 5.506,9.083 6.029,8.237 6.588,7.19 6.867,6.173 6.867,5.183 6.867,2.925 6.197,1.196 4.857,0 h 6.792 V -1.569 H 0 Z"
       style="fill:#000000;fill-opacity:1;fill-rule:nonzero;stroke:none"
       transform="matrix(1.3333333,0,0,-1.3333333,28.108667,63.294267)"
       clip-path="url(#clipPath36)" />
    <path
       id="path37"
       d="M 0,0 H 0.269 V 5.512 C 0.398,4.858 0.626,4.358 0.951,4.01 1.275,3.661 1.768,3.377 2.429,3.153 2.035,3.097 1.838,2.834 1.838,2.368 V 0 H 3.804 V -1.569 H 0 Z"
       style="fill:#000000;fill-opacity:1;fill-rule:nonzero;stroke:none"
       transform="matrix(1.3333333,0,0,-1.3333333,52.955067,52.231733)"
       clip-path="url(#clipPath38)" />
    <path
       id="path39"
       d="m 0,0 c 0.288,-0.744 0.563,-1.261 0.823,-1.547 0.331,-0.365 0.845,-0.634 1.541,-0.806 -0.53,0 -0.795,-0.261 -0.795,-0.784 v -14.152 h 2.353 v -1.569 H 1.569 C 1.439,-19.496 1.288,-19.961 1.115,-20.255 0.884,-20.643 0.512,-20.961 0,-21.212 Z"
       style="fill:#000000;fill-opacity:1;fill-rule:nonzero;stroke:none"
       transform="matrix(1.3333333,0,0,-1.3333333,49.315733,29.1796)"
       clip-path="url(#clipPath40)" />
    <path
       id="path41"
       d="m 0,0 c 0.387,0.337 0.581,0.921 0.581,1.752 0,-0.344 0.265,-0.606 0.794,-0.784 V 15.12 c 0,0.523 -0.264,0.783 -0.794,0.783 0.782,0 1.357,0.205 1.726,0.614 0.316,0.35 0.529,0.93 0.637,1.74 V -2.955 C 2.418,-2.661 2.047,-2.343 1.83,-1.998 1.643,-1.705 1.491,-1.239 1.375,-0.602 H -1.773 C -0.906,-0.473 -0.315,-0.271 0,0"
       style="fill:#000000;fill-opacity:1;fill-rule:nonzero;stroke:none"
       transform="matrix(1.3333333,0,0,-1.3333333,41.922533,53.522133)"
       clip-path="url(#clipPath42)" />
    <path
       id="path43"
       d="m 0,0 c 0,0.407 -0.331,0.738 -0.739,0.738 -0.409,0 -0.74,-0.331 -0.74,-0.738 0,-0.409 0.331,-0.74 0.74,-0.74 C -0.331,-0.74 0,-0.409 0,0"
       style="fill:#000000;fill-opacity:1;fill-rule:nonzero;stroke:none"
       transform="matrix(1.3333333,0,0,-1.3333333,57.699867,59.126267)"
       clip-path="url(#clipPath44)" />
  </g>
</svg>
