<?xml version="1.0" encoding="UTF-8" standalone="no"?>
<!-- Generator: Adobe Illustrator 26.0.3, SVG Export Plug-In . SVG Version: 6.00 Build 0)  -->

<svg
   version="1.1"
   id="Layer_1"
   x="0px"
   y="0px"
   viewBox="0 0 3341580 1381253.2"
   xml:space="preserve"
   width="3341580"
   height="1381253.2"
   xmlns="http://www.w3.org/2000/svg"
   xmlns:svg="http://www.w3.org/2000/svg"><defs
   id="defs8" />
<style
   type="text/css"
   id="style1">
	.st0{fill:#FFFFFF;}
	.st1{opacity:0.5;fill:url(#SVGID_1_);}
	.st2{opacity:0.2;fill:url(#SVGID_00000098199886539601828230000018369496995193423270_);}
	.st3{opacity:0.3;fill:url(#SVGID_00000179608952084070994760000011323528749883004553_);}
	.st4{opacity:0.5;fill:url(#SVGID_00000020378228752766061470000007760051933918681511_);}
	.st5{opacity:0.2;fill:url(#SVGID_00000041988261987234587810000010794116569912394167_);}
	.st6{opacity:0.3;fill:url(#SVGID_00000107561586056379449200000017340607123569798033_);}
	.st7{opacity:0.2;}
	.st8{opacity:0.5;fill:url(#SVGID_00000175306229368385037980000016075411279361332383_);}
	.st9{opacity:0.2;fill:url(#SVGID_00000053531219793019028380000017495668680808279949_);}
	.st10{opacity:0.3;fill:url(#SVGID_00000044171568205629420120000002534717716649498247_);}
	.st11{fill:url(#SVGID_00000147206891028811260340000003184013994242172606_);}
	.st12{opacity:0.5;fill:url(#SVGID_00000080184515529198788770000017465108734307178420_);}
	.st13{opacity:0.2;fill:url(#SVGID_00000161628863006361900480000014298513970874775717_);}
	.st14{opacity:0.3;fill:url(#SVGID_00000135681771183669112750000011068170745620270211_);}
	.st15{fill:url(#SVGID_00000155828505614013544580000003414688460007990173_);}
	.st16{opacity:0.5;fill:url(#SVGID_00000023282622138365802870000009254881957623652279_);}
	.st17{opacity:0.2;fill:url(#SVGID_00000170269649349721808840000016140233618320521128_);}
	.st18{opacity:0.3;fill:url(#SVGID_00000141444904550853938600000015190850611041440189_);}
	.st19{fill:url(#SVGID_00000147186870146214121790000018045832165332148371_);}
	.st20{opacity:0.5;fill:url(#SVGID_00000060736172477783299520000018110077910220938921_);}
	.st21{opacity:0.2;fill:url(#SVGID_00000155860044517937297360000001596543301429446550_);}
	.st22{opacity:0.3;fill:url(#SVGID_00000121254893694418432360000015314555970779187855_);}
	.st23{fill:url(#SVGID_00000074399710575530605550000012556756917085455018_);}
	.st24{opacity:0.5;fill:url(#SVGID_00000061455771273820620070000016740828413337539725_);}
	.st25{opacity:0.2;fill:url(#SVGID_00000003105414983879720540000012067582847919516303_);}
	.st26{opacity:0.3;fill:url(#SVGID_00000129190891141345431480000010844696741710801314_);}
	.st27{fill:#414042;}
	.st28{fill:url(#SVGID_00000018228582552390271330000016791016907670588081_);}
	.st29{opacity:0.5;fill:url(#SVGID_00000108285355051310399160000017457761910324929462_);}
	.st30{opacity:0.2;fill:url(#SVGID_00000078003991278240369380000013181745826900496562_);}
	.st31{opacity:0.3;fill:url(#SVGID_00000033327898487169157570000013880138624115950236_);}
</style>
<g
   id="g8"
   style="fill:#000000;fill-opacity:1"
   transform="translate(-363760,-434376.83)">
	<g
   id="g2"
   style="fill:#000000;fill-opacity:1">
		<g
   id="g1"
   style="fill:#000000;fill-opacity:1">
			<path
   d="m 810.74,774.82 v 0 c 0,0 120.21,-96.01 227.18,-179.92 -43.01,-18.69 -86.53,-37.88 -126.97,-56.23 -41.97,32.98 -79.07,62.13 -101.36,79.63 l -0.32,0.25 c -46.3,36.35 -123.8,97.2 -218.95,97.2 -107.13,0 -187.91,-75.17 -187.91,-174.86 0,-51.91 23.49,-99.21 66.13,-133.18 40.6,-32.34 96.49,-50.15 157.37,-50.15 51.34,0 138.57,29.51 274.58,92.87 0,0 0,0 0,0 59.29,-46.59 133.23,-104.71 184.01,-144.63 32.93,-25.88 80.6,-20.17 106.48,12.76 v 0 c 0,0 -121.46,95.47 -212.75,167.23 41.71,18.62 85.5,37.73 127.73,55.92 41.22,-32.1 82.88,-64.31 121.45,-93.72 74.46,-56.78 143.53,-87.66 205.28,-91.81 54.46,-3.65 89.05,14.37 103.82,22.07 0.75,0.39 1.45,0.75 2.09,1.08 28.44,14.53 52.08,35.77 68.38,61.4 15.89,24.99 24.57,53.65 25.1,82.88 1.12,61.69 -33.62,118.28 -92.95,151.38 -49.56,27.66 -109.84,38.32 -179.17,31.69 -67.02,-6.41 -125.09,-27.68 -153.74,-39.79 -26.79,-11.33 -57.03,-24.15 -88.97,-37.81 -71.02,55.53 -148.38,116.82 -199.92,157.79 -32.77,26.06 -80.45,20.66 -106.59,-12.05 z M 625.92,433.39 c -85.56,0 -147.67,45.21 -147.67,107.49 0,28.31 10.82,52.8 31.29,70.82 20.65,18.19 49.34,28.2 80.78,28.2 68.94,0 133.53,-50.71 172.12,-81.01 l 0.32,-0.25 c 16.66,-13.08 41.6,-32.68 70.68,-55.52 C 706.26,445.96 650.42,433.39 625.92,433.39 Z m 559.76,142.42 c 17.64,7.5 34.45,14.62 50.09,21.23 24.65,10.42 74.5,28.71 131.43,34.15 53.71,5.13 99.13,-2.41 135,-22.42 34.98,-19.52 54.69,-50.05 54.08,-83.78 -0.59,-32.53 -20.1,-61.74 -52.17,-78.13 -0.81,-0.41 -1.68,-0.87 -2.62,-1.35 -11.41,-5.94 -30.49,-15.89 -63.71,-13.66 -46.65,3.13 -101.95,28.85 -164.37,76.44 -28.06,21.4 -57.75,44.27 -87.73,67.52 z"
   id="path1"
   style="fill:#000000;fill-opacity:1" />
		</g>
	</g>
	<g
   id="g7"
   style="fill:#000000;fill-opacity:1">
		<g
   id="g6"
   style="fill:#000000;fill-opacity:1">
			<path
   d="m 181.88,913.66 h 60.19 v 113.63 H 426.62 V 913.66 H 487 v 296.75 H 426.62 V 1078.74 H 242.07 v 131.67 h -60.19 z"
   id="path2"
   style="fill:#000000;fill-opacity:1" />
			<path
   d="M 571.29,913.66 H 824 v 52.78 H 631.47 v 59.24 h 170.5 v 49.55 h -170.5 v 82.59 h 196.51 v 52.59 H 571.29 Z"
   id="path3"
   style="fill:#000000;fill-opacity:1" />
			<path
   d="M 985.76,1136.94 856.08,913.66 h 68.16 l 91.32,168.79 90.18,-168.79 h 68.16 l -127.97,222.9 v 73.86 h -60.19 v -73.48 z"
   id="path4"
   style="fill:#000000;fill-opacity:1" />
			<path
   d="M 1310.42,1136.94 1180.74,913.66 h 68.16 l 91.32,168.79 90.18,-168.79 h 68.16 l -127.97,222.9 v 73.86 h -60.19 v -73.48 z"
   id="path5"
   style="fill:#000000;fill-opacity:1" />
			<path
   d="m 1645.34,913.66 h 63.79 l 143.54,296.75 h -63.22 l -23.73,-49.93 h -173.34 l -22.97,49.93 H 1506 Z m 96.63,197.27 -64.17,-134.8 -62.46,134.8 z"
   id="path6"
   style="fill:#000000;fill-opacity:1" />
		</g>
	</g>
</g>
</svg>
