<?xml version="1.0" encoding="UTF-8" standalone="no"?>
<!-- Created with Inkscape (http://www.inkscape.org/) -->

<svg
   version="1.1"
   id="svg1"
   width="6961"
   height="3837.2617"
   viewBox="0 0 6961 3837.2617"
   xmlns="http://www.w3.org/2000/svg"
   xmlns:svg="http://www.w3.org/2000/svg">
  <defs
     id="defs1" />
  <path
     style="fill:#000000;fill-opacity:1;stroke:none"
     d="m 3566,1271.7738 -71,56.2107 -141,111 -496,392.9883 -145,115.3767 -93,74.4243 v 1 c 28.1543,29.417 54.9856,57.0464 91,77.1382 94.9092,52.9482 212.2788,54.3281 308,2.5532 31.2678,-16.9126 58.3611,-40.1821 86,-62.2917 37.2234,-29.7769 74.4204,-59.6492 112,-88.9754 157.0039,-122.522 313.4937,-246.0115 469,-370.4243 48.9751,-39.1826 98.9463,-77.1162 148,-116.199 14.2266,-11.3349 28.7734,-22.2673 43,-33.602 5.4824,-4.3679 13.0986,-12.9912 20,-14.6697 7.9507,-1.9336 23.6694,8.4749 31,11.6211 26.9766,11.5784 54.0469,22.9402 81,34.5688 100.5928,43.3995 201.2817,87.1914 303,127.8811 270.123,108.056 569.5352,172.2644 861,152.3103 266.9966,-18.2788 543.3994,-118.0327 716.3887,-330.9106 54.9702,-67.6455 97.6938,-145.6899 123.5859,-229 62.8008,-202.06691 22.4458,-426.80521 -104.4502,-596.00001 -85.9687,-114.625 -206.7388,-198.6147 -338.5244,-252.9893 -42.2671,-17.4394 -86.1909,-31.727 -131,-41.0078 -361.1279,-74.7939 -718.3135,106.4917 -1005,309.4214 -64.3862,45.5757 -126.3022,94.6201 -189,142.46 -95.7432,73.0537 -190.6016,147.2617 -286,220.7671 -26.0962,20.1074 -51.9443,40.53831 -78,60.69821 -7.958,6.1572 -21.0366,21.1467 -31,22.8733 -3.8286,0.6633 -8.5986,-2.4746 -12,-3.9421 l -26,-11.2801 c -34.3887,-14.7358 -68.6792,-29.6882 -103,-44.57641 -130.1904,-56.4761 -258.9922,-116.9512 -390,-171.4243 36.9189,-35.3096 81.71,-64.9854 122,-96.4243 71.8662,-56.0781 143.1343,-112.9219 215,-169 123.6646,-96.4971 246.7578,-193.751 370,-290.7861 59.2026,-46.6133 117.4624,-94.9253 178,-139.7896 -3.1982,-9.4263 -13.0815,-18.0703 -20,-24.999992 -16.4175,-16.4443 -33.605,-31.4595 -53,-44.3325 -90.4946,-60.0645002 -211.8462,-69.9004 -310,-22.4092 -35.5049,17.1787 -65.0923,41.1997 -96,65.3174 -42.1099,32.858892 -83.8901,66.141092 -126,98.999992 -131.6841,102.7549 -262.7654,206.3066 -394,309.6347 -47.9653,37.7657 -96.2937,75.0972 -144,113.189 -14.9106,11.9058 -30.0085,23.5864 -45,35.3902 -6.0999,4.8027 -13.5967,13.205 -21,15.6943 -8.0469,2.706 -26.5867,-10.2041 -34,-13.7031 -31.4861,-14.8619 -63.3416,-28.9761 -95,-43.4722 -121.0054,-55.4067 -243.5693,-109.5493 -368,-156.8843 -185.9976,-70.7558 -378.3184,-147.2842 -578,-167.2554 -61.717,-6.1728 -124.324,-4.3066 -186,1.6612 -148.834,14.4013 -294.907,53.8559 -426,127.0303 -139.9169,78.0996 -259.4139,196.6191 -326.6913,343.1396 C 860.2153,1022.4974 919.1606,1354.1219 1130,1555.7345 c 35.6595,34.0989 74.2888,65.5161 116,91.9861 196.2305,124.5283 433.1924,151.7053 658,106.4529 310.2561,-62.4527 562.8188,-266.9183 805,-457.6104 78.9336,-62.1518 157.7969,-124.4055 237,-186.2136 21.7356,-16.9619 43.2642,-34.1895 65,-51.1514 7.0779,-5.5234 17.7927,-17.9304 26.5757,-19.9568 3.2837,-0.7575 7.5251,2.2798 10.4243,3.5325 9.395,4.0591 18.7576,8.3496 28,12.7446 33.2913,15.8308 67.2832,30.4876 101,45.395 l 262,115.7208 c 41.7603,18.4511 83.7871,40.4294 127,55.1396 m 617,-79 c 7.2886,-8.9534 18.8662,-15.6135 28,-22.6514 l 53,-41 c 56.3359,-43.4074 112.4595,-87.0923 169,-130.23291 157.4414,-120.1279 313.9575,-239.5278 495,-322.4243 87.2012,-39.9282 183.7334,-73.8696 280,-81.606 59.6587,-4.7944 118.3867,-4.2998 177,9.5689 39.8701,9.4336 76.7891,26.397 113,45.0874 43.4614,22.4326 83.5098,48.3477 119,82.2979 55.9092,53.4829 93.7412,126.6845 105.5757,202.9604 4.6904,30.2324 5.647,61.6575 1.706,92.00001 -3.6421,28.0427 -9.7055,55.4792 -19.707,82 -57.0215,151.2041 -207.7808,241.9434 -356.5747,284.709 -113.1948,32.5339 -230.0293,39.4492 -347,34.3303 -216.7886,-9.4871 -429.8096,-71.0315 -629,-154.615 -43.0498,-18.0642 -86.0977,-36.1611 -129,-54.5747 -19.8447,-8.5173 -40.9448,-15.6912 -60,-25.8496 M 2714,889.77379 c -19.8594,22.7236 -50.3303,40.2339 -74,59.0032 -53.7961,42.6587 -108.0579,84.73361 -162,127.20751 -213.1711,167.8496 -443.3418,354.8911 -724,381.6196 -186.2371,17.7364 -400.3018,-59.3979 -482.6913,-238.8303 -14.6324,-31.8672 -25.0735,-65.4126 -30.8735,-100 -6.3956,-38.1387 -7.3967,-77.585 -3.2693,-116 2.7342,-25.44851 8.7436,-50.75241 16.8341,-75.00001 55.5994,-166.6353 220.0708,-263.3911 382,-303.8735 76.1536,-19.0386 159.6387,-29.4034 238,-24.0371 80.3762,5.5044 160.3789,28.0781 237,51.8852 107.3137,33.3433 213.1072,72.1484 317,115.0147 63.21,26.08 126.2659,52.3725 189,79.5864 31.947,13.8584 66.9236,25.8725 97,43.4243 M 0,2600.7738 v 1236 h 251 v -549 h 575 143 36 l 13.3966,1.6035 1.6034,10.3965 v 25 103 409 h 251 v -1236 h -251 v 473 H 251 v -473 H 0 m 1622,0 v 1236 h 1070 v -219 h -819 v -344 h 711 v -152 -39 l -1.0278,-14.3965 -10.9722,-1.6035 h -32 -131 -536 v -246 h 802 v -220 H 1622 m 1187,0 126.5757,218 254.8486,439 110.4253,190 31.3511,54 16.1611,29 0.6382,31 v 64 211 h 251 v -211 -65 l 0.6382,-31 14.9375,-27 31.0029,-54 101,-176 258.272,-450 85.5708,-149 41.5786,-73 h -207 -55 l -21.6104,1.0278 -9.6479,15.9722 -18.166,34 -76.3565,143 -187.5278,351 -54,101 -29.6914,56 -29.3086,-53 -60,-111 -187.3828,-346 -73.5286,-136 -20.5354,-38 -9.8818,-16.9722 -20.3628,-1.0278 h -55 -209 m 1353,0 45.5757,79 86,148 261.8486,451 101,174 30.8565,53 14.02,25 0.6992,30 v 63 213 h 251 v -211 -65 l 0.4985,-31 15.3511,-28 33.3008,-58 107.999,-188 239.2749,-417 136.5757,-238 h -206 -56 l -21.7871,1.0278 -8.6372,13.9722 -20.834,39 -71.0503,133 -179,335 -63,118 -32.6914,62 -27.3086,-49 -59,-109 -194.3828,-359 -72,-133 -19.4473,-36 -9.2402,-14.9722 -21.6211,-1.0278 h -56 -206 m 1355,1236 h 196 50 c 4.8682,0 14.4673,1.8315 18.3623,-1.6035 3.5342,-3.1167 4.9009,-9.2622 6.896,-13.3965 5.4146,-11.2197 10.5322,-22.6216 15.603,-34 16.2847,-36.543 33.9927,-72.457 50.2774,-109 5.5239,-12.396 11.4765,-24.605 17,-37 2.6543,-5.9561 4.3349,-12.6533 11.8623,-12.9805 55.7622,-2.4258 112.1777,-0.02 167.999,-0.02 h 337 147 43 c 5.5244,0 13.7231,-1.5107 18.895,0.6035 5.1294,2.0972 7.4922,10.7285 9.5293,15.3965 5.7549,13.1885 12.8638,25.7896 18.5757,39 15.8809,36.729 33.8926,73.189 51.7529,109 4.7906,9.6055 9.3135,19.3369 13.9888,29 2.0005,4.1348 3.3599,10.2783 6.896,13.3965 3.8945,3.4346 13.4936,1.6035 18.3623,1.6035 h 50 195 l -19.7529,-42 -30.9995,-64 -89.9893,-186 -282,-583 -119.9497,-248 -38.0615,-79 -16.2134,-32.3965 -17.0337,-1.603 h -45 -145 -41 l -17.6094,0.6035 -11.143,20.3965 -28.5562,61 -108.4722,231 -284.5278,606 -101,215 -47.6914,102 m 717,-975 c 19.4395,50.1016 46.3315,98.6162 69.7417,147 41.7876,86.3652 81.729,173.6343 123.5166,260 16.5571,34.2202 33.1885,68.4536 49.0503,103 7.6426,16.6445 18.6147,33.3848 23.6914,51 h -527 l 24.6914,-55 51,-110 115.6172,-250 67.6914,-146 z"
     id="path1" />
</svg>
