<?xml version="1.0" encoding="UTF-8" standalone="no"?>
<!-- Created with Inkscape (http://www.inkscape.org/) -->

<svg
   version="1.1"
   id="svg1"
   width="732.20361"
   height="205.23927"
   viewBox="0 0 732.20361 205.23927"
   xmlns="http://www.w3.org/2000/svg"
   xmlns:svg="http://www.w3.org/2000/svg">
  <defs
     id="defs1" />
  <g
     id="g1"
     transform="translate(-24.09584,-13.450192)">
    <path
       style="fill:#000000"
       d="M 106.11298,217.50427 C 92.513327,214.44971 79.627968,208.86807 67.843754,200.92693 59.702884,195.44096 47.548682,183.28167 42.050229,175.12261 36.154364,166.37383 29.565169,152.10095 26.989728,142.5 24.220976,132.17841 23.214008,111.19283 24.963523,100.27314 31.551704,59.152659 60.700181,27.103574 101.82457,15.763537 c 11.18572,-3.08446 39.16514,-3.08446 50.35086,0 37.43671,10.323159 64.62265,37.501534 75.08193,75.06103 1.82336,6.547717 2.13521,10.320093 2.12251,25.675433 -0.0138,16.62538 -0.22056,18.68731 -2.70795,27 -8.7764,29.33021 -27.5888,51.93361 -54.17192,65.08845 -16.02369,7.92942 -23.46954,9.64668 -43.5,10.03254 -11.72616,0.22588 -18.34792,-0.0972 -22.88702,-1.11672 z m 16.69002,-7.59078 4.197,-3.08651 4.197,3.08651 c 2.30835,1.69758 4.73674,3.08651 5.39641,3.08651 0.65967,0 2.58227,-1.575 4.27245,-3.5 3.58393,-4.08188 3.95409,-4.14266 9.13414,-1.5 2.15618,1.1 4.27652,2 4.71188,2 0.43535,0 1.88643,-2.06387 3.22462,-4.58638 2.10637,-3.97054 2.77752,-4.52027 4.99829,-4.09406 1.41086,0.27077 4.16009,0.80349 6.10938,1.18382 3.53219,0.68916 3.54925,0.67512 5.04567,-4.15594 l 1.50149,-4.84744 6.17613,-0.29699 6.17612,-0.29698 0.66734,-5.03066 C 189.34809,182.31829 191.05583,181 197.51738,181 h 3.38719 l 0.29771,-6.16765 0.29772,-6.16765 5,-1.69289 c 3.84641,-1.30232 4.94411,-2.12883 4.75775,-3.58235 -0.13323,-1.0392 -0.51655,-3.69003 -0.85183,-5.89072 -0.60257,-3.95523 -0.55664,-4.02698 3.99225,-6.237 2.53101,-1.22966 4.59195,-2.80409 4.57987,-3.49874 -0.0121,-0.69465 -0.93549,-3.27692 -2.05202,-5.73838 -1.69798,-3.74331 -1.80445,-4.64299 -0.65091,-5.5 0.75852,-0.56354 2.82176,-2.24555 4.58496,-3.73779 l 3.20584,-2.71317 -3.03296,-4.18687 c -1.66812,-2.30278 -3.01605,-4.68185 -2.9954,-5.28683 0.0206,-0.60498 1.57819,-2.89996 3.46119,-5.09996 l 3.42365,-4 -4.0432,-4.12141 -4.0432,-4.12141 2.55952,-5.050988 2.55953,-5.050986 -4.47573,-2.827603 c -2.46165,-1.555182 -4.47654,-3.318584 -4.47752,-3.918672 -9.9e-4,-0.600088 0.65671,-3.279091 1.46154,-5.953339 0.80483,-2.674248 1.36733,-4.917327 1.25,-4.984621 C 215.596,75.403678 213.25,74.437558 210.5,73.324038 c -3.71572,-1.504556 -4.9526,-2.512538 -4.81545,-3.92431 0.1015,-1.04485 0.3265,-3.667732 0.5,-5.828626 0.34164,-4.255088 0.86334,-3.883397 -8.38484,-5.973875 -2.50169,-0.565487 -2.72234,-1.032801 -3,-6.353803 L 194.5,45.5 188.69888,45.198571 c -3.37611,-0.175424 -5.96812,-0.802462 -6.20063,-1.5 -0.21973,-0.659214 -0.90027,-3.152689 -1.51233,-5.541055 -0.95982,-3.74546 -1.41343,-4.270413 -3.29937,-3.818275 -9.16645,2.197585 -9.08217,2.221209 -11.65244,-3.266417 C 164.72732,28.282771 163.4371,26 163.16695,26 c -0.27014,0 -2.93455,0.770208 -5.9209,1.711574 -5.12886,1.616728 -5.483,1.61641 -6.3908,-0.0057 -0.52858,-0.944521 -2.03383,-2.952229 -3.345,-4.461574 -2.19845,-2.530714 -2.56396,-2.633174 -4.6971,-1.316684 -7.98595,4.928601 -7.40568,4.859692 -11.06403,1.313877 -3.89977,-3.779802 -5.72431,-4.031345 -8.33294,-1.148832 -3.62198,4.002243 -5.08401,4.18635 -10.06478,1.267423 l -4.63617,-2.716974 -3.7611,4.410715 -3.7611,4.410715 -4.846513,-1.737198 c -2.665585,-0.955458 -5.107095,-1.734971 -5.42558,-1.732251 -0.318484,0.0027 -1.648255,2.287717 -2.955046,5.07777 -2.570267,5.487626 -2.48599,5.464002 -11.652444,3.266417 -1.885935,-0.452138 -2.339548,0.07281 -3.299372,3.818275 -0.61205,2.388366 -1.292598,4.881841 -1.512327,5.541055 -0.232504,0.697538 -2.82452,1.324576 -6.200628,1.5 L 59.5,45.5 59.200292,51.243424 c -0.277664,5.321002 -0.49831,5.788316 -3,6.353803 -8.182957,1.849693 -8.698951,2.091519 -8.514162,3.990256 0.96726,9.938774 1.157929,9.410913 -4.217654,11.676445 -2.732662,1.151676 -5.126824,2.209281 -5.32036,2.350232 -0.193536,0.140951 0.431715,2.61547 1.389447,5.498931 1.939599,5.839585 2.34018,5.004024 -4.979647,10.386909 l -2.719667,2 2.710897,4.829667 2.710896,4.829663 -4.14472,4.22317 -4.14472,4.22316 3.514699,4.10613 C 34.418385,117.97017 36,120.24138 36,120.75893 c 0,0.51754 -1.407979,2.88465 -3.128843,5.26024 -2.630274,3.63098 -2.899639,4.49146 -1.690441,5.40003 0.791122,0.59444 2.917491,2.25118 4.725265,3.68164 l 3.286862,2.60083 -2.096421,4.10933 c -2.970683,5.82302 -2.679163,6.93188 2.481559,9.43915 4.530015,2.20085 4.571437,2.2662 3.953445,6.237 -1.244401,7.99569 -1.378965,7.67409 3.968574,9.48466 l 5,1.69289 0.297717,6.16765 L 53.095435,181 h 3.387183 c 5.678218,0 8.515517,1.57155 8.531037,4.72525 0.03185,6.47291 0.702903,7.16091 7.295544,7.47975 l 6.099469,0.295 1.497291,4.83391 c 1.634887,5.27812 0.712422,4.98753 10.094041,3.17981 3.363782,-0.64815 3.596486,-0.49614 5.979114,3.90594 1.363513,2.51919 2.84394,4.58034 3.289838,4.58034 0.445898,0 2.574868,-0.9 4.731048,-2 5.18005,-2.64266 5.55021,-2.58188 9.13414,1.5 1.69018,1.925 3.61278,3.5 4.27245,3.5 0.65967,0 3.08806,-1.38893 5.39641,-3.08651 z M 114,206.5 c -3.93853,-4.06353 -4.73798,-4.18448 -9.98044,-1.50998 l -3.90077,1.99002 -2.866636,-4.24002 c -3.00632,-4.44662 -4.421646,-4.89135 -10.78982,-3.39036 -2.912305,0.68643 -3.126759,0.5051 -5.196493,-4.39382 l -2.158828,-5.1098 -5.28111,0.2803 -5.281111,0.2803 -0.871828,-4.45332 c -1.084937,-5.54189 -2.205427,-6.94962 -5.545409,-6.96697 -1.445155,-0.008 -3.624799,-0.28101 -4.843654,-0.60777 -1.987164,-0.53274 -2.154104,-1.04641 -1.615986,-4.97241 0.73748,-5.38051 -0.282122,-6.75825 -6.234879,-8.42492 -4.393247,-1.23003 -4.507051,-1.36112 -3.797837,-4.37464 1.439191,-6.11526 1.018411,-7.88448 -2.433134,-10.23039 -1.813865,-1.23283 -3.838865,-2.42419 -4.5,-2.64746 -0.879645,-0.29706 -0.732676,-1.39712 0.547935,-4.10128 2.531825,-5.34625 2.199946,-7.11099 -1.98623,-10.56159 -3.4863,-2.8737 -3.641655,-3.22976 -2.322421,-5.3228 4.779778,-7.58339 4.733978,-7.10261 1.112225,-11.67545 l -3.328147,-4.20213 3.886672,-3.98031 3.886673,-3.98031 -2.663159,-4.994335 -2.663158,-4.994332 3.829713,-2.417591 c 2.106342,-1.329676 4.112934,-2.875854 4.459094,-3.435952 0.346159,-0.560098 -0.04719,-3.296626 -0.874113,-6.081173 -1.681749,-5.663064 -2.391096,-4.719527 6.009477,-7.993493 2.439602,-0.950789 2.575664,-1.358019 2.25,-6.734169 L 50.5,61.531662 l 5,-1.066916 5,-1.066916 0.863512,-5.698915 L 62.227025,48 h 4.764043 c 5.341836,0 6.139435,-0.683744 7.873991,-6.75 0.668373,-2.3375 1.53466,-4.239265 1.925083,-4.226143 0.390422,0.01312 2.451959,0.428045 4.581193,0.922054 5.115624,1.186889 6.04376,0.70529 8.199864,-4.254813 1.002004,-2.305104 1.916707,-4.33691 2.032673,-4.515125 0.115966,-0.178214 2.538301,0.496786 5.382967,1.5 L 102.15896,32.5 l 2.36762,-2.744263 c 1.30219,-1.509345 2.7805,-3.482048 3.28514,-4.383785 0.82018,-1.465579 1.45891,-1.335195 6.0204,1.228945 l 5.10288,2.868468 4.0325,-3.93763 4.0325,-3.937631 4.0325,3.937631 4.0325,3.93763 4.84653,-2.724368 4.84653,-2.724369 3.49694,4.235426 3.49693,4.235425 3.87404,-1.387064 c 2.13072,-0.762885 4.40834,-1.585796 5.06139,-1.82869 0.65304,-0.242895 2.176,1.508201 3.38433,3.891324 2.44651,4.825078 3.71622,5.978379 5.92831,5.38478 7.56168,-2.029125 7.81472,-1.955485 9.04118,2.631145 C 180.65594,47.221763 181.57851,48 187.12244,48 H 192 l 0.0703,3.75 c 0.1175,6.269473 1.13711,7.64494 6.52738,8.805549 l 4.90233,1.055549 -0.33813,5.628739 -0.33814,5.628739 5.0119,2.15606 5.0119,2.156061 -1.42377,4.035378 c -2.06586,5.855289 -1.87275,6.508661 2.92273,9.888827 l 4.34648,3.063687 -2.59587,4.868149 -2.59587,4.868152 3.88176,3.97528 3.88176,3.97529 -3.13237,3.80011 c -3.78308,4.58953 -3.84493,5.54367 -0.63238,9.75554 1.375,1.80272 2.5,3.58644 2.5,3.96383 0,0.37739 -1.575,2.06903 -3.5,3.7592 -3.77672,3.31601 -4.29179,5.85679 -2,9.86586 2.15087,3.76255 1.85563,4.53588 -2.47761,6.4899 -5.27184,2.37727 -5.70956,3.99985 -3.40544,12.62342 0.31913,1.19438 -0.73876,1.94085 -4.07394,2.87464 -5.80059,1.62406 -6.82663,2.97811 -6.39254,8.43607 0.38373,4.82474 -0.41436,5.53184 -6.27803,5.56232 -3.33998,0.0174 -4.46047,1.42508 -5.5454,6.96697 l -0.87183,4.45332 -5.05139,-0.26811 c -5.64705,-0.29972 -6.48579,0.32189 -8.38495,6.21418 -1.17805,3.655 -1.40283,3.81515 -4.38032,3.1208 -6.66361,-1.55395 -7.87787,-1.18975 -10.8907,3.26651 l -2.86664,4.24002 -3.90077,-1.99002 c -5.22409,-2.66513 -5.80195,-2.57021 -10.13983,1.66562 l -3.74372,3.65564 -3.48172,-2.65564 c -4.33777,-3.30858 -6.84615,-3.34398 -11.02628,-0.15564 -1.80272,1.375 -3.48442,2.5 -3.73711,2.5 -0.2527,0 -1.986,-1.575 -3.85178,-3.5 z m 36.10846,-23.25 c -1.5149,-2.75606 -4.04164,-5.82999 -4.07666,-4.95951 -0.0331,0.8228 4.08302,6.70951 4.69144,6.70951 0.19092,0 -0.0857,-0.7875 -0.61478,-1.75 z m -39.43312,-8.90799 c -0.36189,-0.3619 -0.14777,-1.27277 0.47584,-2.02417 0.6236,-0.75139 0.90565,-1.59434 0.62678,-1.87321 -0.27887,-0.27888 -1.25337,0.632 -2.16555,2.02416 -1.54893,2.36396 -1.54687,2.53121 0.0312,2.53121 0.92935,0 1.39363,-0.2961 1.03173,-0.65799 z M 114,174.55902 c 0,-0.24254 -0.45,-0.7191 -1,-1.05902 -0.55,-0.33992 -1,-0.14148 -1,0.44098 0,0.58246 0.45,1.05902 1,1.05902 0.55,0 1,-0.19844 1,-0.44098 z M 117,172 c 0,-0.55 -0.19844,-1 -0.44098,-1 -0.24254,0 -0.7191,0.45 -1.05902,1 -0.33992,0.55 -0.14148,1 0.44098,1 0.58246,0 1.05902,-0.45 1.05902,-1 z m 8,-1.55902 c 0,-0.85746 0.429,-1.29388 0.95333,-0.96982 0.52433,0.32405 1.87433,-0.1994 3,-1.16323 C 131.10315,166.4672 131.70259,164 130,164 c -0.55,0 -1.00689,0.7875 -1.01531,1.75 -0.0131,1.49555 -0.15626,1.5319 -0.98469,0.25 -0.80815,-1.25052 -0.99121,-1.16735 -1.10069,0.5 -0.11093,1.68961 -0.20229,1.72841 -0.58864,0.25 -0.55882,-2.1384 -1.02562,-2.17791 -2.95353,-0.25 -0.825,0.825 -1.05998,1.5 -0.52219,1.5 0.5378,0 0.74246,0.9 0.4548,2 -0.29241,1.11819 -0.0307,2 0.59362,2 0.61415,0 1.11663,-0.70156 1.11663,-1.55902 z m -6,-2.44264 c 1.33333,-0.0258 1.33333,-0.13667 0,-0.99834 -1.1915,-0.77001 -0.98583,-0.97906 1,-1.01649 2.42494,-0.0457 2.44117,-0.0916 0.54044,-1.52879 -2.12847,-1.60939 -4.19067,-1.38073 -3.79044,0.42028 0.1375,0.61875 -0.45156,1.125 -1.30902,1.125 -0.85746,0 -1.30465,0.41157 -0.99377,0.91459 0.31089,0.50302 -5e-5,1.18301 -0.69098,1.51109 -0.69093,0.32807 -0.13123,0.37265 1.24377,0.0991 1.375,-0.27359 3.175,-0.51047 4,-0.5264 z m 20,-3.80721 c 0,-0.44488 -0.68231,-1.68238 -1.51625,-2.75 -1.406,-1.79999 -1.43069,-1.74117 -0.33949,0.80887 1.17741,2.75149 1.85574,3.46104 1.85574,1.94113 z m -35.1959,-3.3905 c 0.32559,-2.72504 -1.59896,-4.16348 -3.7729,-2.81991 -1.785635,1.10358 -0.205341,3.29887 1.81995,2.52821 1.32159,-0.50289 1.40075,-0.37749 0.39885,0.63182 -0.6875,0.69259 -1.25,1.65675 -1.25,2.14258 0,2.07134 2.52733,-0.16632 2.8041,-2.4827 z m 4.20259,-0.15296 c 0.82394,-2.04209 0.87075,-2.04935 0.95216,-0.14767 0.0791,1.84792 0.23701,1.8099 2.07654,-0.5 1.64582,-2.06664 1.88782,-2.15331 1.39613,-0.5 -0.58662,1.97254 -0.57308,1.97335 0.98684,0.0589 0.9154,-1.12346 1.58164,-1.40929 1.58164,-0.67857 0,2.03537 2.98807,-1.4282 3.07029,-3.55887 0.064,-1.65954 0.13827,-1.64761 0.83522,0.13422 0.75915,1.94086 0.77351,1.94086 1.8993,0 0.62391,-1.07561 1.14806,-1.54841 1.16478,-1.05066 0.0167,0.49774 0.8816,0.13467 1.92193,-0.80682 1.11602,-1.00998 1.72646,-2.61099 1.48891,-3.90499 -0.22143,-1.20625 -0.13954,-1.64396 0.18198,-0.9727 0.85979,1.79507 4.7077,-2.07946 4.27844,-4.30804 -0.31514,-1.63616 -0.46386,-1.64662 -1.9718,-0.13865 -0.89703,0.89703 -1.89893,1.36299 -2.22646,1.03546 -0.32753,-0.32753 -0.87925,0.1439 -1.22604,1.04762 -0.34679,0.90372 -1.27188,1.64313 -2.05576,1.64313 -0.78388,0 -1.74824,0.7875 -2.14301,1.75 -0.65953,1.60797 -0.89417,1.57067 -2.89121,-0.45969 l -2.17343,-2.20968 2.92343,0.58468 C 119.92189,148.03438 121,147.83512 121,147.125 c 0,-0.61875 0.675,-1.125 1.5,-1.125 0.825,0 1.5,-0.45 1.5,-1 0,-0.55 -1.125,-1 -2.5,-1 -1.375,0 -2.5,-0.47544 -2.5,-1.05654 0,-0.58735 -1.30806,-0.28384 -2.94562,0.68349 -1.62009,0.95701 -2.71853,2.10745 -2.44098,2.55653 C 113.89095,146.63257 113.19148,147 112.05902,147 110.92656,147 110,147.44143 110,147.98095 c 0,1.12206 4.75621,2.57803 7,2.14283 1.2043,-0.23358 1.25358,-0.0379 0.25,0.99265 -0.6875,0.70596 -1.28553,2.20607 -1.32895,3.33357 -0.0434,1.1275 -0.30592,1.4875 -0.58333,0.8 -0.74675,-1.85065 -2.3331,-1.51571 -2.36813,0.5 -0.0282,1.62264 -0.10758,1.6173 -1.09076,-0.0734 -0.81915,-1.40862 -0.67877,-2.10241 0.61711,-3.04998 1.5143,-1.10728 1.41904,-1.34434 -0.9793,-2.43709 -1.74936,-0.79706 -3.23054,-0.88756 -4.3367,-0.26496 -1.47677,0.83119 -1.37759,1.07494 0.82006,2.01541 2.31199,0.98941 2.25558,1.02592 -0.75,0.48548 -3.14719,-0.56589 -4.62939,0.85127 -2,1.91225 0.6875,0.27741 0.2375,0.53991 -1,0.58333 -1.2375,0.0434 -2.25,0.47647 -2.25,0.96232 0,1.66782 4.45534,2.14512 5.61024,0.60102 1.46273,-1.95566 3.49112,-1.9121 2.73484,0.0587 -0.32569,0.84872 -0.83755,1.29774 -1.13747,0.99782 C 108.26373,156.59707 105,160.22183 105,162.214 c 0,2.3391 1.81176,1.39526 3.00669,-1.56633 z M 117,145 c -0.825,-0.53316 -1.05,-0.96937 -0.5,-0.96937 0.55,0 1.675,0.43621 2.5,0.96937 0.825,0.53316 1.05,0.96937 0.5,0.96937 -0.55,0 -1.675,-0.43621 -2.5,-0.96937 z m 7.39497,17.83006 c -0.48618,-0.78665 -0.1779,-0.96074 0.94099,-0.53138 C 126.25118,162.64988 127,162.5495 127,162.0756 127,161.195 124.61599,160 122.8592,160 c -0.53748,0 -0.65615,0.51953 -0.26371,1.15451 0.44208,0.7153 0.27432,0.88306 -0.44098,0.44098 -0.63498,-0.39244 -1.65255,-0.40572 -2.26127,-0.0295 -0.77153,0.47683 -0.69581,0.94441 0.25,1.54371 2.05312,1.30092 5.10454,1.10024 4.25173,-0.27963 z m 8.40136,-0.78458 c -0.67134,-1.07499 -1.36075,-1.8144 -1.53201,-1.64313 -0.59277,0.59277 0.95337,3.59765 1.85114,3.59765 0.49582,0 0.35221,-0.87953 -0.31913,-1.95452 z M 100,162 c 0,-0.55 -0.423442,-1 -0.940983,-1 -0.517541,0 -1.219098,0.45 -1.559017,1 -0.339919,0.55 0.08352,1 0.940983,1 C 99.298442,163 100,162.55 100,162 Z m 46,-16.87888 c 0,-0.56196 -0.78375,-1.46035 -1.74167,-1.99643 -0.95792,-0.53608 -1.37417,-1.34219 -0.925,-1.79136 0.44917,-0.44917 1.1935,-0.14542 1.65407,0.675 2.16191,3.85108 4.6624,5.67678 7.7626,5.66777 1.7875,-0.005 3.25,-0.28431 3.25,-0.62026 C 156,145.59573 152.75926,142 151.4433,142 c -1.65196,0 -1.9321,1.57987 -0.4433,2.5 0.55,0.33992 0.96447,1.15398 0.92105,1.80902 -0.0569,0.85875 -0.21965,0.84229 -0.58333,-0.059 -0.27741,-0.6875 -1.0894,-1.25 -1.80442,-1.25 -2.44932,0 -2.06431,-3.49948 0.70145,-6.3757 2.931,-3.04807 3.92327,-2.56138 1.11176,0.5453 -1.57591,1.74136 -1.49381,1.80215 1.75,1.29554 1.87192,-0.29236 3.92309,-0.59161 4.55815,-0.66501 0.63506,-0.0734 0.92442,-0.73346 0.64301,-1.4668 -0.6796,-1.77101 -1.9462,-1.69163 -2.6593,0.16667 -0.31658,0.825 -1.10947,1.5 -1.76197,1.5 -0.74433,0 -0.56973,-0.68139 0.46861,-1.82874 2.50498,-2.76797 2.10299,-3.05991 -3.59501,-2.6108 -7.37571,0.58135 -7.7291,0.66434 -7.10805,1.66922 0.30468,0.49299 -0.16149,1.68693 -1.03595,2.65319 -1.40185,1.54902 -1.4172,1.98518 -0.12977,3.68699 2.18866,2.89311 1.75679,4.28963 -0.492,1.59097 -1.07207,-1.28654 -2.50682,-2.1533 -3.18832,-1.92613 -0.80316,0.26772 -0.27703,1.37508 1.49549,3.14761 2.42012,2.42012 2.90557,2.56358 4.22159,1.24756 0.81785,-0.81786 1.48701,-1.9468 1.48701,-2.50875 z m 0.56944,-7.19785 c 1.21419,-1.34167 2.02009,-1.65468 2.27687,-0.88434 0.2186,0.65581 -0.21989,1.58344 -0.97443,2.06141 -2.49532,1.58069 -3.21201,0.93298 -1.30244,-1.17707 z m -8.50769,7.64246 c -1.78416,-1.89915 -2.56539,-2.17412 -3.55379,-1.25081 -1.00605,0.93979 -0.72549,1.4243 1.36257,2.35306 4.09879,1.82313 4.66968,1.53595 2.19122,-1.10225 z M 160,146.0567 C 160,144.97953 156.03619,142 154.60318,142 c -0.52349,0 0.10507,1.125 1.39682,2.5 2.42857,2.5851 4,3.19666 4,1.5567 z m -55.43665,-2.10927 c 0.8661,-0.71881 1.3608,-0.67498 1.63405,0.14476 0.27153,0.8146 0.87907,0.68848 1.9782,-0.41064 0.87247,-0.87247 1.90167,-1.27095 2.28711,-0.8855 0.38545,0.38544 1.22652,0.0265 1.86905,-0.79762 0.64253,-0.82414 2.06824,-1.64431 3.16824,-1.8226 1.1,-0.17829 3.125,-1.42968 4.5,-2.78086 2.12224,-2.08547 2.27334,-2.60081 1,-3.41051 -2.18135,-1.3871 -2.38942,-1.2881 -4.38183,2.08477 -0.99717,1.68808 -2.05832,2.82396 -2.3581,2.52417 -0.29979,-0.29979 0.0242,-1.23094 0.71987,-2.06923 1.0101,-1.2171 1.01414,-1.82637 0.0201,-3.02417 -1.42285,-1.71443 -3,-1.97729 -3,-0.5 0,0.55 0.7301,1 1.62244,1 1.32346,0 1.39472,0.27439 0.3867,1.48899 -0.67967,0.81894 -1.65448,1.2302 -2.16625,0.91391 -0.51178,-0.31629 -1.58579,-0.0312 -2.38669,0.63345 -0.80091,0.6647 -1.4562,0.85869 -1.4562,0.43111 0,-0.42759 -0.82402,-0.0317 -1.83115,0.87973 -1.00713,0.91145 -2.13678,1.35154 -2.51033,0.97799 -0.37355,-0.37355 -1.33522,0.18797 -2.13705,1.24782 -1.42708,1.88631 -1.45853,1.88288 -1.48967,-0.16248 -0.0183,-1.20254 -1.028904,-2.5438 -2.380785,-3.15976 -2.021985,-0.92128 -2.85724,-0.6181 -6,2.17788 C 89.642957,141.21512 88,143.06451 88,143.53839 c 0,0.47389 0.54,0.32161 1.2,-0.33839 0.66,-0.66 1.8401,-1.2 2.622445,-1.2 1.151013,0 1.184894,0.28623 0.177555,1.5 -1.021265,1.23055 -0.947655,1.5 0.409779,1.5 2.035971,0 3.737501,-4.03069 2.402134,-5.69033 -0.736074,-0.91481 -0.405297,-0.92961 1.429085,-0.0639 2.305224,1.08789 2.324815,1.18844 0.572922,2.94033 C 95.816264,143.18374 95,144.36823 95,144.81828 c 0,1.12989 8.03413,0.39829 9.56335,-0.87085 z M 117,138.25015 c 0,-0.47734 0.65262,-1.7414 1.45026,-2.80902 1.39917,-1.87274 1.43015,-1.86131 0.8793,0.32445 C 118.76069,138.02282 117,139.90066 117,138.25015 Z m 48.75,5.7635 c 0.6875,-0.008 1.25,-0.68865 1.25,-1.51365 0,-0.94975 -0.95633,-1.5 -2.60699,-1.5 -2.03913,0 -2.4654,0.36897 -1.95696,1.69393 0.56973,1.4847 0.39766,1.46556 -1.39302,-0.15498 -1.64738,-1.49086 -2.04303,-1.5607 -2.04303,-0.3606 0,2.19003 1.1873,3.00782 3.47457,2.39321 1.11399,-0.29934 2.58793,-0.5504 3.27543,-0.55791 z m -38.22619,-1.3946 C 128.88327,141.25958 128.52282,140 126.77432,140 c -0.4908,0 -0.63071,0.42334 -0.31093,0.94077 0.34402,0.55663 -0.95892,0.72848 -3.19098,0.42087 -3.71971,-0.51262 -3.73748,-0.4992 -1.27241,0.96119 3.24384,1.92175 3.86497,1.95506 5.52381,0.29622 z m 9.03004,-1.70618 c 0.36954,-0.59793 0.17109,-1.58793 -0.44098,-2.2 C 135.29571,137.89571 135,138.06741 135,139.35902 c 0,1.07497 -0.44896,1.48154 -1.15451,1.04549 -0.7153,-0.44208 -0.88306,-0.27432 -0.44098,0.44098 0.89748,1.45216 2.27528,1.48163 3.14934,0.0674 z M 140.075,140.725 c -0.12369,-1.1957 -1.49529,-0.96414 -1.925,0.325 -0.22,0.66 0.14,1.02 0.8,0.8 0.66,-0.22 1.16625,-0.72625 1.125,-1.125 z M 170,141.55902 c 0,-0.24254 -0.45,-0.7191 -1,-1.05902 -0.55,-0.33992 -1,-0.14148 -1,0.44098 0,0.58246 0.45,1.05902 1,1.05902 0.55,0 1,-0.19844 1,-0.44098 z M 167,139 c 0,-0.55 -0.675,-1 -1.5,-1 -0.825,0 -1.5,0.45 -1.5,1 0,0.55 0.675,1 1.5,1 0.825,0 1.5,-0.45 1.5,-1 z m -24,-0.44098 c 0,-0.24254 -0.45,-0.7191 -1,-1.05902 -0.55,-0.33992 -1,-0.14148 -1,0.44098 0,0.58246 0.45,1.05902 1,1.05902 0.55,0 1,-0.19844 1,-0.44098 z M 163,138 c 0,-0.55 -0.70156,-1 -1.55902,-1 -0.85746,0 -1.2809,0.45 -0.94098,1 0.33992,0.55 1.04148,1 1.55902,1 0.51754,0 0.94098,-0.45 0.94098,-1 z m -58.25,-0.63029 c 3.00169,-0.80442 2.8375,-2.02172 -0.5,-3.70682 -2.8373,-1.43256 -5.689673,-1.18331 -4.704293,0.41107 0.306993,0.49672 -0.140203,0.63514 -0.993769,0.3076 -2.129721,-0.81725 -1.966253,1.27774 0.198062,2.53834 2.05172,1.19502 2.96406,1.26341 6,0.44981 z m -3.24292,-1.35826 c -0.35034,-0.56686 0.0511,-0.7345 0.94098,-0.39301 1.73242,0.66479 2.04939,1.38156 0.61096,1.38156 -0.51754,0 -1.21592,-0.44485 -1.55194,-0.98855 z M 110,133.36826 c 0,-0.73864 -5.25792,-2.44367 -5.81569,-1.88591 -0.87326,0.87326 3.11375,3.3405 4.5238,2.79942 C 109.41865,134.00911 110,133.59803 110,133.36826 Z M 136.65088,132.5 c 0.68131,-2.15189 -1.33582,-3.61718 -4.04381,-2.93752 -2.60743,0.65443 -2.63951,0.74348 -0.90514,2.51343 1.88019,1.91876 4.40716,2.13531 4.94895,0.42409 z m -2.77844,-1.25 c -1.24387,-1.58606 -1.2085,-1.62143 0.37756,-0.37756 0.9625,0.75485 1.75,1.54235 1.75,1.75 0,0.82304 -0.82119,0.29331 -2.12756,-1.37244 z m -13.27679,-0.86134 c -0.44245,-1.153 -0.18844,-1.44638 0.89301,-1.03139 0.83124,0.31898 1.51134,0.19135 1.51134,-0.28362 0,-1.08746 -6.9699,-1.79433 -10.12823,-1.02718 l -2.37177,0.5761 2.28777,1.24411 c 1.25828,0.68427 3.13291,0.97588 4.16585,0.64804 1.03293,-0.32784 2.16749,-0.12777 2.52124,0.4446 1.00603,1.62779 1.80776,1.21957 1.12079,-0.57066 z m 25.22411,0.12492 c 0.3008,-0.3008 0.0536,-1.0402 -0.54929,-1.64311 -1.30335,-1.30335 -3.5847,-0.18792 -2.66366,1.30235 0.35169,0.56905 -0.5371,0.26373 -1.9751,-0.67848 C 137.80633,127.64308 137.97951,126 141,126 c 1.03508,0 2.16462,-0.45734 2.51008,-1.01631 0.34546,-0.55897 1.12349,-0.71015 1.72896,-0.33596 0.70405,0.43513 0.87511,0.0921 0.47457,-0.95166 -0.34444,-0.89761 -0.12639,-1.94096 0.48457,-2.31855 0.67266,-0.41573 0.82938,-0.23113 0.39731,0.46797 -1.13705,1.83979 1.53283,1.33502 3.14976,-0.59549 0.97392,-1.1628 0.91568,-0.82175 -0.17357,1.01642 -1.58714,2.6784 -1.55404,2.84543 1.04053,5.25 2.6475,2.45361 4.38779,3.15609 4.38779,1.77114 0,-0.39183 -1.11056,-1.62933 -2.46791,-2.75 l -2.46792,-2.03756 1.96792,-2.36078 C 153.11444,120.84078 154,120.23616 154,120.7956 c 0,0.55944 0.9,0.78181 2,0.49415 2.90696,-0.76019 2.44919,-2.13912 -0.75,-2.25921 -9.30816,-0.3494 -10.4084,-0.20002 -11.80713,1.6031 -1.0453,1.34753 -1.29526,1.42392 -0.89914,0.27483 0.50169,-1.45538 0.12333,-1.45538 -4.42266,0 -2.73421,0.87534 -4.56664,1.73765 -4.07207,1.91623 0.49457,0.17859 0.18411,1.41609 -0.6899,2.75 -1.45584,2.2219 -1.45367,2.4253 0.0259,2.4253 0.88826,0 1.61501,-0.62686 1.61501,-1.39301 0,-0.76616 0.73865,-1.67646 1.64144,-2.02289 1.41558,-0.54321 1.45518,-0.40544 0.28775,1.00122 -1.15304,1.38933 -1.09989,1.81669 0.35856,2.88314 0.94174,0.68861 1.71225,1.73215 1.71225,2.31896 0,1.05131 5.72447,0.82144 6.81976,-0.27384 z M 140.5,124 c 0.33992,-0.55 0.81648,-1 1.05902,-1 0.24254,0 0.44098,0.45 0.44098,1 0,0.55 -0.47656,1 -1.05902,1 -0.58246,0 -0.7809,-0.45 -0.44098,-1 z m -30.5,6 c 0,-0.55 -0.42344,-1 -0.94098,-1 -0.51754,0 -1.2191,0.45 -1.55902,1 -0.33992,0.55 0.0835,1 0.94098,1 0.85746,0 1.55902,-0.45 1.55902,-1 z m 39.69424,-1.5316 C 146.77685,125.9018 145,125.32452 145,126.9433 c 0,1.29755 4.10452,4.06374 5.97251,4.0251 1.03966,-0.0215 0.63143,-0.81992 -1.27827,-2.5 z M 126,128.5 c 0,-0.825 -0.43588,-1.5 -0.96862,-1.5 -0.53273,0 -0.70959,0.675 -0.39301,1.5 0.31659,0.825 0.75246,1.5 0.96862,1.5 0.21615,0 0.39301,-0.675 0.39301,-1.5 z m 3,-0.5 c 0,-0.55 0.5625,-0.8875 1.25,-0.75 0.6875,0.1375 1.25,-0.3125 1.25,-1 0,-2.12172 -1.68095,-1.86311 -3.25,0.5 -0.95748,1.44205 -1.09105,2.25 -0.37197,2.25 0.61708,0 1.12197,-0.45 1.12197,-1 z m -20.24704,-2.3317 c 2.26937,-1.74712 2.48757,-1.79013 1.25488,-0.24734 -1.39241,1.74269 -1.32556,1.82026 1,1.16043 3.95069,-1.12092 7.31133,-2.83196 9.74216,-4.96015 2.24505,-1.96553 2.25,-1.96521 2.25,0.14543 0,1.16341 0.46804,2.40456 1.04008,2.7581 0.68602,0.42399 0.79487,-0.32186 0.31974,-2.19098 -0.3962,-1.55859 -1.30527,-5.30879 -2.02017,-8.33379 -1.2009,-5.08141 -1.27003,-5.17282 -0.90833,-1.20108 0.28874,3.17064 0.0867,4.05392 -0.76992,3.36546 -1.44341,-1.16011 -10.94962,-3.20949 -11.648,-2.51112 -0.28161,0.28162 0.91492,1.787 2.65895,3.34529 l 3.17097,2.83327 -2.15443,1.83409 c -1.58521,1.34951 -1.8209,1.40129 -0.89207,0.19598 1.05655,-1.37105 0.84905,-2.1293 -1.27271,-4.65087 -1.9779,-2.3506 -3.30311,-2.99098 -6.02959,-2.9137 -1.92199,0.0545 -3.49452,0.31837 -3.49452,0.58642 0,1.15929 4.47753,5.11626 5.78932,5.11626 1.17717,0 1.119,-0.50303 -0.31802,-2.75 l -1.75872,-2.75 3.06038,3 c 1.6832,1.65 2.90529,3.15508 2.71575,3.34463 C 109.63163,121.70171 104,121.50828 104,120.62176 104,119.12409 99.837359,115 98.325686,115 c -2.138234,0 -1.535883,1.64534 1.554265,4.24553 2.648669,2.22871 2.737749,2.51213 1.109249,3.52914 -1.463135,0.91374 -1.692928,0.80839 -1.32292,-0.60652 0.50334,-1.92479 -4.221328,-6.94744 -5.412337,-5.75369 -0.414669,0.41563 0.451963,1.79364 1.925849,3.06225 l 2.679791,2.30658 -2.561236,2.35835 c -2.543333,2.34187 -2.551631,2.34261 -1.187087,0.1049 1.04638,-1.71594 1.104521,-2.67005 0.243752,-4 -1.411206,-2.18041 -7.274846,-2.07666 -8.908597,0.15763 -0.629293,0.86061 -1.437174,1.27174 -1.795292,0.91362 C 84.293005,120.95967 84,121.16511 84,121.77432 c 0,0.6092 0.45,1.38576 1,1.72568 0.55,0.33992 1,0.14148 1,-0.44098 C 86,122.47656 86.498145,122 87.106989,122 c 0.608844,0 0.853497,0.66059 0.543674,1.46797 -0.938152,2.44479 1.106161,2.7173 2.752438,0.36691 1.221348,-1.74372 1.290791,-2.52301 0.335655,-3.76673 -0.697185,-0.90783 -0.263886,-0.76579 1.029014,0.33732 2.218547,1.89289 2.220085,1.91474 0.232767,3.30671 -4.090161,2.86486 -2.281269,3.73087 8.252423,3.95085 4.44977,0.0929 6.37525,-0.35893 8.5,-1.99473 z M 101,125.62244 c 0,-0.20765 0.7875,-0.99515 1.75,-1.75 1.58606,-1.24387 1.62143,-1.2085 0.37756,0.37756 C 101.82119,125.91575 101,126.44548 101,125.62244 Z m 4,0 c 0,-0.20765 0.7875,-0.99515 1.75,-1.75 1.58606,-1.24387 1.62143,-1.2085 0.37756,0.37756 C 105.82119,125.91575 105,126.44548 105,125.62244 Z M 114.5,123 c 0.99549,-1.1 2.03498,-2 2.30998,-2 0.275,0 -0.31449,0.9 -1.30998,2 -0.99549,1.1 -2.03498,2 -2.30998,2 -0.275,0 0.31449,-0.9 1.30998,-2 z m 0.42431,-5.75 -2.42431,-2.75 2.75,2.42431 c 2.57029,2.26589 3.20859,3.07569 2.42431,3.07569 -0.17912,0 -1.41662,-1.2375 -2.75,-2.75 z m 3.96214,0.52801 c -1.14438,-2.14757 -1.10431,-2.19401 0.69983,-0.81098 1.05255,0.80687 2.05616,1.54931 2.23025,1.64987 0.17409,0.10055 -0.14083,0.46549 -0.69983,0.81097 -0.55899,0.34548 -1.56261,-0.39696 -2.23025,-1.64986 z M 158,127.41029 c 0,-0.32434 -1.01118,-1.40851 -2.24706,-2.40926 -1.52575,-1.23548 -2.46563,-1.46591 -2.92795,-0.71786 -0.37449,0.60594 0.0742,1.6758 0.99706,2.37747 1.75097,1.33127 4.17795,1.76675 4.17795,0.74965 z m 4,-2.45826 c 0,-0.4587 -0.47185,-1.12562 -1.04856,-1.48204 -0.7168,-0.44301 -0.67806,-1.09446 0.12245,-2.05902 0.91954,-1.10797 0.84889,-1.41097 -0.329,-1.41097 -0.825,0 -2.0602,0.675 -2.74489,1.5 -0.92769,1.1178 -0.94385,1.5 -0.0634,1.5 0.64981,0 0.90335,0.45 0.56343,1 -0.33992,0.55 -0.35207,1.43035 -0.027,1.95633 0.67002,1.08411 3.52699,0.2706 3.52699,-1.0043 z M 165,123 c 0,-0.55 -0.675,-1 -1.5,-1 -0.825,0 -1.5,0.45 -1.5,1 0,0.55 0.675,1 1.5,1 0.825,0 1.5,-0.45 1.5,-1 z m -37.5,-4 c -0.33992,-0.55 -1.06803,-1 -1.61803,-1 -0.55,0 -0.72189,0.45 -0.38197,1 0.33992,0.55 1.06803,1 1.61803,1 0.55,0 0.72189,-0.45 0.38197,-1 z m 3.5,-0.84341 C 131,117.42973 125.71562,114 124.59571,114 124.26807,114 124,114.70156 124,115.55902 c 0,0.86161 0.48308,1.26045 1.07992,0.89159 0.59395,-0.36709 1.74974,0.28889 2.56842,1.45771 1.34586,1.92149 3.35166,2.07007 3.35166,0.24827 z m 7,1.08704 c 0,-0.85471 -4.53871,-4.17812 -5.75,-4.21036 -1.50265,-0.04 -1.65711,1.59709 -0.23369,2.47681 0.55897,0.34546 0.80377,0.97202 0.54399,1.39235 -0.25978,0.42033 0.85788,0.76424 2.48369,0.76424 1.6258,0 2.95601,-0.19037 2.95601,-0.42304 z m 3,-2.13252 c 0,-0.48889 0.5625,-0.82639 1.25,-0.75 2.57629,0.28626 1.95355,-1.91855 -0.96675,-3.4228 -2.72867,-1.40553 -2.8944,-1.74961 -1.65753,-3.44113 0.84771,-1.15931 1.37428,-1.37613 1.37428,-0.56586 0,1.05423 0.29614,1.06779 1.5,0.0687 0.825,-0.68469 1.5,-0.89504 1.5,-0.46746 0,0.42759 0.85533,0.003 1.90072,-0.9427 1.25568,-1.13637 2.1259,-1.35578 2.56425,-0.64652 0.36529,0.59105 -0.36676,1.45472 -1.62873,1.92155 -2.25239,0.83322 -2.23611,0.87699 0.93576,2.51723 2.95074,1.52588 3.65604,1.40069 3.35842,-0.59611 -0.0585,-0.39271 0.51766,-0.47453 1.28043,-0.18183 2.61216,1.00238 2.65169,-1.50752 0.0452,-2.87317 -2.23885,-1.17305 -2.39544,-1.53644 -1.1187,-2.59604 1.00607,-0.83497 1.69341,-0.89411 2.13259,-0.18351 0.35642,0.57671 0.059,1.05545 -0.66097,1.06387 -0.95119,0.0111 -0.89899,0.2803 0.19098,0.98469 2.26567,1.46419 5,1.19075 5,-0.5 0,-0.825 0.45,-1.5 1,-1.5 0.55,0 1,-0.54 1,-1.2 0,-0.93333 -0.26667,-0.93333 -1.2,0 -0.66,0.66 -1.8401,1.2 -2.62244,1.2 -1.21001,0 -1.21748,-0.24992 -0.05,-1.67341 1.22255,-1.49066 1.12671,-1.6101 -0.87756,-1.09362 -1.2375,0.31888 -2.25,0.15609 -2.25,-0.36177 0,-0.56791 -0.74152,-0.54472 -1.86852,0.0584 -1.02768,0.55 -2.18947,0.67904 -2.58176,0.28676 -0.39228,-0.39229 -1.41199,0.18605 -2.26601,1.28518 -1.25013,1.60892 -1.43522,1.65734 -0.94963,0.24843 0.74905,-2.17332 -0.89261,-2.34283 -1.72336,-0.17795 -0.34495,0.89894 -1.56825,1.47523 -2.85699,1.34591 C 137.79655,104.62121 133,105.97625 133,107.10841 133,107.59878 132.30527,108 131.45616,108 c -0.84911,0 -1.47079,0.5625 -1.38151,1.25 0.35022,2.69705 -0.13847,3.66274 -1.57465,3.11163 -0.825,-0.31659 -1.5,-0.0436 -1.5,0.60675 0,0.69952 1.14872,1.06186 2.81297,0.88729 1.74734,-0.18328 3.88198,0.54582 5.63486,1.92463 2.89274,2.27543 5.55217,2.91287 5.55217,1.33081 z m -3.39732,-2.61088 c -1.04353,-0.78989 -2.31425,-1.17849 -2.82383,-0.86355 -0.50957,0.31493 -0.33226,-0.37892 0.39404,-1.54191 0.85056,-1.36197 1.45711,-1.66613 1.70431,-0.85464 0.21108,0.69293 1.0698,2.04737 1.90828,3.00987 1.83395,2.10522 1.3915,2.19883 -1.1828,0.25023 z M 137,107.55902 C 137,106.70156 137.45,106 138,106 c 0.55,0 1,0.42344 1,0.94098 0,0.51754 -0.45,1.2191 -1,1.55902 -0.55,0.33992 -1,-0.0835 -1,-0.94098 z m 11.47368,6.48357 c 0.73274,-1.1856 -5.15804,-4.3557 -6.52454,-3.51116 -0.5574,0.34449 0.003,1.44328 1.27936,2.5076 2.5213,2.10277 4.34963,2.45258 5.24518,1.00356 z m -42.97555,-4.03957 c -0.89052,1.44089 2.85301,1.22797 4.44857,-0.25302 1.0618,-0.98555 1.19827,-0.98695 0.6451,-0.007 -0.97753,1.73232 4.21705,1.29589 7.23659,-0.60799 2.00387,-1.26348 2.10841,-1.59122 0.75,-2.35142 C 117.71028,106.29811 117,105.09272 117,104.1053 c 0,-0.98743 -0.9,-2.60981 -2,-3.6053 -1.1,-0.995486 -2,-1.460131 -2,-1.032543 0,0.427588 -0.68587,0.208207 -1.52417,-0.487513 -0.83829,-0.69572 -1.80938,-0.979724 -2.15799,-0.631121 -0.3486,0.348604 -1.2486,0.123604 -2,-0.5 -0.75139,-0.623603 -1.63946,-0.860532 -1.97349,-0.526507 -0.33402,0.334024 -1.49073,0.134527 -2.57046,-0.443327 -1.75418,-0.938807 -1.88568,-0.802005 -1.23536,1.285184 0.72739,2.334577 0.72668,2.334487 -1.31929,-0.164173 -2.67546,-3.267411 -3.810018,-2.043119 -1.767296,1.90707 1.667206,3.22402 3.098736,3.94088 3.781206,1.89349 0.25663,-0.76989 0.62331,-0.61702 1.02389,0.42689 0.35902,0.93559 -0.0693,2.18828 -1.00844,2.94944 -1.18436,0.95989 -1.42636,0.97996 -0.88154,0.0731 0.94569,-1.5741 -0.81289,-1.6153 -3.682801,-0.0863 -2.040341,1.08704 -2.085426,1.04267 -0.684259,-0.67342 1.386062,-1.69758 1.327287,-1.79262 -0.773765,-1.25112 -1.44599,0.37267 -2.193741,0.16276 -2.053951,-0.57658 0.3759,-1.98813 -1.17827,-5.450919 -2.710351,-6.038834 C 90.65787,96.315218 90,96.484523 90,97 c 0,0.515477 -0.680731,0.67601 -1.512735,0.35674 -0.832004,-0.31927 -2.110908,-0.08405 -2.842009,0.522708 -0.731101,0.60676 -1.580309,0.852165 -1.88713,0.545345 -0.30682,-0.30682 -0.877106,-0.0413 -1.267301,0.590053 -0.447749,0.724473 -0.02359,1.075414 1.149864,0.951376 3.338255,-0.352857 3.773118,0.0099 1.800441,1.501978 -1.897281,1.43503 -1.891585,1.46891 0.252166,1.5 1.206313,0.0175 2.837886,-0.88848 3.625717,-2.01327 1.121014,-1.600469 1.550934,-1.736225 1.977561,-0.62445 0.338473,0.88204 -0.466862,1.88171 -2.124285,2.63688 l -2.669426,1.21627 2.831253,1.48345 c 1.557189,0.81589 3.492417,1.22973 4.300506,0.91963 0.808089,-0.31009 1.225836,-0.16994 0.928326,0.31144 -1.383391,2.23837 5.186441,4.30157 9.244202,2.90306 1.46794,-0.50593 2.08302,-0.43252 1.69098,0.20181 z M 105.74247,105.5 c 0.543,-1.1 0.79696,-2.675 0.56436,-3.5 -0.27786,-0.98555 -0.043,-0.8998 0.68482,0.25 1.58296,2.50077 3.2562,2.17129 2.5392,-0.5 -0.46494,-1.73224 -0.22969,-1.5918 1.02234,0.61028 1.28534,2.26069 1.36706,3.0992 0.38982,4 -0.93573,0.86255 -1.06479,0.83573 -0.5307,-0.11028 0.45438,-0.80481 0.0436,-1.25 -1.15329,-1.25 -1.02246,0 -2.4541,0.5625 -3.18143,1.25 -1.08507,1.02566 -1.14522,0.89106 -0.33512,-0.75 z m 8.72857,0.69563 c -0.53407,-0.3826 -1.0733,-1.82063 -1.19827,-3.19563 -0.22515,-2.47699 -0.21292,-2.47387 1.32825,0.33841 1.60889,2.93584 1.55747,4.06606 -0.12998,2.85722 z M 121,104.62244 c 0,-0.75765 0.76138,-1.99515 1.69196,-2.75 0.96388,-0.78185 1.38718,-0.86428 0.98369,-0.19154 -0.77353,1.28971 0.79234,2.60056 3.63523,3.04319 1.00833,0.15699 1.53615,-0.16258 1.19098,-0.72107 C 128.16092,103.45136 127.20697,103 126.38197,103 c -0.825,0 -1.20838,-0.47185 -0.85196,-1.04856 0.41802,-0.67637 1.06014,-0.70813 1.80902,-0.0895 1.84493,1.52408 9.09293,2.64598 8.24651,1.27645 -0.41116,-0.66527 -0.0556,-1.13841 0.85544,-1.13841 2.6583,0 1.71654,-1.74944 -1.55585,-2.890199 -3.22947,-1.125799 -5.34258,-0.658986 -4.34242,0.959299 C 130.85914,100.58109 130.41648,101 129.55902,101 128.70156,101 128,100.325 128,99.5 c 0,-0.825 0.3375,-1.399927 0.75,-1.277616 1.22064,0.361934 6.25,-3.351871 6.25,-4.615153 0,-0.639512 0.9,-1.933353 2,-2.875203 1.1,-0.941849 2,-1.266857 2,-0.722241 C 139,90.554404 139.45,91 140,91 c 0.55,0 1.00689,-0.7875 1.01531,-1.75 0.008,-0.9625 0.4879,-2.425 1.06551,-3.25 0.82211,-1.174233 0.91274,-1.01135 0.4173,0.75 -0.70866,2.519367 1.20408,3.18964 2.14025,0.75 0.31659,-0.825 1.00402,-1.5 1.52764,-1.5 0.52361,0 0.66276,0.468037 0.30922,1.040082 -0.87993,1.423748 4.79005,0.0021 5.75946,-1.444054 C 153.26819,84.054215 153.17289,83 152,83 c -0.55,0 -1,0.45 -1,1 0,0.55 -0.7301,1 -1.62244,1 -1.3288,0 -1.39713,-0.271492 -0.37756,-1.5 0.89691,-1.080708 0.92236,-1.5 0.0911,-1.5 -0.63461,0 -1.42733,0.712731 -1.76161,1.583846 -0.40936,1.066771 -0.83428,1.217353 -1.30158,0.461245 -0.90545,-1.46504 -6.02157,0.380668 -6.04318,2.180158 -0.0108,0.896055 -0.29186,0.837465 -0.94621,-0.197224 -0.79138,-1.251382 -1.03474,-1.201351 -1.62385,0.333846 -0.4083,1.064023 -0.95716,1.378335 -1.33612,0.765157 -0.58115,-0.940319 -8.53833,5.348968 -8.60462,6.801019 -0.061,1.33567 -2.0534,3.924676 -2.97389,3.864353 -0.55,-0.03604 -1.44687,0.902098 -1.99304,2.084759 -0.54617,1.182661 -1.53575,1.942031 -2.19907,1.687491 -0.76605,-0.29396 -0.98021,0.1257 -0.58702,1.15032 0.41229,1.07443 0.22831,1.37166 -0.55093,0.89006 -1.23828,-0.7653 -1.63488,0.5967 -0.50327,1.7283 1.11681,1.11682 2.33333,0.74619 2.33333,-0.71089 z M 132.5,102 c -0.33992,-0.55 -0.14148,-1 0.44098,-1 0.58246,0 1.05902,0.45 1.05902,1 0,0.55 -0.19844,1 -0.44098,1 -0.24254,0 -0.7191,-0.45 -1.05902,-1 z m -0.42105,-9.583333 c 0.048,-1.164943 0.28494,-1.4019 0.60416,-0.604167 0.28887,0.721875 0.25335,1.584375 -0.0789,1.916667 -0.3323,0.332291 -0.56864,-0.258334 -0.52522,-1.3125 z M 132,105.55902 c 0,-0.24254 -0.45,-0.7191 -1,-1.05902 -0.55,-0.33992 -1,-0.14148 -1,0.44098 0,0.58246 0.45,1.05902 1,1.05902 0.55,0 1,-0.19844 1,-0.44098 z m -34,-4.44824 c 0,-0.48906 -0.885029,-1.951565 -1.966731,-3.249996 -2.099038,-2.519601 -2.753183,-1.074473 -0.998085,2.204956 C 96.092708,102.04174 98,102.71403 98,101.11078 Z M 141,99 c 0.825,-0.533156 1.05,-1.004789 0.5,-1.048074 -0.55,-0.04328 0.0414,-0.496368 1.31424,-1.006854 1.27284,-0.510485 2.03378,-1.381961 1.69099,-1.936613 C 144.16243,94.453806 144.58352,94 145.44098,94 c 2.15274,0 1.97471,-1.972445 -0.19098,-2.116001 -1.66667,-0.110478 -1.66667,-0.137779 0,-0.573325 1.78555,-0.466613 2.23553,-1.491811 1.13697,-2.590375 -0.33717,-0.337169 -1.93234,0.362368 -3.54482,1.554527 -2.62084,1.937668 -2.74143,2.251791 -1.13697,2.961735 1.23104,0.544711 0.95025,0.631136 -0.89389,0.275137 -3.22968,-0.623468 -4.56036,0.936156 -2.08232,2.44058 1.45956,0.886101 1.29738,0.968289 -0.92213,0.467317 -4.07768,-0.920382 -5.65113,0.616458 -2.19408,2.143021 C 139.24444,100.16629 139.20078,100.16275 141,99 Z m -24.46022,-4.064367 c 0.84386,-1.365399 -3.15447,-2.032624 -5.9077,-0.98585 C 109.18444,94.500176 108,95.125273 108,95.338886 c 0,0.756571 8.05814,0.376062 8.53978,-0.403253 z m -13.9395,-6.786448 c -1.15516,-0.192949 -2.38946,-0.816316 -2.742893,-1.385261 -0.43852,-0.705907 -1.681015,-0.672456 -3.912157,0.105324 -1.79825,0.626874 -3.474674,0.934641 -3.725387,0.683929 -0.250712,-0.250713 0.719149,-0.750745 2.155247,-1.111183 1.436099,-0.360437 2.38875,-1.015092 2.117003,-1.454787 -0.271747,-0.439696 -1.506137,-0.560455 -2.743089,-0.268353 -2.075305,0.490075 -2.112599,0.424899 -0.48287,-0.84388 1.630774,-1.269594 1.565593,-1.386506 -0.850469,-1.525442 -1.439131,-0.08276 -3.133891,-0.711275 -3.766133,-1.396705 -0.881074,-0.955194 -0.837971,-1.069286 0.184564,-0.48854 0.979468,0.556285 1.245286,0.1301 1,-1.603296 C 89.47225,76.303894 86.5,75.536345 86.5,78 c 0,0.825 -0.675,1.811276 -1.5,2.191725 -1.164301,0.536918 -0.977533,0.847717 0.834535,1.388738 1.758829,0.525126 2.005433,0.909409 1,1.5583 -1.008868,0.651108 -0.788212,1.01104 0.904218,1.474953 1.231314,0.337515 1.992256,1.012504 1.690983,1.499974 -0.301274,0.487471 -0.183712,0.88686 0.261247,0.887531 0.444959,6.72e-4 2.154807,1.15858 3.799662,2.573129 1.644854,1.414549 4.232354,2.82025 5.75,3.123779 1.517645,0.303529 2.793595,1.058121 2.835435,1.676871 0.0418,0.61875 0.64947,-0.45 1.35027,-2.375 1.18946,-3.267233 1.13452,-3.523331 -0.82607,-3.850815 z m 7.64972,5.12073 c 1.25736,-0.361528 1.74569,-1.526008 1.73469,-4.136546 -0.0163,-3.867171 -1.41155,-7.039842 -2.58144,-5.869952 -0.38802,0.388023 -1.29818,-0.07501 -2.02257,-1.028961 -1.22881,-1.618222 -1.31829,-1.600427 -1.33522,0.265544 -0.0272,2.992211 1.07364,6.5 2.03979,6.5 0.46859,0 0.56463,-0.74882 0.21343,-1.664045 -0.39554,-1.03076 -0.23925,-1.41726 0.41067,-1.015584 0.57708,0.356654 1.29126,1.573962 1.58707,2.705129 0.44594,1.705306 0.18891,1.945926 -1.50453,1.40845 -1.50098,-0.476394 -1.83313,-0.309702 -1.25307,0.628855 0.53899,0.872108 0.32645,1.099473 -0.67025,0.717003 -0.9543,-0.366202 -1.51103,0.123832 -1.60834,1.415676 -0.11211,1.488259 0.26921,1.803261 1.54547,1.276677 0.93186,-0.384487 2.4818,-0.925498 3.4443,-1.202246 z M 123.5,93 c -0.33992,-0.55 0.28197,-1 1.38197,-1 1.1,0 2.27811,-0.45 2.61803,-1 1.04564,-1.691875 -4.69425,-1.116604 -5.94652,0.595981 -0.95597,1.307357 -1.1486,0.862172 -1.06521,-2.461702 0.10919,-4.352053 1.49048,-7.082314 1.54353,-3.050946 0.0307,2.332568 0.0825,2.349608 1.48967,0.489668 0.80183,-1.05985 1.80001,-1.560743 2.2182,-1.113095 0.41818,0.447647 0.19783,1.014796 -0.48967,1.260332 -0.6875,0.245536 -1.25,0.858929 -1.25,1.363095 0,1.245053 6.72519,1.170329 7.5,-0.08333 0.35191,-0.569401 -0.50929,-1 -2,-1 -1.62153,0 -2.36373,-0.411471 -1.94992,-1.081027 0.36746,-0.594565 1.71644,-0.817913 2.99773,-0.49633 1.28129,0.321584 2.60876,0.133046 2.94992,-0.418973 C 133.85105,84.431984 133.01662,84 131.55902,84 c -1.40746,0 -2.59455,-0.5625 -2.63797,-1.25 -0.0632,-1 -0.17982,-1 -0.58333,0 C 127.35305,85.190262 126,83.949905 126,80.606989 c 0,-3.586208 1.94837,-5.258614 3.87814,-3.328844 0.82915,0.82914 1.14787,0.09122 1.22154,-2.828145 0.0769,-3.046004 0.24953,-3.417263 0.75443,-1.622213 0.65464,2.327381 0.65514,2.327257 2.90032,-0.709507 C 137.08672,68.963687 137.76235,65 135.96778,65 c -0.56773,0 -1.4392,1.0125 -1.93662,2.25 -0.49741,1.2375 -0.93291,1.691904 -0.96777,1.009787 -0.0904,-1.769261 -3.35485,0.923809 -8.17019,6.740213 -1.13835,1.375 -2.72597,4.067634 -3.52805,5.983631 -1.0547,2.519434 -1.68762,3.112638 -2.28674,2.143238 -0.52405,-0.847926 -1.06033,-0.965144 -1.45964,-0.319042 -0.34718,0.561744 -0.15142,1.18129 0.43502,1.376769 0.70183,0.233943 0.56672,1.318254 -0.39531,3.172566 -1.29009,2.486661 -1.57418,2.61589 -2.42163,1.101577 -1.14939,-2.053838 -2.53711,-0.404774 -1.63584,1.943904 0.43436,1.131911 1.33284,1.401079 3.1524,0.944399 1.67343,-0.420004 2.32047,-0.275596 1.88951,0.421705 -0.70934,1.14774 0.78781,2.026694 3.6661,2.152306 C 123.30398,93.964474 123.83992,93.55 123.5,93 Z M 104.81336,83.827012 C 104.46838,80.333798 102,78.585947 102,81.834879 102,84.577458 103.01793,87 104.17035,87 c 0.526,0 0.81536,-1.427845 0.64301,-3.172988 z M 101,82.106989 c 0,-3.509055 -2.946086,-5.244198 -3.09968,-1.825604 -0.09357,2.082665 -0.14203,2.066535 -0.7908,-0.263236 -0.500021,-1.795599 -1.45747,-2.540754 -3.462648,-2.694877 -2.305443,-0.177203 -2.719003,0.14291 -2.4592,1.903522 0.392755,2.661582 2.784888,3.577091 2.891275,1.106539 0.05303,-1.23134 0.416027,-0.908506 1.105502,0.983171 0.649898,1.783094 1.538213,2.620162 2.421052,2.281385 C 98.372476,83.303573 99,83.498646 99,84.031385 99,84.564123 99.45,85 100,85 c 0.55,0 1,-1.301855 1,-2.893011 z m 13.55887,1.361208 C 113.30245,82.517885 113.09668,82 113.97554,82 c 0.74678,0 1.04988,-0.307913 0.67354,-0.684251 -0.37634,-0.376338 0.71912,-2.132161 2.43435,-3.90183 2.64115,-2.724973 3.01264,-3.700014 2.4265,-6.368719 -0.81875,-3.727731 -2.23106,-3.554809 -4.42831,0.542195 l -1.59863,2.98081 -3.38938,-2.284103 c -4.13666,-2.787699 -5.05754,-2.862176 -4.40217,-0.356033 0.51771,1.979727 2.29546,4.022067 5.80856,6.673058 1.94917,1.470851 1.94449,1.48239 -0.18426,0.454039 -3.38893,-1.637117 -4.05593,-1.188725 -1.45496,0.978103 1.29844,1.081702 1.97344,1.981043 1.5,1.998534 -0.47343,0.01749 0.0127,0.692492 1.08035,1.5 1.06762,0.807509 2.41762,1.453885 3,1.436394 0.58238,-0.01749 0.18536,-0.692492 -0.88226,-1.5 z m -2.10417,-7.032434 c -1.07509,-0.871243 -1.35563,-1.27655 -0.62344,-0.900682 0.78344,0.402175 2.62878,-0.493195 4.48437,-2.175842 1.73421,-1.572582 2.43563,-1.959239 1.55872,-0.859239 -0.87691,1.1 -2.01526,2.791964 -2.52967,3.75992 -0.85864,1.615697 -1.09547,1.630107 -2.88998,0.175843 z M 136.5,82 c 0.33992,-0.55 0.19773,-1 -0.31598,-1 -0.51371,0 -2.45277,-0.300895 -4.30902,-0.668655 -3.06688,-0.607609 -3.2497,-0.516315 -2.00256,1 1.50739,1.832722 5.64983,2.250653 6.62756,0.668655 z m -16.53327,-4.904988 c -0.0253,-1.212063 -0.50546,-1.028208 -2,0.765772 -2.56518,3.079139 -2.54135,4.969219 0.0333,2.639216 1.1,-0.995486 1.98503,-2.527731 1.96673,-3.404988 z M 138.5,77.776946 c 0.55,-0.410476 -0.4625,-0.753211 -2.25,-0.761633 -1.7875,-0.0084 -3.25,0.461245 -3.25,1.043704 0,0.582459 0.41891,0.800119 0.9309,0.483688 0.512,-0.316431 1.23206,-0.08805 1.60014,0.507514 0.36808,0.595564 0.96167,0.720639 1.3191,0.277946 0.35742,-0.442694 1.09986,-1.140742 1.64986,-1.551219 z M 85,77 c 0,-0.55 -0.45,-1 -1,-1 -0.55,0 -1,0.45 -1,1 0,0.55 0.45,1 1,1 0.55,0 1,-0.45 1,-1 z m 55.4382,-1.9 c 0.30592,-0.495 -1.01752,-0.9 -2.94099,-0.9 -1.92346,0 -3.49721,0.405 -3.49721,0.9 0,0.495 1.32344,0.9 2.94098,0.9 1.61754,0 3.19129,-0.405 3.49722,-0.9 z m 1.93737,-5.151028 c 1.29022,-2.58631 1.30867,-3.13291 0.12113,-3.588613 -0.77051,-0.295671 -1.83051,-0.272088 -2.35555,0.05241 -0.55144,0.340805 -0.72538,-0.360896 -0.41185,-1.661387 0.42853,-1.777479 0.27751,-2.004211 -0.71749,-1.077144 -0.93709,0.873114 -0.99669,1.930379 -0.2324,4.122831 0.85354,2.448446 0.76565,2.927759 -0.51813,2.825763 -0.85031,-0.06756 -1.74446,0.43967 -1.98698,1.12717 -0.27697,0.785124 0.49254,1.25 2.06912,1.25 1.79908,0 2.94124,-0.864243 4.03215,-3.051028 z m -28.87169,0.215618 c 1.16902,0.502513 4.98476,-5.011519 4.08161,-5.898224 -0.42932,-0.421501 -1.97419,0.632171 -3.43304,2.341493 -2.61444,3.063322 -2.69197,3.083515 -5.41003,1.409089 -3.51462,-2.165137 -4.92992,-3.645246 -2.05816,-2.152403 3.20474,1.665939 3.85628,1.390228 1.87868,-0.794996 -1.67052,-1.84591 -1.66257,-1.908364 0.18159,-1.426106 2.09627,0.548189 5.71778,-3.788883 4.97201,-5.954421 -0.22521,-0.653962 -1.2756,0.22322 -2.3342,1.949293 l -1.92471,3.138314 -2.97882,-2.435951 -2.97881,-2.435951 2.84275,1.250409 c 2.58343,1.13635 3.00958,1.029223 4.67178,-1.174404 1.00598,-1.333649 1.59918,-2.796748 1.31823,-3.251332 C 111.60007,53.543876 109,55.950007 109,57.813574 c 0,1.254192 -0.28295,1.181734 -1.41132,-0.361416 -0.77623,-1.061556 -1.16998,-2.320607 -0.875,-2.797892 0.29497,-0.477285 0.85729,-0.348448 1.24959,0.286306 1.0489,1.697159 3.23423,-1.26231 2.44699,-3.313824 -0.78558,-2.047202 -2.29255,-2.097078 -3.05843,-0.101225 -0.48145,1.254651 -0.86179,1.299041 -2.14203,0.25 -1.34258,-1.100129 -1.4769,-0.966132 -0.97683,0.974477 0.31888,1.2375 0.26351,2.25 -0.12306,2.25 -1.23126,0 -0.66327,4.629267 0.78153,6.369664 1.19828,1.443434 1.18632,1.597407 -0.0861,1.109122 -1.41499,-0.542983 -1.46508,-0.275376 -0.88864,4.747324 0.15671,1.365457 7.56271,4.609431 8.19513,3.589628 0.3365,-0.542607 0.96293,-0.835624 1.39208,-0.651148 z M 114.25,65.192908 C 116.0226,63.670616 116.6829,60 115.18414,60 c -0.44872,0 -1.86571,1.867958 -3.14886,4.151019 -2.28362,4.063143 -1.65026,4.361097 2.21472,1.041889 z M 144,64 c 0,-0.55 -0.19844,-1 -0.44098,-1 -0.24254,0 -0.7191,0.45 -1.05902,1 -0.33992,0.55 -0.14148,1 0.44098,1 C 143.52344,65 144,64.55 144,64 Z M 108,49 c 0,-0.55 -0.45,-1 -1,-1 -0.55,0 -1,0.45 -1,1 0,0.55 0.45,1 1,1 0.55,0 1,-0.45 1,-1 z m 554.3783,132.60783 c -6.12377,-2.753 -7.97015,-8.86224 -4.89949,-16.21135 3.53429,-8.45876 21.17269,-22.27348 41.31965,-32.36231 17.47361,-8.75013 25.76635,-10.77175 11.71803,-2.85665 -23.71567,13.36186 -38.75728,25.02709 -45.78383,35.50677 -7.86013,11.72291 -7.23958,13.23383 4.65484,11.33368 23.54507,-3.76134 60.10289,-26.0843 66.77862,-40.7764 2.55943,-5.63284 1.13264,-8.84901 -5.35346,-12.06747 -4.07614,-2.0226 -7.01005,-2.4481 -22.5,-3.26307 -21.96349,-1.15557 -24.54618,-1.77602 -26.75324,-6.42706 -1.56217,-3.29203 -1.55498,-3.6829 0.11992,-6.51828 3.98535,-6.74666 34.17097,-23.084216 61.70458,-33.396758 7.80731,-2.924181 10.08519,-3.424493 11.23746,-2.468192 0.79488,0.659687 1.31116,1.60163 1.1473,2.093207 -0.16385,0.491577 -4.56634,2.612908 -9.7833,4.71407 -20.15572,8.117837 -54.05731,26.426293 -59.55076,32.160223 l -2.65914,2.77555 4.36226,0.53164 c 2.39924,0.2924 9.69301,0.782 16.20837,1.088 13.27008,0.62324 23.66043,2.64606 28.40147,5.52926 3.78717,2.30311 7.26093,8.65324 7.23046,13.21747 -0.056,8.39427 -8.90604,18.93179 -24.86558,29.60695 -20.60213,13.78054 -44.05472,21.69265 -52.73416,17.79072 z M 245.62339,163.51537 c -1.82509,-1.382 -1.81541,-1.52527 0.35229,-5.21819 1.22589,-2.08845 15.03427,-24.82462 30.68528,-50.52483 16.74796,-27.501466 28.53511,-47.868335 28.64772,-49.499998 0.18386,-2.664211 0.0249,-2.761819 -4.07546,-2.50232 -5.83204,0.369092 -13.42143,3.918299 -21.53618,10.071481 -9.2918,7.045707 -11.17548,6.879948 -5.82063,-0.512201 8.0765,-11.149284 26.99067,-17.888911 33.43712,-11.914543 4.86194,4.50589 4.57896,6.329821 -3.20609,20.664602 C 300.19835,81.277267 297,87.329819 297,87.529486 c 0,0.199667 3.7125,-1.665237 8.25,-4.144231 C 326.78599,71.619396 349.99123,62 356.83849,62 c 3.13916,0 5.3047,1.731756 2.97489,2.378993 -6.49529,1.804439 -21.40572,7.83143 -30.81338,12.455169 -13.41312,6.592369 -39.889,23.821298 -42.32898,27.545178 l -1.68222,2.56739 13.39989,14.27664 c 7.36994,7.85214 15.69746,16.50971 18.5056,19.23904 5.77069,5.60872 6.88591,8.52032 2.35571,6.15021 -3.72524,-1.94898 -20.78923,-16.19607 -30.42887,-25.40572 -4.32074,-4.12801 -7.98903,-7.3258 -8.15175,-7.10619 -0.16273,0.21961 -7.46741,11.75704 -16.23262,25.63874 -8.76522,13.8817 -16.16176,25.22989 -16.43676,25.2182 -0.275,-0.0117 -1.34447,-0.66072 -2.37661,-1.44228 z M 569.57163,161.75 c 1.10426,-3.51724 15.01547,-29.03145 22.7635,-41.75 13.84479,-22.726473 31.31678,-47.50217 41.60721,-59 l 4.02745,-4.5 2.51511,2.805764 c 1.3833,1.54317 2.5151,3.839085 2.5151,5.102034 0,1.262949 -2.52212,7.425356 -5.60472,13.694237 -8.2455,16.768353 -14.53225,30.987055 -14.17487,32.059195 0.17254,0.51761 2.16954,-1.66942 4.43778,-4.86006 C 634.62935,95.495122 647.96253,80.05025 659.5,68.416276 669.82587,58.004046 679.31081,51.031015 683.17742,51.009384 685.40648,50.996914 689,55.678016 689,58.594166 689,61.191601 646.4868,147 645.19992,147 c -0.44972,0 -1.62295,-0.58884 -2.60718,-1.30853 -1.65999,-1.21382 -0.43342,-4.01869 16.9454,-38.75 C 679.33812,67.37153 685.5155,54 683.99605,54 c -0.51045,0 -4.9089,3.339973 -9.77434,7.422162 C 659.39929,73.85842 640.86029,94.281997 627.17625,113.25 623.70438,118.0625 620.41483,122 619.86614,122 617.66197,122 615,119.81858 615,118.01233 c 0,-3.215 7.5431,-21.652977 15.50687,-37.904236 4.14846,-8.465549 7.36926,-15.565297 7.15734,-15.777218 C 636.23969,62.906359 601.58935,115.22584 585.56294,143 c -11.21352,19.43329 -12.30608,21 -14.64452,21 -1.67188,0 -1.922,-0.41787 -1.34679,-2.25 z M 752,145.87431 C 752,143.52143 753.59998,141 755.09301,141 c 1.88457,0 1.48442,3.04835 -0.66524,5.06786 L 752,148.34863 Z m -261.75254,-1.41354 -2.21529,-1.55164 7.08186,-14.20457 7.08185,-14.20456 -4.34794,4.07269 c -10.4668,9.80419 -13.84552,11.29744 -17.19295,7.59857 -2.36142,-2.60934 -2.06996,-5.08599 1.3864,-11.78049 l 3.04138,-5.89077 -4.24957,5 c -8.13786,9.57493 -16.50466,17.5 -18.4754,17.5 -1.08655,0 -2.8081,-0.60878 -3.82566,-1.35284 -1.59938,-1.16949 -1.70919,-1.88102 -0.81027,-5.25 0.57192,-2.14344 1.40064,-4.79716 1.84161,-5.89716 0.44096,-1.1 -2.22189,0.8125 -5.91745,4.25 -7.53006,7.00423 -10.55272,7.84824 -13.26768,3.70468 -1.66883,-2.54696 -1.49525,-4.05048 1.32243,-11.45468 0.31396,-0.825 -2.97778,1.92394 -7.31498,6.10876 -9.48699,9.15369 -11.86581,10.19709 -14.98381,6.5722 -2.23975,-2.60388 -2.20758,-5.11893 0.14302,-11.18096 0.42654,-1.1 -2.5591,1.19772 -6.63474,5.10604 -8.44608,8.09933 -11.12989,9.41017 -13.98193,6.82911 -2.68497,-2.42986 -2.41499,-5.52814 1.08606,-12.46367 1.65791,-3.28431 2.70919,-5.97148 2.33618,-5.97148 -0.37302,0 -3.642,2.59159 -7.2644,5.7591 -9.9579,8.7074 -9.67072,8.53362 -12.02226,7.27511 -2.86635,-1.53403 -2.60144,-3.99295 1.43324,-13.30328 1.92343,-4.43847 3.30678,-8.26033 3.0741,-8.49301 -0.89628,-0.89627 -15.6018,14.75455 -23.34648,24.84723 -9.21426,12.0078 -10.59404,13.37087 -12.71205,12.55811 -2.61471,-1.00336 -1.6888,-6.3346 2.59048,-14.91546 l 4.10321,-8.2278 -3.85321,3.57114 c -10.05068,9.31492 -13.40363,10.7406 -16.69822,7.10012 -2.32284,-2.56671 -2.088,-4.5471 1.36937,-11.54756 l 3.02436,-6.1237 -4.26975,5 c -8.61348,10.08666 -15.1863,16.56413 -17.36207,17.11021 -1.22684,0.30792 -3.21534,0.0328 -4.4189,-0.61128 -1.86752,-0.99947 -2.08873,-1.70819 -1.50917,-4.83503 1.10534,-5.96344 5.57475,-13.18023 12.63089,-20.39519 C 331.71525,100.06974 334.48528,98 336.17859,98 c 3.366,0 6.29808,2.31545 5.51527,4.35539 -0.44897,1.17 -0.0836,1.64461 1.2661,1.64461 1.04345,0 2.57275,0.67557 3.39844,1.50126 1.83918,1.83918 1.00948,5.30849 -2.84078,11.87847 -1.47125,2.51049 -2.52709,5.32043 -2.34631,6.24429 0.5058,2.58484 19.65312,-12.32933 22.64398,-17.63777 2.34732,-4.16621 3.74821,-4.62535 5.52383,-1.81041 0.73407,1.16374 -0.32091,3.99527 -4.17856,11.2151 -2.83831,5.31207 -5.16056,9.8893 -5.16056,10.17164 0,0.28234 3.31097,-3.44124 7.35772,-8.27462 C 376.48498,106.38649 388.2692,95 390.42421,95 c 0.89027,0 2.12614,1.113788 2.74639,2.475085 0.94238,2.068303 0.61456,3.825785 -1.99465,10.693455 -1.7173,4.52011 -2.89905,8.44169 -2.62612,8.71463 0.27294,0.27294 2.62339,-1.55994 5.22321,-4.07307 7.51636,-7.26571 13.27467,-11.01539 14.87566,-9.68669 2.09098,1.73536 1.63724,4.35573 -2.01758,11.65155 C 402.66141,122.69937 401.52557,126 402.76827,126 c 2.16767,0 20.68735,-16.71697 23.92982,-21.6005 3.0304,-4.564106 3.8181,-5.193611 5.42361,-4.33437 1.03306,0.55288 1.8783,1.70935 1.8783,2.56993 0,0.86059 -2.475,5.93591 -5.5,11.2785 C 423.20945,123.25743 422.133,126 423.7561,126 c 0.41585,0 5.46611,-3.95709 11.2228,-8.79354 l 10.46671,-8.79354 12.63586,-24.456462 c 6.94972,-13.451052 13.26196,-24.568394 14.02719,-24.705205 4.67982,-0.836669 3.78892,1.627844 -11.59743,32.082356 C 445.7918,120.46808 443.82226,125 445.88011,125 c 1.01302,0 14.46218,-11.40183 24.38863,-20.67603 C 474.50077,100.37003 477.89576,98 479.32761,98 c 3.23642,0 6.13486,2.35245 5.36625,4.35539 -0.44897,1.17 -0.0836,1.64461 1.2661,1.64461 1.04345,0 2.57275,0.67557 3.39844,1.50126 1.83918,1.83918 1.00948,5.30849 -2.84078,11.87847 -5.02243,8.57012 -2.98487,8.65742 7.98238,0.34199 l 10,-7.58206 12.48401,-25.069829 c 6.8662,-13.788407 12.9412,-25.06294 13.5,-25.054518 0.55879,0.0084 1.69099,0.444121 2.51599,0.96822 1.24989,0.794022 -1.13514,6.229185 -14.30415,32.597203 -8.69228,17.404364 -15.63658,31.811864 -15.43178,32.016674 0.20481,0.2048 2.58986,-2.64768 5.30011,-6.33886 6.29262,-8.57012 16.28485,-19.267151 18.90206,-20.23532 3.04724,-1.127246 7.20222,0.762159 8.48467,3.85825 1.3226,3.19304 0.14167,9.86014 -3.00755,16.97946 -2.29807,5.19517 -2.29078,5.14125 -0.69336,5.13119 0.6875,-0.004 5.2545,-3.39418 10.14889,-7.533 C 552.20682,109.16529 553,108.57396 553,109.55582 c 0,1.17288 -15.37104,16.62726 -18.4158,18.51565 -2.62763,1.62968 -3.19592,1.66356 -5.75,0.34279 -3.72134,-1.92438 -3.70115,-5.16364 0.10543,-16.91426 1.6093,-4.96781 2.48552,-9.15415 1.95574,-9.34407 -3.03565,-1.08824 -13.79004,11.1218 -30.19559,34.28269 -3.48232,4.91624 -6.76024,9.08153 -7.28426,9.25621 -0.52403,0.17467 -1.94966,-0.38065 -3.16806,-1.23406 z M 328.39216,118.75 c 7.82307,-8.53289 12.65798,-16.04753 11.22516,-17.44667 -1.27798,-1.24795 -13.73217,12.73091 -17.43501,19.56945 -1.82473,3.36997 -2.87583,6.12722 -2.33578,6.12722 0.54005,0 4.38558,-3.7125 8.54563,-8.25 z m 143,0 c 7.82307,-8.53289 12.65798,-16.04753 11.22516,-17.44667 -1.27798,-1.24795 -13.73217,12.73091 -17.43501,19.56945 -1.82473,3.36997 -2.87583,6.12722 -2.33578,6.12722 0.54005,0 4.38558,-3.7125 8.54563,-8.25 z M 668,129.3131 c 0,-1.06196 0.66645,-2.80435 1.481,-3.87197 1.2818,-1.68005 1.61586,-1.73938 2.48374,-0.44113 1.30371,1.95021 0.91388,3.00466 -1.76955,4.78639 C 668.18962,131.11804 668,131.07716 668,129.3131 Z M 434.64944,94.206326 c -0.56207,-0.957538 0.9709,-4.853651 2.21138,-5.620311 1.41036,-0.871645 2.38246,1.072118 1.66566,3.330552 -0.6338,1.996922 -3.16977,3.494654 -3.87704,2.289759 z"
       id="path5698" />
  </g>
</svg>
