<?xml version="1.0" encoding="UTF-8" standalone="no"?>
<svg
   version="1.0"
   width="200pt"
   height="59.590515pt"
   viewBox="0 0 200 59.590515"
   preserveAspectRatio="xMidYMid"
   id="svg30"
   xmlns="http://www.w3.org/2000/svg"
   xmlns:svg="http://www.w3.org/2000/svg">
  <defs
     id="defs30" />
  <metadata
     id="metadata1">
Created by potrace 1.10, written by Peter Selinger 2001-2011
</metadata>
  <g
     transform="matrix(0.03130842,0,0,-0.03130842,-110.57954,114.56134)"
     fill="#000000"
     stroke="none"
     id="g30">
    <path
       d="m 7260,3651 c -116,-18 -247,-120 -304,-236 -58,-119 -58,-269 0,-391 27,-57 96,-133 244,-269 161,-147 348,-323 373,-350 70,-74 99,-189 77,-297 -39,-188 -225,-303 -432,-269 -86,14 -131,37 -184,93 -71,75 -95,131 -110,251 -15,128 -52,18 -53,-160 -1,-144 4,-152 152,-217 116,-51 362,-67 468,-30 236,81 365,325 305,574 -32,134 -41,145 -406,482 -321,296 -324,300 -324,443 0,81 3,95 29,144 37,67 92,115 164,142 70,26 184,21 261,-12 63,-27 126,-96 144,-158 7,-25 17,-45 22,-44 15,5 17,268 2,280 -15,11 -247,34 -328,32 -30,-1 -75,-5 -100,-8 z"
       id="path1" />
    <path
       d="m 5776,3642 c -3,-5 -17,-42 -32,-83 -15,-41 -39,-101 -54,-134 -15,-33 -61,-141 -103,-240 -41,-99 -130,-310 -197,-470 -67,-159 -156,-371 -197,-470 -97,-232 -131,-302 -167,-343 -35,-40 -97,-74 -150,-81 -22,-3 -41,-12 -44,-19 -3,-10 50,-12 255,-10 165,2 257,7 256,13 -1,6 -17,13 -35,17 -18,3 -43,19 -56,34 -21,24 -24,35 -20,83 4,52 50,182 128,365 17,38 30,74 30,81 0,33 26,36 372,36 339,0 343,0 361,-22 9,-12 17,-27 17,-35 0,-7 6,-28 14,-46 8,-18 21,-51 30,-73 8,-22 35,-93 61,-157 52,-136 58,-192 22,-233 -12,-15 -38,-30 -56,-34 -19,-3 -36,-12 -39,-19 -3,-9 61,-12 282,-12 248,0 286,2 286,15 0,10 -10,15 -29,15 -42,0 -111,34 -148,72 -40,42 -72,107 -168,338 -150,362 -197,475 -211,505 -7,17 -24,56 -38,87 -15,31 -26,60 -26,63 0,3 -18,50 -41,103 -22,53 -45,108 -51,122 -78,195 -228,535 -236,538 -5,1 -13,-1 -16,-6 z m 45,-433 c 48,-128 49,-129 64,-169 7,-19 21,-55 30,-80 9,-25 23,-62 31,-82 8,-21 21,-57 30,-80 72,-190 94,-253 94,-271 0,-16 -23,-17 -310,-17 -223,0 -310,3 -310,11 0,6 15,50 34,98 19,47 55,140 81,206 25,66 49,129 54,140 5,11 16,40 26,65 9,25 23,59 30,75 7,17 20,50 30,75 35,93 56,131 68,127 6,-2 28,-46 48,-98 z"
       id="path2" />
    <path
       d="m 3537,3614 c -13,-13 5,-24 40,-24 50,0 98,-33 123,-84 20,-43 20,-49 18,-814 -3,-760 -3,-771 -24,-798 -32,-43 -70,-67 -115,-73 -24,-3 -44,-12 -47,-18 -3,-10 109,-13 537,-13 h 541 l 15,33 c 15,35 96,259 115,320 23,73 -8,55 -50,-29 -25,-50 -120,-161 -157,-184 -78,-47 -118,-53 -368,-57 -132,-2 -246,0 -253,5 -17,12 -18,1582 -1,1615 23,44 73,87 108,93 55,9 71,15 71,25 0,10 -543,13 -553,3 z"
       id="path3" />
    <path
       d="m 8127,3614 c -13,-13 5,-24 41,-24 42,0 80,-22 114,-65 l 23,-30 v -787 c 0,-779 0,-787 -21,-814 -32,-43 -70,-67 -115,-73 -24,-3 -44,-12 -47,-18 -3,-10 57,-13 277,-13 243,0 281,2 281,15 0,11 -11,15 -38,15 -49,0 -118,48 -138,95 -11,28 -14,104 -14,384 0,309 2,350 16,355 28,11 1014,7 1035,-4 18,-10 19,-25 19,-353 0,-312 -2,-346 -19,-383 -24,-52 -73,-87 -131,-94 -25,-3 -44,-9 -43,-15 2,-6 105,-11 278,-13 240,-2 275,0 275,13 0,10 -10,15 -30,15 -46,0 -105,35 -131,77 l -24,38 v 770 770 l 23,36 c 28,46 66,72 116,79 22,3 41,11 44,18 3,9 -56,12 -273,12 -217,0 -276,-3 -273,-12 3,-7 23,-16 47,-19 45,-6 83,-30 115,-73 20,-26 21,-42 24,-397 l 3,-369 -26,-10 c -36,-14 -1000,-13 -1026,0 -18,10 -19,25 -19,367 0,340 1,359 21,399 22,47 72,84 112,84 32,0 57,9 57,21 0,10 -543,13 -553,3 z"
       id="path4" />
  </g>
</svg>
