<?xml version="1.0" encoding="UTF-8" standalone="no"?>
<!-- Created with Inkscape (http://www.inkscape.org/) -->

<svg
   version="1.1"
   id="svg1"
   width="742.02527"
   height="154.75775"
   viewBox="0 0 742.02527 154.75775"
   xmlns="http://www.w3.org/2000/svg"
   xmlns:svg="http://www.w3.org/2000/svg">
  <defs
     id="defs1" />
  <g
     id="g1"
     transform="translate(-121,-118.05505)">
    <path
       style="fill:#000000;fill-opacity:1;stroke:none"
       d="m 571.00385,118.65277 c -14.66095,4.63503 -6.24201,27.09535 7.9923,21.60495 13.3382,-5.14476 5.82245,-25.97246 -7.9923,-21.60495 M 121,130 v 6 c 11.79906,0.28539 10,9.79338 10,19 v 57 c 0,9.1283 1.38669,17.82602 -10,19 v 6 h 43 v -6 c -14.16891,-1.46085 -10,-18.43243 -10,-29 h 1 c 6.25366,12.55444 19.69518,29.84531 33,35.0733 8.82857,3.4691 17.55304,4.53205 23,-4.0733 -15.13002,-3.6272 -24.12857,-20.34015 -32.87346,-32 -2.61204,-3.48273 -10.08928,-10.24074 -7.5054,-14.96065 4.18088,-7.63711 17.14001,-16.53967 24.37886,-21.27855 5.52238,-3.6152 10.75073,-3.16877 11,-10.7608 h -37 v 7 c 17.18291,2.6629 -9.24988,24.94954 -15,29 v -52 c 0,-4.19766 2.33975,-14.43643 -2.23225,-16.71605 -3.17163,-1.58139 -6.96463,1.13057 -9.76775,2.40741 -6.72052,3.06123 -13.77383,4.90646 -21,6.30864 m 186,0 v 6 c 11.47867,0.37276 9,11.3746 9,20 0,21.8129 3.25781,46.47417 -0.14813,67.99536 C 314.74771,230.97229 306.56891,229.69299 306,237 h 43 v -6 c -3.61078,-0.54398 -7.6543,-1.35951 -9.25772,-5.10803 C 337.72845,221.18405 339,214.03215 339,209 c 0,-13.83672 -4.64063,-47.08464 18,-46.3696 6.23727,0.19699 10.1781,5.77834 11.47067,11.3696 2.62873,11.37106 0.52933,25.34619 0.52933,37 0,4.44951 1.10953,10.71313 -0.60339,14.89505 C 366.82278,229.73737 362.67728,230.62086 359,231 v 6 h 43 v -6 c -8.40604,-0.86668 -9.99652,-5.26245 -10,-13 -0.008,-16.84058 4.25024,-40.83525 -4.53241,-55.99614 C 376.78305,143.55988 346.45157,152.29205 339,169 c -2.24121,-10.34395 -0.2485,-24.26007 0.0147,-35 0.0949,-3.87083 2.48401,-10.69467 -2.16278,-12.8642 -2.97687,-1.38986 -6.2612,1.1769 -8.85187,2.37578 -6.60251,3.05545 -13.89154,5.01729 -21,6.48842 m -39,94 c -0.002,3.58018 -1.40161,9.65556 0.83179,12.68134 3.60898,4.88935 25.4537,-0.62043 31.16821,-1.68134 -0.58334,-7.49243 -9.40579,-8.00735 -10.69522,-16 -2.73077,-16.92688 7.41089,-47.83044 -6.40973,-60.78627 C 269.29446,145.46416 223.13338,151.3721 222.27933,174 c -0.31908,8.45375 10.5908,12.05838 16.49304,6.6821 5.19228,-4.72959 3.65155,-13.13262 8.03087,-18.46837 9.1602,-11.16077 19.07725,0.979 20.02699,10.78627 2.24048,23.13594 -38.54504,14.60878 -47.6165,35.00076 -8.01192,18.01021 7.14021,32.20246 24.78627,30.90897 10.51373,-0.77069 17.4274,-7.39133 24,-14.90973 m 286,-62 v 6 c 4.03387,0.13098 7.58478,0.82954 9.25769,5.01929 C 567.37006,183.31847 564,200.93646 564,212 c 0,4.22772 0.95557,9.92262 -0.74231,13.89197 C 561.65424,229.6405 557.61078,230.45602 554,231 v 6 h 43 v -6 c -4.32367,-0.39233 -8.48871,-1.56586 -10.25769,-6.01852 C 584.8092,220.11575 586,213.1546 586,208 c 0,-11.53659 -0.92334,-23.5143 0.16974,-35 0.42657,-4.48247 3.42718,-16.93355 -1.60339,-19.71605 -2.9289,-1.62001 -6.91864,1.16173 -9.56635,2.28859 -6.78888,2.88939 -13.78119,4.93747 -21,6.42746 m 49,0 v 6 c 4.03387,0.13098 7.58478,0.82954 9.25769,5.01929 C 616.37006,183.31847 613,200.93646 613,212 c 0,4.22772 0.95557,9.92264 -0.74231,13.89197 C 610.65424,229.64053 606.61084,230.45602 603,231 v 6 h 43 v -6 c -3.76422,-0.34155 -7.81757,-1.09404 -9.39661,-5.05478 C 635.01495,221.96085 636,216.2207 636,212 c 0,-11.59166 -3.83575,-31.3931 3.5332,-40.99614 8.86103,-11.54741 22.97553,-10.19875 25.84796,4.99614 0.87092,4.60707 0.61884,9.33405 0.61884,14 v 23 c 0,4.25122 1.0459,10.21761 -1.60339,13.86652 C 660.92926,231.64215 655.53186,230.16789 655,237 h 44 v -6 c -6.91235,-0.62717 -10.86066,-3.82491 -10.99536,-11 -0.31525,-16.78981 4.86835,-41.82489 -3.42206,-57 C 673.00311,141.80453 642.31049,153.53445 634,171 L 633.82019,154.44907 626,154.26312 603,162 m 104,52 c 5.5e-4,4.57726 -1.19452,19.01953 2.59955,21.96759 3.51629,2.73227 7.58832,-2.52106 11.4043,-1.91589 5.13671,0.8146 9.73913,3.89029 14.99615,4.64814 C 749.24719,240.60957 766.08112,233.4753 768.67053,219 772.34741,198.44533 751.5448,190.96773 737,183.21837 730.39642,179.70003 721.30664,172.62479 726.1543,164.09413 737.39612,144.31126 754.42908,175.2628 764,176 l -1,-22 c -4.15503,0.0467 -8.08655,2.4991 -12.01465,2.24768 -6.17254,-0.39506 -11.49597,-4.37198 -17.98535,-4.03857 -20.15033,1.03524 -36.37085,21.98745 -20.67053,39.70062 9.23517,10.41919 25.50641,11.73213 34.27624,22.18362 5.28028,6.29277 3.28192,15.02169 -4.6065,18.01236 C 725.35449,238.41606 719.42377,214.95911 707,214 m 86,-10 v 1 c -9.47607,1.98204 -20.61523,10.41989 -12.48615,20.89505 8.01807,10.33214 29.6374,10.27295 41.48615,12.49384 5.46515,1.02436 11.96588,1.63482 15.39661,6.66589 C 848.36243,261.13599 818.58368,269.03925 808,266.46683 790.54163,262.22345 804.33551,246.96979 794.77161,239.74228 782.9798,230.8311 773.95734,248.00729 778.00928,258 781.32501,266.17722 790.9173,270.1933 799,271.73843 818.67279,275.49915 864.58026,270.40674 857.60571,240 853.66052,222.80016 823.70569,222.5509 810,220.42438 c -3.77057,-0.58502 -17.68738,-1.57276 -15.65436,-8.28009 1.67206,-5.51648 19.91004,-0.49321 24.65436,-0.90201 23.86041,-2.05591 35.39709,-19.47771 29,-42.24228 3.60663,-0.70381 8.5943,0.86505 11.77161,-1.03165 4.15045,-2.47763 4.23553,-10.29556 0.79474,-13.37884 C 853.91541,148.62962 844.26941,155.34354 842,162 826.75934,153.32654 810.64362,147.06534 794,157.55942 778.32312,167.44395 773.62878,194.96046 793,204 M 407,154 c 0.58478,7.50578 10.24921,7.5368 13.30017,15 6.54685,16.01477 11.21842,32.79803 17.27545,49 1.94165,5.19373 2.88248,12.06714 5.98224,16.6821 2.2255,3.31337 10.83093,3.2547 14.16437,1.71451 4.28793,-1.98122 5.05261,-10.37229 6.30322,-14.39661 4.10806,-13.21935 7.36411,-27.34305 12.97455,-40 2.73129,8.39398 5.76263,16.66588 8.65588,25 1.85215,5.33516 3.53537,10.71693 5.53626,16 2.33667,6.16971 11.69992,24.11594 20.52933,11.6821 2.74588,-3.86684 3.45871,-10.20178 4.94522,-14.6821 4.28277,-12.90804 7.78882,-26.07042 12.00305,-39 3.49609,-10.72633 6.40887,-20.40814 19.33026,-21 v -6 h -37 c 0.69278,8.89212 11.83667,4.19279 13.64197,13.00386 0.91931,4.48694 -1.98316,9.78064 -3.21759,13.99614 -3.43744,11.73878 -8.63965,23.91493 -10.42438,36 h -1 L 498.66666,182 494.24152,166.00462 502,154 h -43 c 0.64587,8.2901 11.89188,6.6563 13.03625,16 1.70945,13.9574 -10.17877,33.19255 -13.03625,47 h -1 L 446.66666,182 442.24152,166.00462 450,154 h -43 m 407,4.4375 c 18.87787,-2.31584 19.90686,43.48048 3,46.33025 -19.90509,3.35514 -21.05591,-44.11524 -3,-46.33025 M 267,191 c 0,6.65823 0.18271,13.34489 -0.0154,20 -0.63297,21.25803 -31.45461,23.82254 -26.60494,0 0.57068,-2.80331 1.82245,-5.62523 3.47069,-7.96065 2.31008,-3.27318 5.67835,-5.75885 9.14969,-7.69058 4.33823,-2.41412 9.07239,-3.91855 14,-4.34877 z"
       id="path1" />
  </g>
</svg>
