<?xml version="1.0" encoding="UTF-8" standalone="no"?>
<svg
   version="1.0"
   width="95.450226pt"
   height="15.925102pt"
   viewBox="0 0 95.450226 15.925102"
   preserveAspectRatio="xMidYMid"
   id="svg10"
   xmlns="http://www.w3.org/2000/svg"
   xmlns:svg="http://www.w3.org/2000/svg">
  <defs
     id="defs10" />
  <g
     transform="matrix(0.00526533,0,0,-0.00526533,-39.835636,9.679932)"
     fill="#000000"
     stroke="none"
     id="g10">
    <path
       d="m 9729.7675,1830.0351 c -210.8073,-21.9591 -401.1211,-88.5664 -545.3187,-190.3108 -73.9277,-51.9693 -179.3313,-155.1771 -197.6319,-192.5075 -16.1037,-34.4043 -19.0299,-83.4446 -6.5877,-135.4161 13.9087,-60.0198 57.0936,-311.81924 53.4351,-314.74544 -1.4657,-1.4656 -109.0652,29.27724 -239.3542,68.07334 -319.8724,95.1543 -303.0356,92.2282 -390.872,67.3407 -212.2727,-59.2895 -391.6048,-161.03464 -532.8755,-300.83954 -257.6519,-255.45882 -357.9332,-573.86563 -278.1481,-882.023038 17.5673,-68.805692 56.3612,-153.713682 102.4754,-223.982802 50.5059,-78.32252 154.446,-184.45629 230.5705,-234.96225 113.4568,-76.1267 274.4887,-145.66262 427.4718,-185.18886 193.2401,-49.77348 250.3337,-53.43515 757.5889,-43.91823 1572.2709,27.8135 2043.6579,38.0629 2061.2249,43.18494 11.713,2.9292 27.814,13.90873 35.868,24.88827 l 14.638,20.49564 -27.813,674.874362 c -15.372,371.108578 -30.743,702.690928 -34.405,737.095298 -30.01,268.63121 -133.95,497.73881 -306.695,676.34001 -286.93,297.1779 -688.781,436.986 -1123.5715,391.602 z m 341.8285,-127.3627 c 259.117,-34.4013 483.833,-145.6602 672.681,-333.045 159.569,-159.5688 256.188,-352.0787 287.664,-576.06138 6.588,-43.91814 14.638,-174.20699 18.298,-291.32272 4.392,-116.38317 15.371,-404.047368 24.154,-638.27705 10.98,-292.05592 13.908,-428.93483 8.784,-434.05984 -5.121,-5.12204 -269.364,-12.44233 -746.608,-21.95916 -1428.0715,-27.8136 -1652.0544,-30.0095 -1735.499,-21.95907 -222.52,21.95907 -419.4188,89.30214 -594.3609,202.75692 -147.8564,95.88672 -250.3337,230.57044 -294.252,385.016602 -15.3713,53.432 -17.5672,74.66093 -16.8348,191.774328 0,122.24066 1.4635,136.14634 20.4962,196.9016 89.2993,292.05592 367.4474,551.17323 688.0502,641.20547 40.9916,11.7097 57.8259,13.1754 79.0527,7.3179 14.6408,-4.3918 174.2091,-100.27854 355.007,-213.00314 708.5454,-444.30386 849.8168,-526.28509 1601.5476,-925.20798 464.07,-247.40764 464.07,-246.67435 486.029,-241.55006 36.598,8.78363 58.557,44.64837 48.31,77.58707 -2.929,7.32101 -392.335,365.254062 -865.189,794.91902 -473.5826,430.39825 -892.2709,809.56049 -929.6014,843.96239 l -68.0733,61.4855 35.1347,35.8671 c 81.9809,84.908 214.4688,166.1565 332.3146,205.6829 161.0346,54.1645 411.3684,76.1236 592.8954,51.9686 z M 9775.8816,652.29764 c 344.7574,-305.96393 628.7594,-559.956958 630.2254,-564.348768 4.392,-14.64103 -27.816,7.31804 -365.254,244.476198 -842.4955,592.89549 -846.8873,595.82459 -862.2587,629.49569 -12.4452,24.8852 -27.8165,100.27954 -48.31,230.57064 -1.4656,10.2468 1.4627,16.1015 7.318,16.1015 5.8574,0 292.7882,-250.33364 638.2793,-556.29526 z M 8943.632,905.55736 c 60.0198,-10.2462 127.3627,-26.3509 153.7136,-37.3305 25.6178,-10.2462 99.5463,-54.8977 163.96,-98.81582 64.4147,-43.91823 323.5318,-218.12522 576.7917,-387.94282 252.5297,-169.81805 458.9447,-309.623178 458.9447,-311.819088 0,-5.12492 -36.597,11.71202 -191.044,88.568858 -275.952,138.34233 -497.7387,268.63108 -965.4674,565.81211 -296.4478,188.84826 -312.5515,199.09446 -307.4273,199.09446 2.1959,0 51.9693,-8.0503 110.5287,-17.5672 z"
       id="path1"
       style="stroke-width:0.731976" />
    <path
       d="m 17105.272,1644.5127 c -2.548,-6.3573 -4.456,-433.6768 -4.456,-949.38563 0,-866.7218 0.641,-941.7556 10.8,-984.9977 22.272,-94.1105 65.508,-161.5155 132.917,-204.7557 88.373,-56.596 275.972,-78.2148 396.155,-45.1499 29.255,7.6307 45.139,17.1691 68.031,38.7905 36.245,35.6089 48.978,71.8547 54.7,158.9736 l 3.816,59.7721 -19.077,-3.8153 c -55.323,-10.8091 -136.731,-18.4398 -176.792,-15.8957 -78.836,5.0866 -119.538,36.8801 -141.169,110.0088 -10.799,35.6089 -11.445,97.291503 -13.353,943.0282 l -1.908,904.23843 h -152.614 c -139.261,0 -152.614,-1.2734 -157.05,-10.8117 z"
       id="path2"
       style="stroke-width:0.635897" />
    <path
       d="m 12792.649,1502.0739 c -338.296,-35.6094 -588.837,-213.0234 -662.601,-468.0174 -12.716,-42.60333 -14.624,-63.58783 -13.99,-148.16183 0,-89.6608 1.908,-103.0145 17.17,-149.4357 22.257,-67.403 47.057,-108.1005 94.749,-159.6078 50.87,-54.6863 102.377,-90.932 183.771,-129.0856 82.031,-39.427 168.512,-65.4974 368.182,-111.9185 423.503,-98.5622 454.026,-108.1006 512.53,-163.4232 50.871,-47.692 62.953,-81.393697 62.953,-170.4201969 0,-69.9469001 -1.273,-75.6699001 -20.984,-115.7312031 -11.446,-22.892 -32.431,-52.1442 -46.421,-65.498 -58.502,-52.7779 -166.605,-85.8454 -324.305,-98.5621 -194.583,-15.8984 -375.812,32.4305 -518.251,137.989 -27.345,20.9844 -87.753,76.941403 -133.538,125.270303 l -83.937,87.1161 -72.492,-75.0336999 c -89.026,-91.5685001 -125.906,-132.2659031 -125.906,-138.6260031 0,-10.1728 66.768,-87.1161 113.823,-131.6296 241.004,-227.0135 658.785,-338.9294 1003.438,-268.9824 260.715,53.415 452.755,199.6718 519.525,396.1622 23.526,68.676403 31.793,131.629803 27.341,216.201803 -4.45,89.026297 -15.261,133.537297 -49.599,202.850497 -57.231,118.276 -170.418,201.5767 -345.924,255.6287 -34.976,10.809 -171.056,45.1472 -302.049,76.9433 -317.945,76.3071 -376.45,92.2028 -420.326,115.0949 -69.947,34.9752 -113.824,89.6608 -123.362,152.6141 -10.175,67.4057 36.245,172.32773 108.101,244.81943 78.215,78.8513 144.983,99.1992 333.843,99.8356 101.744,0.6344 125.272,-1.2733 174.872,-13.3537 135.445,-33.7039 262.622,-120.1836 359.277,-242.91113 22.258,-27.979 41.969,-50.8711 43.877,-50.8711 1.908,0.6345 49.6,44.511 105.558,97.92593 l 101.107,97.2916 -42.605,54.0517 c -190.768,244.8189 -516.344,376.4486 -843.827,341.474 z"
       id="path3"
       style="stroke-width:0.635897" />
    <path
       d="m 17949.733,480.19607 v -1004.0738 l 58.491,-4.4524 c 86.492,-5.7231 647.988,-4.4498 762.449,2.5446 160.865,9.5384 272.798,36.8822 396.797,98.5622 259.443,128.4513 415.233,372.633803 457.842,715.3785 10.806,90.934 12.714,292.5113 3.176,378.3567 -29.884,257.5363 -136.093,467.38053 -305.229,602.82553 -181.229,144.9834 -377.08,183.1369 -1042.859,201.5767 -123.999,3.181 -249.285,7.6308 -277.899,10.1754 l -52.768,3.8153 z m 817.125,710.28973 c 219.383,-26.7074 361.818,-135.445 470.556,-358.64313 62.953,-129.085 82.03,-224.4687 77.567,-381.5352 -3.815,-120.1835 -17.168,-189.4942 -57.851,-294.4164 -83.938,-217.474997 -196.49,-335.1166 -368.821,-385.3505 -80.77,-23.5284 -153.261,-29.2514 -383.443,-29.2514 H 18280.4 v 724.9168 724.91673 l 110.006,1.9077 c 267.714,4.4519 322.397,3.8153 376.452,-2.5446 z"
       id="path4"
       style="stroke-width:0.635897" />
    <path
       d="m 25017.672,1381.8904 c -76.955,-19.7137 -147.539,-38.1535 -157.077,-40.6982 l -17.79,-3.8154 V 1163.144 988.90927 l -64.862,-3.8154 c -36.245,-1.9077 -99.838,-6.3601 -141.806,-8.9021 l -76.308,-4.4516 -7.63,-89.0245 c -3.815,-48.9653 -7.631,-99.8355 -7.631,-113.8262 l -0.647,-24.1628 -51.508,48.3282 c -115.081,108.1012 -229.542,169.1469 -384.703,204.1213 -59.785,13.98823 -252.46,19.71123 -321.136,10.17283 -154.522,-21.61883 -278.521,-80.12243 -368.181,-171.69093 -77.568,-80.1223 -113.814,-163.4231 -118.898,-274.0683 -5.724,-123.3626 28.614,-222.5618 99.82,-288.696 90.947,-83.9377 199.685,-125.9066 473.751,-181.863597 133.537,-27.3439 220.022,-50.8729 257.537,-69.9497 46.422,-23.5263999 101.107,-99.8335 101.745,-139.894703 0,-24.7998 -27.993,-78.851 -56.609,-110.0108 -59.137,-63.5876 -205.382,-98.5622 -300.126,-70.584 -60.424,17.806 -157.069,59.775 -323.037,139.8973 l -162.152,78.214703 -28.615,-26.071103 c -86.492,-78.2147 -127.814,-119.5492 -127.814,-125.9067 0,-13.99 130.36,-137.9889 178.052,-169.783 122.092,-82.0301 265.79,-134.8108 416.496,-155.1582 90.307,-11.4461 246.737,-4.4523 321.775,15.2614 202.836,52.778 345.29,169.1462 394.889,322.3973 18.438,57.8666 22.892,178.684603 8.9,235.280503 -31.792,123.998797 -110.645,210.478697 -233.384,256.899797 -22.245,8.2671 -157.69,41.3319 -301.413,73.7625 -143.075,31.7961 -275.965,64.2266 -295.043,71.2209 -43.876,16.5321 -85.845,55.3226 -99.845,91.5684 -15.262,40.0613 -9.539,100.4698 12.732,139.2603 40.683,68.6764 141.168,104.9222 289.966,104.9222 164.682,0 293.782,-71.8552 403.788,-224.4694 l 12.707,-17.8054 95.384,114.4606 95.384,114.4605 157.076,0.6363 h 157.068 l 1.909,-462.2939 c 2.528,-460.3868 2.528,-462.9288 17.169,-516.98 46.405,-171.0546 142.436,-274.7055 293.142,-316.038 31.162,-8.904 63.592,-11.446 133.538,-11.446 82.669,0.6343 100.46,2.542 174.859,21.6188 203.499,51.5072 245.468,88.3901 216.214,188.8599 -14.622,50.873 -47.692,129.722 -54.062,129.722 -3.168,0 -27.968,-10.1728 -55.322,-22.8921 -174.86,-80.1225 -339.566,-55.3227 -384.065,58.5035 -11.445,29.8866 -17.808,326.2126 -13.993,640.3428 l 3.815,290.603 h 250.545 249.906 v 123.9991 123.9988 h -257.536 -257.536 v 212.38653 c 0,117.0051 -1.908,214.2965 -4.455,215.5672 -3.176,1.2734 -68.037,-13.3537 -144.983,-33.7011 z"
       id="path5"
       style="stroke-width:0.635897" />
    <path
       d="m 21649.354,1286.5065 c -132.914,-22.2556 -227.651,-99.836 -295.688,-240.3672 -15.901,-34.3379 -29.901,-62.31693 -30.522,-62.95313 0,-0.6371 -59.138,4.4516 -130.362,11.4461 -158.985,15.26143 -307.136,16.53213 -381.536,3.1783 -96.031,-17.1691 -200.306,-59.7724 -267.074,-108.7375 -42.616,-31.1572 -113.821,-108.7376 -138.62,-150.7064 -47.073,-79.4855 -71.225,-193.946 -59.139,-281.6991 15.262,-106.1935 43.237,-169.1468 134.158,-295.6898 31.171,-43.8766 57.23,-82.030097 57.23,-85.845397 0,-3.1789 -17.789,-22.2557 -40.061,-41.3325 -115.081,-101.1068 -158.958,-190.767603 -138.612,-286.151403 13.353,-61.0455 47.692,-120.1835 124.638,-214.296 l 16.529,-19.7138 -46.431,-24.7997 c -52.767,-27.3419 -117.628,-85.2085 -141.168,-125.9067 -36.247,-61.0456 -44.498,-139.2599 -22.893,-221.9252 36.246,-142.44027 143.724,-230.82927 342.761,-281.06477 251.174,-64.2251 499.172,-61.0456 722.37,8.2666 152.614,47.692 331.935,176.14187 378.358,271.52557 30.523,62.3184 40.061,111.9179 36.246,181.8659 -10.823,185.0446 -105.561,312.2219 -260.729,349.1048 -45.784,10.8089 -161.506,18.4397 -405.048,26.0704 -373.284,11.446 -405.715,15.8984 -449.592,58.5036 -26.06,24.7998 -35.598,54.0493 -36.246,104.9222 0,54.049303 19.725,82.664403 73.78,109.371903 51.507,24.7999001 100.467,32.4304001 213.019,32.4304001 229.562,0 416.514,34.3381999 522.057,96.0207999 19.724,12.082497 61.046,45.784197 90.946,75.670097 47.054,45.7843 59.138,62.9533 83.937,114.4606 38.777,81.3957 51.508,141.8049 47.692,228.2867 -4.453,81.3937 -29.253,165.3315 -70.584,231.4631 -54.053,87.1187 -61.683,105.5592 -61.683,147.5281 0,32.4305 3.168,43.8766 16.522,64.2239 21.631,31.1599 29.262,37.5192 75.684,59.77503 36.246,17.169 50.222,20.3475 179.945,35.6088 21.631,2.5446 26.707,5.7231 24.176,13.9906 -1.907,5.7231 -15.261,58.5011 -29.9,117.6391 l -26.061,106.1954 -39.422,-0.6363 c -20.985,-0.6369 -52.145,-3.1791 -68.677,-5.7231 z m -563.402,-509.34933 c 90.301,-18.4405 177.414,-83.9378 215.567,-162.7895 20.984,-41.3319 21.625,-45.7843 21.625,-116.3683 0,-68.0393 -1.288,-75.67 -18.457,-111.2794 -36.246,-74.3995 -115.081,-135.4451 -204.741,-158.9735 -48.98,-12.7174 -160.246,-12.7174 -209.225,0 -86.466,22.8921 -158.337,78.851 -194.583,153.2504 -18.429,36.8801 -21.604,50.8709 -23.512,101.1069 -1.908,42.6031 0,68.6762 8.251,96.0181 26.708,94.1131 106.83,167.241 214.307,195.8562 40.701,11.4461 144.336,12.7174 190.768,3.1791 z m 254.982,-1352.5423 c 47.069,-17.1691 93.476,-46.4211 119.561,-76.307 18.438,-20.9844 19.699,-25.4368 16.531,-55.3226 -6.993,-71.2206 -58.5,-139.897 -128.462,-172.3276 -106.183,-48.9631 -202.834,-68.6762 -337.011,-68.6762 -115.108,0 -165.328,8.2669 -279.789,45.7841 -62.333,20.3494 -73.132,26.0724 -101.747,54.6876 -61.046,61.0457 -82.678,132.9013 -53.415,179.322 22.892,37.5171 112.553,93.4761 167.228,103.6488 14.001,3.181 146.271,4.4523 293.162,3.8153 254.342,-1.2706 268.983,-1.9076 303.942,-14.6244 z"
       id="path6"
       style="stroke-width:0.635897" />
    <path
       d="m 14474.586,1015.6167 c -253.093,-27.34453 -449.583,-153.25113 -566.584,-362.45853 -33.701,-61.0456 -71.22,-172.3279 -85.845,-255.6286 -13.99,-82.0301 -16.533,-223.835 -5.086,-303.957397 48.326,-347.197003 255.623,-573.573403 582.476,-634.619003 221.931,-41.3326 461.011,4.4516 621.902,120.1835 48.333,34.3381 126.548,115.7312 160.245,165.3308 56.584,84.5748 99.199,194.583003 120.184,311.588103 15.26,86.481797 15.26,255.628597 0,343.381697 -57.877,328.1203 -271.537,548.7737 -585.656,604.09633 -57.878,10.1754 -195.23,17.1691 -241.636,12.0831 z m 190.768,-266.43843 c 115.082,-20.35 206.03,-89.6607 256.896,-195.8563 32.43,-66.7687 47.691,-123.3619 64.215,-235.9148 l 13.353,-90.9321 -13.353,-87.1186 c -17.79,-114.460597 -32.43,-171.690797 -59.759,-227.013497 -75.686,-153.884803 -203.501,-223.198103 -391.713,-213.659703 -82.031,4.4523 -124.643,13.9907 -181.229,41.9688 -73.763,36.2459 -131.63,102.3802 -162.794,184.410303 -59.767,159.6083 -61.045,482.005597 -1.908,615.542897 45.784,103.6509 143.717,183.7733 250.546,204.7576 19.077,3.8154 40.702,8.2651 47.693,9.5385 30.523,5.723 130.982,2.542 178.053,-5.7231 z"
       id="path7"
       style="stroke-width:0.635897" />
    <path
       d="m 22360.28,1013.072 c -69.946,-11.4461 -133.538,-31.79353 -204.122,-66.76873 -215.567,-106.1928 -366.274,-304.5911 -407.604,-537.3276 -12.731,-72.4917 -12.731,-220.0196 0.623,-308.4071 20.361,-136.718297 57.877,-253.7209 107.476,-338.295 107.468,-182.5005 319.22,-300.7765 580.571,-326.2126 224.467,-21.6215 447.666,54.6856 587.565,201.5767 56.592,59.1379 117.637,148.7987 106.83,156.4294 -1.286,1.2732 -52.147,25.4368 -112.553,54.052 l -110.645,52.143503 -38.154,-34.974403 c -81.407,-75.6709 -186.952,-137.9897 -273.436,-162.1526 -136.091,-37.5171 -303.967,6.9938 -406.335,108.1006 -71.23,70.584 -105.569,148.164403 -111.914,254.994203 l -3.816,62.953297 539.234,1.2713 539.872,1.9077 5.077,19.0767 c 2.554,10.1747 8.277,53.415 12.092,96.0202 12.707,137.3526 -11.445,288.6933 -64.222,401.2462 -90.946,194.583 -239.099,302.6861 -486.457,354.82783 -59.138,12.7194 -206.03,17.8062 -260.082,9.5384 z m 232.089,-270.25303 c 149.446,-38.7906 234.645,-146.8911 256.275,-325.5763 l 4.454,-33.7038 h -388.543 c -319.843,0 -387.881,1.2733 -387.881,8.2677 0,24.1628 27.33,110.0082 47.692,151.3427 57.853,114.4606 151.329,188.2236 265.79,209.208 45.784,8.2671 153.26,3.1785 202.213,-9.5383 z"
       id="path8"
       style="stroke-width:0.635897" />
    <path
       d="m 15479.291,709.75147 c -5.723,-308.4066 -0.646,-752.258597 9.538,-838.1041 29.877,-256.9019 186.307,-394.8889 480.735,-423.504 60.4,-6.3594 94.738,-6.3594 147.532,-0.6363 173.599,19.0767 291.234,78.851 406.955,206.6654 l 31.81,34.9724 7.631,-74.3994 c 3.816,-40.6954 9.539,-86.4797 12.067,-102.3775 l 3.815,-28.6151 h 133.537 133.538 v 747.172 747.1745 h -155.783 -155.789 l -3.195,-476.9189 -3.169,-476.918897 -17.169,-51.5073 c -34.985,-103.014503 -100.466,-177.414003 -199.045,-227.649803 -60.399,-30.5228 -109.357,-41.9689 -178.034,-41.9689 -157.07,0 -273.439,73.7624 -315.407,200.306003 -6.99,20.3475 -9.539,136.7157 -12.092,550.046997 l -3.17,524.6108 -159.603,1.9077 -160.246,1.2714 z"
       id="path9"
       style="stroke-width:0.635897" />
    <path
       d="m 19851.038,227.74647 v -747.1726 h 146.271 146.251 v 747.1726 747.172 h -146.251 -146.271 z"
       id="path10"
       style="stroke-width:0.635897" />
  </g>
</svg>
