<?xml version="1.0" standalone="no"?>
<!DOCTYPE svg PUBLIC "-//W3C//DTD SVG 20010904//EN"
 "http://www.w3.org/TR/2001/REC-SVG-20010904/DTD/svg10.dtd">
<svg version="1.0" xmlns="http://www.w3.org/2000/svg"
 width="300.000000pt" height="84.000000pt" viewBox="0 0 300.000000 84.000000"
 preserveAspectRatio="xMidYMid meet">
<metadata>
Created by potrace 1.10, written by Peter Selinger 2001-2011
</metadata>
<g transform="translate(0.000000,84.000000) scale(0.100000,-0.100000)"
fill="#000000" stroke="none">
<path d="M1526 812 c-3 -6 -2 -13 4 -17 5 -3 10 -20 10 -36 0 -18 -4 -28 -10
-24 -16 10 -12 -11 5 -25 18 -15 14 -82 -5 -105 -17 -21 -47 -28 -69 -16 -17
10 -18 9 -7 -14 6 -13 13 -20 14 -15 5 15 22 12 22 -4 0 -22 -152 -35 -229
-20 -52 11 -24 24 52 25 60 1 66 3 37 10 -30 6 -26 7 23 6 31 -1 57 1 57 6 0
23 -224 -2 -233 -26 -2 -7 0 -50 5 -97 5 -47 10 -113 13 -147 2 -35 6 -66 8
-70 3 -5 8 -48 12 -97 10 -124 23 -136 138 -136 47 0 98 3 115 6 28 6 30 9 26
43 -3 25 -2 30 4 16 8 -16 10 -14 16 15 4 19 10 70 13 113 3 42 9 77 12 77 3
0 4 29 3 65 -3 42 0 65 7 65 6 0 11 10 11 23 0 20 21 41 60 59 12 5 12 7 -2 7
-10 1 -18 5 -18 11 0 14 50 24 62 12 6 -6 10 -93 9 -239 -1 -200 -4 -230 -18
-241 -14 -10 -10 -12 27 -12 37 0 41 2 28 13 -14 10 -17 42 -20 225 -2 116 -1
212 2 212 6 0 29 -62 37 -100 2 -14 20 -72 38 -130 18 -58 41 -131 50 -162 9
-32 22 -58 29 -58 7 0 44 92 89 226 42 125 78 228 79 230 2 2 2 -95 1 -214 -3
-188 -6 -219 -20 -230 -14 -10 -4 -12 57 -12 70 0 73 1 52 16 -22 15 -22 19
-22 239 0 220 0 224 22 239 21 15 20 16 -33 16 l-55 0 -63 -182 c-77 -227 -77
-227 -84 -208 -7 21 -98 318 -109 358 -8 29 -12 32 -48 32 -25 0 -40 5 -40 12
0 9 -3 9 -12 0 -7 -7 -21 -12 -32 -12 -14 0 -29 -14 -43 -38 l-22 -37 -1 37
c0 25 6 41 18 48 16 11 16 11 0 6 -25 -8 -22 8 6 38 13 15 34 26 49 26 14 0
29 5 32 10 5 8 11 8 20 0 10 -8 19 -8 34 2 22 14 28 28 11 28 -5 0 -10 -3 -10
-7 0 -5 -12 -9 -27 -10 -16 -1 -43 -5 -60 -8 -35 -8 -43 4 -18 25 8 7 12 16 9
21 -11 19 -23 7 -29 -31 -10 -59 -25 -59 -25 -1 0 44 3 51 20 51 11 0 20 5 20
11 0 6 -7 9 -15 5 -10 -4 -15 1 -15 14 0 11 -5 20 -10 20 -6 0 -8 -11 -4 -25
5 -19 2 -25 -10 -25 -17 0 -18 4 -20 55 -2 36 -20 72 -30 57z m46 -194 c-1
-46 -20 -69 -56 -67 -13 0 -16 3 -7 6 11 5 11 7 0 14 -12 7 -12 9 0 9 25 0 51
32 51 63 0 17 3 28 6 24 4 -3 6 -25 6 -49z m-11 -133 c-3 -63 -23 -88 -58 -74
-19 7 -32 5 -51 -7 -19 -12 -26 -13 -32 -4 -9 14 -76 6 -97 -11 -8 -7 -14 -5
-21 7 -6 11 -22 17 -45 17 -27 0 -37 5 -41 20 -4 17 -1 18 27 12 18 -4 40 -7
49 -7 10 1 20 -3 22 -7 3 -4 26 -5 51 -1 25 4 48 3 51 -2 8 -13 64 24 64 42 0
8 -5 22 -11 30 -9 12 -10 11 -6 -8 7 -29 -19 -55 -47 -48 -12 3 -26 6 -32 6
-5 0 -25 14 -42 31 -21 21 -32 26 -32 16 0 -8 10 -22 23 -30 22 -16 22 -16
-13 -15 -64 0 -85 11 -85 43 l0 29 115 -2 c63 -1 131 2 150 7 59 15 65 12 61
-44z m-251 -125 c0 -13 -6 -16 -25 -12 -14 2 -25 0 -25 -6 0 -5 14 -12 30 -14
25 -4 30 -1 30 16 0 20 0 20 16 0 8 -10 12 -13 9 -6 -11 21 32 55 59 48 22 -5
23 -10 20 -78 -2 -40 -6 -104 -10 -142 -5 -47 -4 -67 3 -63 6 4 11 24 11 44 1
21 6 53 11 72 6 19 7 39 3 45 -9 15 -9 66 1 66 4 0 7 7 7 15 0 20 39 55 55 49
9 -4 12 -20 8 -55 -3 -31 -1 -49 6 -49 6 0 11 17 12 38 0 20 4 46 9 57 11 26
2 -80 -11 -119 -5 -16 -9 -51 -9 -79 0 -40 -5 -54 -26 -73 -14 -13 -22 -24
-18 -24 3 0 1 -7 -6 -15 -9 -11 -9 -15 -1 -15 7 0 10 -4 6 -9 -3 -5 -35 -13
-71 -16 -65 -7 -65 -7 -95 26 -34 39 -35 42 -49 171 -13 125 -13 141 2 132 7
-5 9 0 6 14 -5 18 -3 19 18 10 13 -6 24 -19 24 -28z"/>
<path d="M1367 323 c5 -12 2 -15 -10 -10 -13 5 -17 1 -17 -18 0 -28 24 -34 34
-9 9 24 7 54 -4 54 -5 0 -6 -8 -3 -17z"/>
<path d="M1310 229 c0 -35 4 -70 8 -77 5 -7 7 20 5 60 -5 91 -13 102 -13 17z"/>
<path d="M1346 209 c3 -50 13 -79 15 -46 5 58 3 80 -7 88 -9 7 -11 -4 -8 -42z"/>
<path d="M1408 78 c-21 -10 -38 -20 -38 -23 0 -9 65 8 78 20 23 21 -1 23 -40
3z"/>
<path d="M137 550 c-109 -35 -165 -160 -121 -270 21 -53 60 -80 116 -80 99 0
149 101 88 180 -24 31 -33 23 -18 -16 23 -62 -16 -124 -78 -124 -51 0 -73 16
-96 67 -25 56 -18 101 22 147 40 45 98 60 195 51 l75 -7 0 -238 c0 -212 -2
-240 -17 -248 -11 -7 5 -9 51 -9 51 0 63 2 52 11 -13 9 -16 51 -18 239 -2 125
-1 227 2 227 3 -1 32 -7 65 -15 72 -18 188 -19 218 -4 28 14 67 50 67 61 0 4
-15 -1 -32 -12 -47 -29 -124 -26 -270 10 -132 33 -256 45 -301 30z"/>
<path d="M2284 435 c-36 -98 -125 -310 -133 -318 -18 -18 -13 -24 19 -24 30 0
41 12 18 19 -8 3 -6 18 7 51 18 47 18 47 65 47 47 0 48 -1 65 -42 16 -40 16
-43 -1 -55 -10 -7 -16 -13 -13 -13 138 -7 227 -2 190 12 -5 2 -11 67 -13 145
-1 78 0 139 3 135 10 -10 89 -258 89 -277 0 -8 6 -15 14 -15 13 0 41 67 94
225 l27 80 3 -140 c2 -116 0 -142 -13 -151 -8 -6 -15 -13 -15 -15 0 -2 29 -4
65 -4 63 0 81 7 50 19 -12 4 -15 31 -15 155 0 132 2 151 17 160 26 14 14 18
-40 13 -56 -5 -56 -5 -103 -142 -18 -52 -35 -88 -37 -80 -3 8 -20 61 -38 117
l-33 101 -50 4 c-58 5 -65 3 -45 -15 11 -10 13 -42 11 -164 -3 -140 -5 -153
-21 -153 -29 0 -40 20 -101 187 -44 119 -60 153 -66 138z m-1 -154 c9 -27 17
-51 17 -54 0 -3 -18 -5 -40 -4 -22 1 -40 3 -40 5 0 12 35 102 40 102 3 0 13
-22 23 -49z"/>
<path d="M2870 439 c0 -4 7 -9 15 -13 12 -4 15 -31 15 -155 0 -132 -2 -151
-17 -160 -27 -15 -13 -18 57 -12 40 4 58 9 48 13 -16 7 -18 24 -18 157 0 132
2 151 18 160 9 6 15 11 12 11 -32 5 -130 3 -130 -1z"/>
<path d="M478 404 c21 -14 22 -22 22 -159 0 -137 -1 -145 -22 -159 -21 -15
-13 -16 109 -16 l131 0 5 28 c3 15 1 31 -4 37 -5 5 -9 1 -9 -13 0 -29 -28 -42
-89 -42 l-51 0 0 65 0 65 45 0 c31 0 47 -5 51 -15 11 -28 24 -15 24 25 0 43
-6 49 -24 25 -6 -8 -30 -18 -53 -21 l-43 -6 0 97 c0 96 0 97 23 91 12 -3 41
-6 64 -6 37 0 43 -3 49 -25 3 -14 11 -25 16 -25 6 0 7 7 4 16 -3 9 -6 24 -6
35 0 18 -9 19 -132 19 -123 0 -131 -1 -110 -16z"/>
<path d="M783 402 c14 -15 17 -42 17 -157 0 -115 -3 -142 -17 -157 -15 -17
-13 -18 53 -18 52 1 65 3 52 11 -23 13 -25 95 -3 125 18 26 74 54 108 54 16 0
46 -17 78 -45 75 -64 126 -98 141 -93 7 3 -22 28 -65 57 l-77 52 0 81 c0 65 3
83 18 94 15 12 8 13 -52 14 -66 0 -68 -1 -53 -18 12 -13 17 -37 17 -75 0 -55
-1 -57 -27 -57 -31 0 -93 -34 -93 -50 0 -5 -3 -10 -7 -10 -5 0 -6 41 -4 92 2
71 7 95 20 105 13 10 4 12 -53 13 -66 0 -68 -1 -53 -18z"/>
<path d="M1000 171 c0 -66 -3 -82 -17 -90 -14 -8 -1 -10 51 -11 58 0 67 2 53
13 -11 8 -17 30 -19 70 -3 53 -6 60 -35 78 l-33 21 0 -81z"/>
</g>
</svg>
